<svg xmlns="http://www.w3.org/2000/svg" width="20" height="20" viewBox="0 0 20 20"><defs><style>.a{fill:#fff;}</style></defs><circle class="a" cx="0.781" cy="0.781" r="0.781" transform="translate(14.297 7.422)"/><path class="a" d="M16.875,1.563H15.859V.781a.781.781,0,0,0-1.562,0v.781H10.742V.781a.781.781,0,0,0-1.562,0v.781H5.664V.781A.781.781,0,0,0,4.1.781v.781H3.125A3.129,3.129,0,0,0,0,4.688V16.875A3.129,3.129,0,0,0,3.125,20H9.1a.781.781,0,0,0,0-1.562H3.125a1.564,1.564,0,0,1-1.562-1.562V4.688A1.564,1.564,0,0,1,3.125,3.125H4.1v.781a.781.781,0,0,0,1.563,0V3.125H9.18v.781a.781.781,0,0,0,1.563,0V3.125H14.3v.781a.781.781,0,0,0,1.563,0V3.125h1.016a1.564,1.564,0,0,1,1.563,1.563V9.141a.781.781,0,0,0,1.563,0V4.688A3.129,3.129,0,0,0,16.875,1.563Z"/><path class="a" d="M274.727,270a4.727,4.727,0,1,0,4.727,4.727A4.732,4.732,0,0,0,274.727,270Zm0,7.891a3.164,3.164,0,1,1,3.164-3.164A3.168,3.168,0,0,1,274.727,277.891Z" transform="translate(-259.453 -259.453)"/><path class="a" d="M372.914,331.6h-.352v-.82a.781.781,0,0,0-1.562,0v1.6a.781.781,0,0,0,.781.781h1.133a.781.781,0,0,0,0-1.562Z" transform="translate(-356.508 -317.109)"/><circle class="a" cx="0.781" cy="0.781" r="0.781" transform="translate(10.898 7.422)"/><circle class="a" cx="0.781" cy="0.781" r="0.781" transform="translate(7.5 10.82)"/><circle class="a" cx="0.781" cy="0.781" r="0.781" transform="translate(4.102 7.422)"/><circle class="a" cx="0.781" cy="0.781" r="0.781" transform="translate(4.102 10.82)"/><circle class="a" cx="0.781" cy="0.781" r="0.781" transform="translate(4.102 14.219)"/><circle class="a" cx="0.781" cy="0.781" r="0.781" transform="translate(7.5 14.219)"/><circle class="a" cx="0.781" cy="0.781" r="0.781" transform="translate(7.5 7.422)"/></svg>