<svg xmlns="http://www.w3.org/2000/svg" width="18.218" height="18.218" viewBox="0 0 18.218 18.218">
  <g id="Group_536" data-name="Group 536" transform="translate(-1245.217 -634.652)">
    <path id="Path_458" data-name="Path 458" d="M21.655,19.956H17.8A1.051,1.051,0,0,1,16.75,18.9V15.051a1.051,1.051,0,0,1,2.1,0v2.8h2.8a1.051,1.051,0,1,1,0,2.1Z" transform="translate(1235.672 626.777)" fill="#cec001"/>
    <path id="Path_459" data-name="Path 459" d="M20.109,29.218a9.109,9.109,0,1,1,9.109-9.109A9.119,9.119,0,0,1,20.109,29.218Zm0-16.116a7.007,7.007,0,1,0,7.007,7.007A7.015,7.015,0,0,0,20.109,13.1Z" transform="translate(1234.217 623.652)" fill="#cec001"/>
  </g>
</svg>
