<svg xmlns="http://www.w3.org/2000/svg" width="33.736" height="26.544" viewBox="0 0 33.736 26.544">
  <g id="Group_83" data-name="Group 83" transform="translate(-922.49 -544.519)">
    <path id="Path_35" data-name="Path 35" d="M32.614,48.935a3.628,3.628,0,0,0-2.662-1.122H24.629v-.064a2.878,2.878,0,0,0-.866-2.084,2.935,2.935,0,0,0-2.084-.866H12.058a2.956,2.956,0,0,0-2.982,2.949v.064H3.784a3.628,3.628,0,0,0-2.662,1.122A3.811,3.811,0,0,0,0,51.6V67.561a3.625,3.625,0,0,0,1.122,2.661,3.813,3.813,0,0,0,2.662,1.122H29.952a3.628,3.628,0,0,0,2.662-1.122,3.811,3.811,0,0,0,1.122-2.661V51.6A3.625,3.625,0,0,0,32.614,48.935Zm-.545,18.626h-.032a2.08,2.08,0,0,1-2.084,2.084H3.784A2.08,2.08,0,0,1,1.7,67.561V51.6a2.08,2.08,0,0,1,2.084-2.084H9.973a.862.862,0,0,0,.866-.866v-.93a1.207,1.207,0,0,1,1.251-1.25h9.588a1.207,1.207,0,0,1,1.251,1.25v.93a.862.862,0,0,0,.866.866h6.189A2.08,2.08,0,0,1,32.068,51.6Z" transform="translate(922.49 499.719)" fill="#fff"/>
    <circle id="Ellipse_8" data-name="Ellipse 8" cx="1.575" cy="1.575" r="1.575" transform="translate(949.185 551.369)" fill="#fff"/>
    <g id="Group_82" data-name="Group 82" transform="translate(931.449 551.355)">
      <path id="Path_36" data-name="Path 36" d="M119.909,130.8a7.9,7.9,0,1,0,5.594,2.315A7.923,7.923,0,0,0,119.909,130.8Zm4.372,12.313a6.209,6.209,0,0,1-8.744,0,6.146,6.146,0,0,1-1.8-4.372,6.283,6.283,0,0,1,1.8-4.372,6.146,6.146,0,0,1,4.372-1.8,6.282,6.282,0,0,1,4.372,1.8,6.146,6.146,0,0,1,1.8,4.372A6.016,6.016,0,0,1,124.281,143.113Z" transform="translate(-112 -130.8)" fill="#fff"/>
      <path id="Path_37" data-name="Path 37" d="M1020.026-78.964l1.822,2.652.107,3.456-1.929,3.215-3.215,1.447h-4.1l-3.108-2.6-.938-3.938.938-3.054,2.438-2.411,3.536-.8s2.357.295,2.491.375S1020.026-78.964,1020.026-78.964Z" transform="translate(-1007.488 82.447)" fill="#fff"/>
    </g>
    <text id="_" data-name="+" transform="translate(935.057 564.063)" font-size="15" font-family="Muli-Bold, Muli" font-weight="700"><tspan x="0" y="0">+</tspan></text>
  </g>
</svg>
