<svg xmlns="http://www.w3.org/2000/svg" width="47.274" height="15" viewBox="0 0 47.274 15">
  <g id="Group_71" data-name="Group 71" transform="translate(-580.667 -1814)">
    <path id="Path_18" data-name="Path 18" d="M-3498.833-514h17.826l-1.091,1.185h-15.123Z" transform="translate(4108.949 2328)"/>
    <path id="Path_19" data-name="Path 19" d="M-3532.935-514l-1.849,1.422-13.89-.19-1.659-1.233Z" transform="translate(4131 2328)"/>
    <path id="Path_20" data-name="Path 20" d="M-3536.25-509.936s1.477-2.845,3.811-.284c.048.047,6.146,0,6.146,0a8.514,8.514,0,0,1,5.812-2.039,8.828,8.828,0,0,1,5.145,2.039c0,.047,6.574,0,6.574,0s1.429-2.37,3.478,0c-.048.047.667,3.176-1.762,3.6-.1-.095-1.1.237-1.715-1.422.143.095-7.765,0-7.765,0s-2,3.414-3.954,3.366a5.533,5.533,0,0,1-4.669-3.366c-.048.095-7.289,0-7.289,0s-1.477,1.991-2.525,1.043a2.889,2.889,0,0,1-1.286-2.133C-3536.155-509.13-3536.25-509.936-3536.25-509.936Z" transform="translate(4124.929 2327.254)"/>
    <path id="Path_21" data-name="Path 21" d="M-3508.566-496.951v4.089l-.854.711h-5.191l-.889-.889v-3.911a5.528,5.528,0,0,1,3.556-1,5.385,5.385,0,0,1,2.987.747C-3508.958-497.235-3508.566-496.951-3508.566-496.951Z" transform="translate(4116.058 2321.132)"/>
    <path id="Path_22" data-name="Path 22" d="M-3502.586-499.144s-1.494-1.653.2-2.862c.018-.018.765,0,.765,0l-.089,8.125h-.871Z" transform="translate(4110.768 2322.881)"/>
    <path id="Path_23" data-name="Path 23" d="M-3502.236-499.144s1.494-1.653-.2-2.862c-.018-.018-.765,0-.765,0l.089,8.125h.871Z" transform="translate(4101.636 2322.881)"/>
    <g id="Ellipse_2" data-name="Ellipse 2" transform="translate(602.549 1824.857)" fill="none" stroke="#fff" stroke-width="1">
      <circle cx="1.422" cy="1.422" r="1.422" stroke="none"/>
      <circle cx="1.422" cy="1.422" r="0.922" fill="none"/>
    </g>
  </g>
</svg>
