<svg xmlns="http://www.w3.org/2000/svg" width="19.646" height="18" viewBox="0 0 19.646 18">
  <g id="Group_65" data-name="Group 65" transform="translate(-1154.561 -237.201)">
    <path id="Path_7" data-name="Path 7" d="M83.145,81.976H71.44a2.416,2.416,0,0,0-4.577,0H65.036a.767.767,0,1,0,0,1.533h1.827a2.416,2.416,0,0,0,4.577,0h11.7a.767.767,0,1,0,0-1.533ZM69.151,83.619a.876.876,0,1,1,.878-.876A.878.878,0,0,1,69.151,83.619Z" transform="translate(1090.293 156.867)"/>
    <path id="Path_8" data-name="Path 8" d="M83.145,210.509H81.318a2.416,2.416,0,0,0-4.577,0h-11.7a.767.767,0,1,0,0,1.533h11.7a2.416,2.416,0,0,0,4.577,0h1.827a.767.767,0,1,0,0-1.533Zm-4.116,1.642a.876.876,0,1,1,.878-.876A.878.878,0,0,1,79.029,212.152Z" transform="translate(1090.293 34.925)"/>
    <path id="Path_9" data-name="Path 9" d="M83.145,339.042H74.733a2.416,2.416,0,0,0-4.577,0h-5.12a.767.767,0,1,0,0,1.533h5.12a2.416,2.416,0,0,0,4.577,0h8.412a.767.767,0,1,0,0-1.533Zm-10.7,1.642a.876.876,0,1,1,.878-.876A.878.878,0,0,1,72.444,340.685Z" transform="translate(1090.293 -87.018)"/>
  </g>
</svg>
