<svg xmlns="http://www.w3.org/2000/svg" width="21.604" height="20" viewBox="0 0 21.604 20">
  <g id="add" transform="translate(0 -19)">
    <g id="Group_88" data-name="Group 88" transform="translate(0 19)">
      <g id="Group_87" data-name="Group 87">
        <path id="Path_38" data-name="Path 38" d="M400.051,91.1h-.76v-.759a.844.844,0,1,0-1.688,0V91.1h-.759a.844.844,0,0,0,0,1.688h.759v.759a.844.844,0,0,0,1.688,0v-.759h.76a.844.844,0,0,0,0-1.688Z" transform="translate(-379.291 -86.525)"/>
        <path id="Path_39" data-name="Path 39" d="M13.308,28.714a5.422,5.422,0,1,0-6.617,0A10,10,0,0,0,0,38.156.844.844,0,0,0,.844,39H19.156A.844.844,0,0,0,20,38.156,10,10,0,0,0,13.308,28.714ZM6.266,24.422A3.734,3.734,0,1,1,10,28.156,3.738,3.738,0,0,1,6.266,24.422ZM1.73,37.312a8.313,8.313,0,0,1,16.539,0Z" transform="translate(0 -19)"/>
      </g>
    </g>
  </g>
</svg>
