<svg xmlns="http://www.w3.org/2000/svg" width="62.925" height="24.996" viewBox="0 0 62.925 24.996">
  <g id="google-pay-seeklogo.com" transform="translate(-0.975 0.004)">
    <path id="Path_482" data-name="Path 482" d="M193.423,20.76v7.331H191.1V9.994h6.162a5.6,5.6,0,0,1,4,1.573,4.988,4.988,0,0,1,1.66,3.81,5.049,5.049,0,0,1-1.66,3.839,5.582,5.582,0,0,1-3.983,1.544Zm0-8.544v6.321h3.9a3.038,3.038,0,0,0,2.295-.938,3.079,3.079,0,0,0,.058-4.358l-.058-.058a3,3,0,0,0-2.295-.952Zm14.85,3.088a5.81,5.81,0,0,1,4.07,1.371,4.893,4.893,0,0,1,1.486,3.781v7.62h-2.222V26.359h-.1a4.438,4.438,0,0,1-3.839,2.121,4.983,4.983,0,0,1-3.42-1.212,3.827,3.827,0,0,1-1.371-3.031,3.7,3.7,0,0,1,1.458-3.059,6.091,6.091,0,0,1,3.882-1.14,7,7,0,0,1,3.406.75v-.534a2.662,2.662,0,0,0-.952-2.049,3.377,3.377,0,0,0-2.237-.851A3.576,3.576,0,0,0,205.344,19l-2.049-1.284a5.666,5.666,0,0,1,4.979-2.41Zm-3,8.991a1.873,1.873,0,0,0,.765,1.515,2.838,2.838,0,0,0,1.8.606,3.692,3.692,0,0,0,2.612-1.082,3.407,3.407,0,0,0,1.155-2.554,4.735,4.735,0,0,0-3.031-.866,4.021,4.021,0,0,0-2.367.678,2.063,2.063,0,0,0-.938,1.7Zm21.315-8.587-7.764,17.837h-2.4l2.886-6.234L214.2,15.723h2.526l3.68,8.89h.058l3.593-8.89Z" transform="translate(-162.687 -8.554)" fill="#5f6368"/>
    <path id="Path_483" data-name="Path 483" d="M82.972,61.107A12.838,12.838,0,0,0,82.8,59H73v4h5.614a4.812,4.812,0,0,1-2.078,3.161v2.6h3.348A10.137,10.137,0,0,0,82.972,61.107Z" transform="translate(-61.631 -50.489)" fill="#4285f4"/>
    <path id="Path_484" data-name="Path 484" d="M17.98,94.2a9.939,9.939,0,0,0,6.884-2.511l-3.348-2.6a6.295,6.295,0,0,1-9.366-3.29H8.7v2.684A10.406,10.406,0,0,0,17.98,94.2Z" transform="translate(-6.61 -73.421)" fill="#34a853"/>
    <path id="Path_485" data-name="Path 485" d="M5.539,46.353a6.27,6.27,0,0,1,0-3.983V39.7H2.09a10.3,10.3,0,0,0,0,9.323Z" transform="translate(0 -33.974)" fill="#fbbc04"/>
    <path id="Path_486" data-name="Path 486" d="M17.98,4.109a5.592,5.592,0,0,1,3.983,1.559l2.958-2.958A9.919,9.919,0,0,0,17.98,0,10.392,10.392,0,0,0,8.7,5.726L12.149,8.41A6.212,6.212,0,0,1,17.98,4.109Z" transform="translate(-6.61 0)" fill="#ea4335"/>
  </g>
</svg>
