<svg xmlns="http://www.w3.org/2000/svg" width="418.421" height="399.758" viewBox="0 0 418.421 399.758">
  <g id="Group_658" data-name="Group 658" transform="translate(-848.797 -195)">
    <g id="Group_111" data-name="Group 111" transform="translate(1181.677 406.734)">
      <path id="Path_60" data-name="Path 60" d="M3728.238,2212.988c-8.414-4.858-22.012-4.882-30.372-.055a13.637,13.637,0,0,0-5.082,4.736h-6.94v16.495l29.639-.11a29.667,29.667,0,0,0,12.85-3.53C3736.693,2225.7,3736.652,2217.843,3728.238,2212.988Z" transform="translate(-3661.916 -2091.109)" opacity="0.15"/>
      <g id="Group_110" data-name="Group 110" transform="translate(0 0)">
        <g id="Group_108" data-name="Group 108" transform="translate(0 79.816)">
          <g id="Group_106" data-name="Group 106" transform="translate(0 22.535)">
            <path id="Path_61" data-name="Path 61" d="M3617.89,2190.74h-43.81v16.434h.078c.146,3.132,2.277,6.244,6.428,8.641,8.569,4.947,22.419,4.972,30.935.056,4.159-2.4,6.261-5.541,6.34-8.7h.029Z" transform="translate(-3574.081 -2178.852)" fill="#f3f3f3"/>
            <path id="Path_62" data-name="Path 62" d="M3611.713,2156.8c-8.516,4.917-22.366,4.892-30.935-.056s-8.612-12.943-.1-17.859,22.365-4.891,30.933.056S3620.228,2151.887,3611.713,2156.8Z" transform="translate(-3574.271 -2135.217)" fill="#f7f8f8"/>
          </g>
          <g id="Group_107" data-name="Group 107">
            <path id="Path_63" data-name="Path 63" d="M3617.89,2085.49h-43.81v24.062h.078c.146,3.13,2.277,6.243,6.428,8.64,8.569,4.947,22.419,4.973,30.935.056,4.159-2.4,6.261-5.539,6.34-8.7h.029Z" transform="translate(-3574.081 -2073.602)" fill="#c9c0b7"/>
            <path id="Path_64" data-name="Path 64" d="M3617.89,2190.74h-43.81v16.434h.078c.146,3.132,2.277,6.244,6.428,8.641,8.569,4.947,22.419,4.972,30.935.056,4.159-2.4,6.261-5.541,6.34-8.7h.029Z" transform="translate(-3574.081 -2156.317)" fill="#f3f3f3"/>
            <path id="Path_65" data-name="Path 65" d="M3617.89,2085.49h-43.81v24.062h.078c.146,3.13,2.277,6.243,6.428,8.64,8.569,4.947,22.419,4.973,30.935.056,4.159-2.4,6.261-5.539,6.34-8.7h.029Z" transform="translate(-3574.081 -2073.602)" fill="#c9c0b7"/>
            <path id="Path_66" data-name="Path 66" d="M3601.049,2085.46a13.187,13.187,0,0,1-.365,2.438,37.931,37.931,0,0,1-3.736,10.253,60.8,60.8,0,0,1-15.169,18.434,47.908,47.908,0,0,1-7.69,5.021V2085.46h26.96Z" transform="translate(-3574.087 -2073.578)" fill="#c9c0b7"/>
            <path id="Path_67" data-name="Path 67" d="M3671.272,2145.32v26.165h-.021c-.083,3.148-2.186,6.287-6.339,8.694-6.172,3.566-15.159,4.529-22.9,2.907a86.428,86.428,0,0,0,17.46-16.3,72.593,72.593,0,0,0,6.026-8.746A68.179,68.179,0,0,0,3671.272,2145.32Z" transform="translate(-3627.468 -2120.622)" fill="#c9c0b7"/>
            <path id="Path_68" data-name="Path 68" d="M3611.713,2051.55c-8.516,4.916-22.366,4.891-30.935-.056s-8.612-12.944-.1-17.86,22.365-4.892,30.933.055S3620.228,2046.632,3611.713,2051.55Z" transform="translate(-3574.271 -2029.963)" fill="#e8ded3"/>
            <path id="Path_69" data-name="Path 69" d="M3622.109,2056.132a11.232,11.232,0,0,1-1.152.733c-7.3,4.216-19.176,4.2-26.52-.041-.429-.252-.826-.5-1.2-.764-6.121-4.269-5.754-10.576,1.119-14.552,7.3-4.216,19.176-4.2,26.521.051C3627.81,2045.556,3628.23,2051.906,3622.109,2056.132Z" transform="translate(-3585.731 -2036.562)" fill="#f7f8f8"/>
            <path id="Path_70" data-name="Path 70" d="M3632.333,2072.948a11.272,11.272,0,0,1-1.152.732c-7.3,4.216-19.176,4.2-26.52-.042-.429-.252-.827-.5-1.2-.764-2.814-3.421-1.779-7.626,3.1-10.441,6.215-3.587,16.321-3.566,22.577.042C3634.06,2065.311,3635.128,2069.539,3632.333,2072.948Z" transform="translate(-3595.956 -2053.378)" fill="#865955"/>
          </g>
        </g>
        <g id="Group_109" data-name="Group 109" transform="translate(1.968)">
          <path id="Path_71" data-name="Path 71" d="M3598.413,1845.884q-.957-.141-1.883-.346a28.979,28.979,0,0,0-1.329-4.9c-1.652-4.372-3.305-8.735-4.74-13.181-.365-1.109-.71-2.229-1.045-3.348a149.739,149.739,0,0,1-5.357-57.729,365.58,365.58,0,0,1,8.358,36.03c0,.032.011.053.011.085,1.4,7.594,2.583,15.242,3.62,22.911.429,3.128.827,6.266,1.2,9.394.231,1.873.451,3.735.659,5.607C3598.122,1842.22,3598.319,1844.053,3598.413,1845.884Z" transform="translate(-3583.275 -1743.001)" fill="#304950"/>
          <path id="Path_72" data-name="Path 72" d="M3705.758,1843.776q-.1.33-.189.659c-1.161,3.924-2.511,7.764-3.923,11.581-.607,1.653-1.234,3.306-1.863,4.959-.062.167-.125.335-.177.5-.043.094-.073.2-.115.292a2.227,2.227,0,0,1-.094-.251c-.806.178-1.622.324-2.459.439.042-.407.094-.8.135-1.213.147-1.318.3-2.626.462-3.944.606-5.146,1.265-10.283,2.007-15.42.021-.167.042-.335.073-.513a399.276,399.276,0,0,1,11.309-54.161A149.585,149.585,0,0,1,3705.758,1843.776Z" transform="translate(-3672.603 -1758.971)" fill="#617459"/>
          <path id="Path_73" data-name="Path 73" d="M3667.334,1744.62c-.032.555-.073,1.109-.105,1.664-.051.9-.115,1.789-.166,2.678-.147,2.186-.314,4.374-.5,6.549q-.675,8.145-1.674,16.248c-.272,2.281-.575,4.561-.888,6.831q-.629,4.5-1.35,8.976c-.314,1.915-.638,3.829-.983,5.733-.461-.021-.921-.041-1.382-.073-.315-.021-.618-.053-.931-.083q-.127-8.835-.523-17.65c-.053-1.224-.094-2.427-.115-3.63-.074-3.431-.042-6.811.021-10.189.052-3.7.126-7.417.094-11.194-.032-4.143.063-8.275.314-12.408.084-1.716.21-3.442.366-5.158.271-3.295.649-6.59,1.109-9.876,1.13-7.952,3.462-16.048,4.948-24.041.607,7.742,2.019,15.315,2.344,23.037A217.146,217.146,0,0,1,3667.334,1744.62Z" transform="translate(-3642.529 -1690.041)" fill="#617459"/>
          <path id="Path_74" data-name="Path 74" d="M3628.351,1737.452c0,.45,0,.9-.011,1.35q-.062,4.943-.272,9.886c-.158,3.881-.367,7.784-.649,11.665-.314-.021-.617-.053-.93-.083-.5-.043-.994-.105-1.485-.189-.377-3.715-.838-7.418-1.361-11.111-.428-3.118-.9-6.235-1.38-9.353-1.183-7.638-2.437-15.274-3.442-22.953,0-.032-.011-.052-.011-.085a199.287,199.287,0,0,1-1.945-28.09,221.336,221.336,0,0,1,2.678-31.323,341.377,341.377,0,0,1,7.1,42.873c.229,2.28.439,4.572.607,6.863Q3628.493,1722.143,3628.351,1737.452Z" transform="translate(-3609.666 -1657.167)" fill="#f3f8ee"/>
          <path id="Path_75" data-name="Path 75" d="M3684.026,1854.82c-.021,12.743-.041,25.589-1.12,38.279q-.076.88-.156,1.758c-.46,4.99-1.1,9.959-1.967,14.877-.344,1.955-.721,3.9-1.15,5.847-1.015.116-2.039.168-3.065.188-.136-1.914-.262-3.828-.366-5.743a133.9,133.9,0,0,1-.188-13.442c.03-.817.073-1.644.136-2.47.073-1.1.167-2.2.293-3.3.606-5.43,1.558-10.806,2.7-16.152.147-.659.282-1.308.429-1.956.419-1.885.859-3.756,1.318-5.63.294-1.224.6-2.437.91-3.661C3682.456,1860.8,3684.026,1857.488,3684.026,1854.82Z" transform="translate(-3656.082 -1812.502)" fill="#304950"/>
          <path id="Path_76" data-name="Path 76" d="M3658.66,1899.419c-.826.283-1.683.523-2.562.732-.043.094-.074.2-.115.292a2.152,2.152,0,0,1-.094-.251q-.957-2.353-1.862-4.718c-.084-.2-.157-.4-.231-.6q-1.679-4.315-3.231-8.684c-.535-1.485-1.047-2.971-1.539-4.466-.282-.817-.555-1.632-.817-2.459-.145-.439-.283-.889-.428-1.339q-.973-3.106-1.841-6.246c-.22-.806-.44-1.6-.638-2.406-2.772-11.058-3.536-21.855-3.724-33.364.668,3.662,2.354,6.707,4.132,9.761.324.565.66,1.13.973,1.706.7,1.2,1.381,2.416,1.988,3.693a68.269,68.269,0,0,1,3.483,8.736c.356,1.087.68,2.2.974,3.305.46,1.706.847,3.432,1.15,5.178q.879,4.96,1.642,9.95c.064.429.136.858.189,1.3a4.35,4.35,0,0,1,.084.555q1.1,7.281,1.946,14.593C3658.324,1896.269,3658.491,1897.849,3658.66,1899.419Z" transform="translate(-3629.094 -1797.645)" fill="#8bd0e5"/>
        </g>
      </g>
    </g>
    <g id="Group_113" data-name="Group 113" transform="translate(994.356 244.705)">
      <path id="Path_77" data-name="Path 77" d="M2743.763,924.485l-40.86-23.59c-2.061-1.191-3.733-.238-3.733,2.128v27.133a8.226,8.226,0,0,0,3.733,6.44l30.523,17.623,12.682,30.223-7.078-26.988,4.733,2.732c2.061,1.191,3.734.238,3.734-2.128V930.925A8.226,8.226,0,0,0,2743.763,924.485Z" transform="translate(-2699.17 -900.382)" fill="#74bcd4"/>
      <g id="Group_112" data-name="Group 112" transform="translate(14.595 24.515)">
        <path id="Path_78" data-name="Path 78" d="M2772.416,1019.61c0,1.608-1.136,2.257-2.538,1.447a5.6,5.6,0,0,1-2.538-4.378c0-1.608,1.137-2.257,2.538-1.447A5.589,5.589,0,0,1,2772.416,1019.61Z" transform="translate(-2767.339 -1014.884)" fill="#fff"/>
        <path id="Path_79" data-name="Path 79" d="M2801.915,1036.6c0,1.609-1.137,2.256-2.538,1.447a5.59,5.59,0,0,1-2.539-4.377c0-1.608,1.136-2.257,2.539-1.447A5.592,5.592,0,0,1,2801.915,1036.6Z" transform="translate(-2790.522 -1028.236)" fill="#fff"/>
        <path id="Path_80" data-name="Path 80" d="M2831.414,1053.58c0,1.609-1.137,2.257-2.539,1.447a5.593,5.593,0,0,1-2.539-4.378c0-1.608,1.136-2.256,2.539-1.447A5.6,5.6,0,0,1,2831.414,1053.58Z" transform="translate(-2813.706 -1041.581)" fill="#fff"/>
      </g>
    </g>
    <g id="Group_127" data-name="Group 127" transform="translate(1058.666 195)">
      <g id="Group_126" data-name="Group 126" transform="translate(0)">
        <g id="Group_117" data-name="Group 117" transform="translate(74.514 42.803)">
          <g id="Group_116" data-name="Group 116">
            <g id="Group_114" data-name="Group 114">
              <path id="Path_81" data-name="Path 81" d="M3406.176,902.15v38.222l-58.606-33.837V868.145Z" transform="translate(-3347.57 -868.145)" fill="#fff"/>
            </g>
            <g id="Group_115" data-name="Group 115" transform="translate(0 46.253)">
              <path id="Path_82" data-name="Path 82" d="M3347.57,1084.18l58.606,33.837v82.493l-58.606-34.027Z" transform="translate(-3347.57 -1084.18)" fill="#fff"/>
            </g>
          </g>
        </g>
        <g id="Group_121" data-name="Group 121" transform="translate(149.946 86.659)">
          <g id="Group_120" data-name="Group 120">
            <g id="Group_118" data-name="Group 118">
              <path id="Path_83" data-name="Path 83" d="M3758.5,1106.986v38.221l-58.606-33.836V1072.98Z" transform="translate(-3699.891 -1072.98)" fill="#fff"/>
            </g>
            <g id="Group_119" data-name="Group 119" transform="translate(0 46.255)">
              <path id="Path_84" data-name="Path 84" d="M3699.891,1289.02l58.606,33.837v82.493l-58.606-34.027Z" transform="translate(-3699.891 -1289.02)" fill="#fff"/>
            </g>
          </g>
        </g>
        <g id="Group_125" data-name="Group 125">
          <g id="Group_124" data-name="Group 124">
            <g id="Group_122" data-name="Group 122">
              <path id="Path_85" data-name="Path 85" d="M3058.146,702.229V740.45l-58.606-33.836v-38.39Z" transform="translate(-2999.54 -668.224)" fill="#fff"/>
            </g>
            <g id="Group_123" data-name="Group 123" transform="translate(0 46.254)">
              <path id="Path_86" data-name="Path 86" d="M2999.54,884.261l58.606,33.836v82.493l-58.606-34.027Z" transform="translate(-2999.54 -884.261)" fill="#fff"/>
            </g>
          </g>
        </g>
      </g>
    </g>
    <g id="Group_170" data-name="Group 170" transform="translate(848.797 268.943)">
      <path id="Path_87" data-name="Path 87" d="M2266.758,1739.551l72.307-44.5-96.015-57.814-153.659,13.1-58.106,33.342,12.746.386,48.1,28.141c-6.225,14.557.565,30.627,20.356,42.053,18.076,10.436,42.861,14.6,66.23,12.512l41.449,23.591h10.893l51.857,30.241.133,8.607,23.793.318,58.334-33.121Z" transform="translate(-2028.721 -1503.715)" opacity="0.15"/>
      <g id="Group_132" data-name="Group 132" transform="translate(157.329 36.817)">
        <g id="Group_128" data-name="Group 128" transform="translate(93.966 71.68)">
          <path id="Path_88" data-name="Path 88" d="M3225.134,1599.97h0a2,2,0,0,1-2.59-1.136l-29.518-75.688,7.178-2.8,26.1,77.122A2,2,0,0,1,3225.134,1599.97Z" transform="translate(-3193.026 -1520.344)" fill="#ae8e8b"/>
        </g>
        <g id="Group_129" data-name="Group 129" transform="translate(0 82.413)">
          <path id="Path_89" data-name="Path 89" d="M2755.413,1647.3h0a2,2,0,0,0,2.59-1.136l29.518-75.687-10.172,6.043-23.1,68.277A2,2,0,0,0,2755.413,1647.3Z" transform="translate(-2754.141 -1570.474)" fill="#ece0c7"/>
        </g>
        <g id="Group_130" data-name="Group 130" transform="translate(54.666 108.388)">
          <path id="Path_90" data-name="Path 90" d="M3011.207,1774.58h0a2,2,0,0,1-1.721-2.243l10.6-80.546,7.64,1-14.288,80.155A2,2,0,0,1,3011.207,1774.58Z" transform="translate(-3009.468 -1691.792)" fill="#ae8e8b"/>
        </g>
        <g id="Group_131" data-name="Group 131" transform="translate(14.381)">
          <path id="Path_91" data-name="Path 91" d="M2923.223,1266.579c1.511,9.826.313,20.811-6.489,28.043-3.4,3.622-7.91,5.98-12.471,7.961a106.122,106.122,0,0,1-47.328,8.6c-7.3-.365-14.673-1.539-21.24-4.743-5.318-2.619-11.793-7.533-13.618-13.487a18.827,18.827,0,0,1,1.629-14.633,23.194,23.194,0,0,1,2.4-3.727c3.753-4.782,9.175-7.714,14.021-11.259,7.023-5.121,13.3-11.389,17.592-19.012,5.344-9.5,7.324-20.445,11.024-30.7l.352-.977a52.531,52.531,0,0,1,7.493-13.9,32.753,32.753,0,0,1,6.906-6.646,34.976,34.976,0,0,1,18.165-6.5c7.454-.43,22.009,2.1,22.843,11.9a16.737,16.737,0,0,1-3.922,11.637,23.808,23.808,0,0,0-4.26,8.821c-1.76,6.4-1.472,13.252-.249,19.716C2917.92,1247.426,2921.711,1256.769,2923.223,1266.579Z" transform="translate(-2821.311 -1185.548)" fill="#decdc6"/>
          <path id="Path_92" data-name="Path 92" d="M2923.1,1305.777c.066,7.337-3.688,14.346-9.056,19.337s-12.237,8.105-19.247,10.191a80.666,80.666,0,0,1-35.654,2.28c-5.81-.938-11.61-2.554-16.613-5.669a25.517,25.517,0,0,1-8.8-8.887c-1.955-3.427-1.668-6.178-1.551-9.6a23.247,23.247,0,0,1,2.4-3.727c3.753-4.782,9.175-7.714,14.021-11.259a69.116,69.116,0,0,0,11.194-10.073c.742-.848,1.458-1.707,2.149-2.606a50.635,50.635,0,0,0,4.248-6.333c5.343-9.5,7.324-20.445,11.024-30.7.053-.091.092-.17.145-.26,4.182-7.558,9.863-15.1,18.151-17.514a20.058,20.058,0,0,1,20.654,6.437c6.411,7.832,4,16.8,1.8,25.619a46.571,46.571,0,0,0,.156,23.221c.991,3.752,2.464,7.415,3.545,11.128a36.89,36.89,0,0,1,1.134,4.965A23.556,23.556,0,0,1,2923.1,1305.777Z" transform="translate(-2829.787 -1220.652)" fill="#fef1ea"/>
        </g>
      </g>
      <g id="Group_149" data-name="Group 149" transform="translate(0 1.681)">
        <g id="Group_137" data-name="Group 137" transform="translate(0 27.024)">
          <g id="Group_133" data-name="Group 133" transform="translate(0 71.68)">
            <path id="Path_93" data-name="Path 93" d="M2020.583,1562.08h0a2,2,0,0,0,2.589-1.136l29.517-75.688-7.178-2.8-26.1,77.122A2,2,0,0,0,2020.583,1562.08Z" transform="translate(-2019.309 -1482.454)" fill="#ae8e8b"/>
          </g>
          <g id="Group_134" data-name="Group 134" transform="translate(93.964 82.413)">
            <path id="Path_94" data-name="Path 94" d="M2490.293,1609.407h0a2,2,0,0,1-2.59-1.136l-29.518-75.687,10.172,6.043,23.1,68.277A2,2,0,0,1,2490.293,1609.407Z" transform="translate(-2458.185 -1532.584)" fill="#ece0c7"/>
          </g>
          <g id="Group_135" data-name="Group 135" transform="translate(54.424 108.385)">
            <path id="Path_95" data-name="Path 95" d="M2290.022,1736.679h0a2,2,0,0,0,1.722-2.243l-10.6-80.546-7.641,1,14.287,80.155A2,2,0,0,0,2290.022,1736.679Z" transform="translate(-2273.506 -1653.89)" fill="#ae8e8b"/>
          </g>
          <g id="Group_136" data-name="Group 136" transform="translate(9.731)">
            <path id="Path_96" data-name="Path 96" d="M2066.08,1228.69c-1.511,9.826-.313,20.811,6.49,28.043,3.4,3.622,7.909,5.98,12.47,7.961a106.11,106.11,0,0,0,47.329,8.6c7.3-.364,14.673-1.538,21.24-4.743,5.317-2.619,11.793-7.532,13.618-13.486a18.845,18.845,0,0,0-1.628-14.633,23.273,23.273,0,0,0-2.4-3.727c-3.754-4.783-9.175-7.714-14.021-11.259-7.024-5.121-13.3-11.389-17.592-19.012-5.342-9.5-7.323-20.446-11.023-30.7q-.178-.489-.352-.977a52.543,52.543,0,0,0-7.493-13.9,32.766,32.766,0,0,0-6.907-6.646,34.964,34.964,0,0,0-18.164-6.5c-7.454-.43-22.009,2.1-22.844,11.9a16.745,16.745,0,0,0,3.923,11.637,23.819,23.819,0,0,1,4.261,8.821c1.759,6.4,1.472,13.253.247,19.716C2071.384,1209.536,2067.592,1218.878,2066.08,1228.69Z" transform="translate(-2064.759 -1147.659)" fill="#fef1ea"/>
            <path id="Path_97" data-name="Path 97" d="M2111.1,1267.877c-.064,7.336,3.688,14.348,9.057,19.338s12.236,8.105,19.247,10.19a80.664,80.664,0,0,0,35.653,2.28c5.812-.938,11.61-2.554,16.615-5.668a25.52,25.52,0,0,0,8.795-8.887c1.955-3.427,1.669-6.176,1.552-9.6a23.263,23.263,0,0,0-2.4-3.727c-3.754-4.783-9.174-7.714-14.021-11.259a69.142,69.142,0,0,1-11.194-10.073c-.742-.847-1.458-1.707-2.15-2.606a50.841,50.841,0,0,1-4.249-6.333c-5.342-9.5-7.323-20.446-11.023-30.7-.053-.091-.092-.17-.144-.26-4.183-7.559-9.864-15.1-18.152-17.514a20.059,20.059,0,0,0-20.655,6.438c-6.411,7.832-4,16.8-1.8,25.619a46.571,46.571,0,0,1-.156,23.221c-.99,3.753-2.463,7.415-3.545,11.128a36.991,36.991,0,0,0-1.133,4.965A23.416,23.416,0,0,0,2111.1,1267.877Z" transform="translate(-2101.175 -1182.755)" fill="#decdc6"/>
          </g>
        </g>
        <g id="Group_148" data-name="Group 148" transform="translate(29.504)">
          <g id="Group_141" data-name="Group 141" transform="translate(65.659 178.823)">
            <path id="Path_98" data-name="Path 98" d="M2463.874,1870.887a5.333,5.333,0,0,0,.9,2.339,6.038,6.038,0,0,0,3.452,2.393c2.646.675,5.4,1.023,7.8,2.413a27.288,27.288,0,0,1,3.845,3.034c2.412,2.053,5.4,3.847,8.552,3.479a5.253,5.253,0,0,0,2.765-1.108,4.224,4.224,0,0,0,1.341-2.7,10.1,10.1,0,0,0,.007-3.619,19.524,19.524,0,0,0-.915-3c-.044.857-.864-.146-1.014-.329a8.446,8.446,0,0,0-1.384-1.343c-1.758-1.35-3.95-1.967-5.983-2.853a9.5,9.5,0,0,1-4.309-3.243c-.349-.532-.513-1.047-1.133-1.306a3.368,3.368,0,0,0-2.635.386,9,9,0,0,1-4.349.78,7.524,7.524,0,0,1-2.307-.857,5.05,5.05,0,0,0-1.735-.54c-.321-.019-.551.194-.815.208-.244.012-.586-.34-.521-.569-.12.154-.28.346-.483.33-.012-.029.005-.052,0-.08a5.82,5.82,0,0,0-1.115,3.459A12.92,12.92,0,0,0,2463.874,1870.887Z" transform="translate(-2463.782 -1862.782)" fill="#fbf9ed"/>
            <path id="Path_99" data-name="Path 99" d="M2464.673,1862.682a5.689,5.689,0,0,0,4.2,4.806c2.636.672,5.392,1.017,7.8,2.413a3.32,3.32,0,0,1,.449.292,28.539,28.539,0,0,1,3.394,2.739c2.411,2.05,5.409,3.841,8.544,3.48a5.316,5.316,0,0,0,2.773-1.1c1.378-1.154,1.516-3.169,1.378-4.857a8.707,8.707,0,0,0-3.342-6.15,13.494,13.494,0,0,0-3.1-1.688c-.948-.4-1.929-.741-2.876-1.154a9.543,9.543,0,0,1-4.324-3.255,7.558,7.558,0,0,0-.586-.913.016.016,0,0,0-.017-.017,1.462,1.462,0,0,0-.518-.362,3.374,3.374,0,0,0-2.635.379,9.073,9.073,0,0,1-4.358.775,7.449,7.449,0,0,1-2.308-.844c-.156-.07-.362-.155-.586-.241a2.776,2.776,0,0,0-1.689-.259c-.534.19-1.067,1.016-1.344,1.482A7.025,7.025,0,0,0,2464.673,1862.682Z" transform="translate(-2464.431 -1856.665)" fill="#c88260"/>
            <path id="Path_100" data-name="Path 100" d="M2531.989,1863.147a53.307,53.307,0,0,0,4.841,2.6,1.822,1.822,0,0,0,.43-.017,11,11,0,0,0,1.6-.6c.225-.086.449-.154.69-.224-.948-.4-1.929-.741-2.877-1.154a9.54,9.54,0,0,1-4.323-3.255,7.519,7.519,0,0,0-.586-.913A9.2,9.2,0,0,1,2531.989,1863.147Z" transform="translate(-2517.21 -1858.956)" fill="#7e454e"/>
            <path id="Path_101" data-name="Path 101" d="M2464.673,1862.682a5.69,5.69,0,0,0,4.2,4.805c2.636.672,5.392,1.017,7.8,2.412a3.311,3.311,0,0,1,.449.292,8.487,8.487,0,0,1,1.877-2.669,5.2,5.2,0,0,1,3.842-1.482,15.535,15.535,0,0,0,.379-2,29.983,29.983,0,0,1-3.979-2.223,1.884,1.884,0,0,0-.517-.275,2.026,2.026,0,0,0-.792-.034,14.729,14.729,0,0,1-2.309-.087,11.866,11.866,0,0,1-5.254-2.377,6.511,6.511,0,0,1-1.808-2.067,2.771,2.771,0,0,0-1.688-.259c-.535.19-1.067,1.016-1.344,1.482A7.027,7.027,0,0,0,2464.673,1862.682Z" transform="translate(-2464.431 -1856.664)" fill="#7e454e"/>
            <g id="Group_138" data-name="Group 138" transform="translate(16.44 5.48)">
              <path id="Path_102" data-name="Path 102" d="M2540.984,1885.191a.311.311,0,0,0,.17-.025c.185-.088.368-.367.523-.5a7.026,7.026,0,0,1,1.134-.833,5.872,5.872,0,0,1,1.224-.549,6.09,6.09,0,0,1,.643-.144c.336-.068.519-.3.35-.624a.505.505,0,0,0-.114-.148c-.312-.26-.929.022-1.259.133a6.893,6.893,0,0,0-1.313.61,8.09,8.09,0,0,0-1.167.849c-.274.238-.822.618-.524,1.041A.5.5,0,0,0,2540.984,1885.191Z" transform="translate(-2540.566 -1882.257)" fill="#fbf9ed"/>
            </g>
            <g id="Group_139" data-name="Group 139" transform="translate(14.529 4.591)">
              <path id="Path_103" data-name="Path 103" d="M2532.059,1881.041a.3.3,0,0,0,.171-.025c.183-.088.367-.365.523-.5a7.05,7.05,0,0,1,1.134-.833,5.836,5.836,0,0,1,1.225-.549,6.109,6.109,0,0,1,.643-.144c.335-.068.519-.3.348-.624a.477.477,0,0,0-.112-.148c-.314-.26-.929.022-1.259.133a6.968,6.968,0,0,0-1.315.61,8.014,8.014,0,0,0-1.165.849c-.274.239-.822.618-.525,1.041A.512.512,0,0,0,2532.059,1881.041Z" transform="translate(-2531.642 -1878.107)" fill="#fbf9ed"/>
            </g>
            <g id="Group_140" data-name="Group 140" transform="translate(12.563 3.824)">
              <path id="Path_104" data-name="Path 104" d="M2522.878,1877.456a.311.311,0,0,0,.171-.023c.185-.088.368-.367.523-.506a7.1,7.1,0,0,1,1.135-.833,5.927,5.927,0,0,1,1.224-.549,6.437,6.437,0,0,1,.643-.143c.335-.067.519-.3.35-.624a.481.481,0,0,0-.114-.148c-.314-.26-.929.022-1.259.133a6.819,6.819,0,0,0-1.313.61,7.9,7.9,0,0,0-1.167.848c-.274.238-.822.617-.524,1.04A.5.5,0,0,0,2522.878,1877.456Z" transform="translate(-2522.461 -1874.524)" fill="#fbf9ed"/>
            </g>
          </g>
          <g id="Group_145" data-name="Group 145" transform="translate(50.721 184.385)">
            <path id="Path_105" data-name="Path 105" d="M2421.052,1907.569c.188.22.361.74.686.755a.816.816,0,0,0,.507-.233,5.913,5.913,0,0,1,.58,3.336,4.813,4.813,0,0,1-1.022,3.117,5.747,5.747,0,0,1-2.486,1.5,11.713,11.713,0,0,1-4.25.485,22.51,22.51,0,0,1-9.384-2.484,9.839,9.839,0,0,1-4.288-4.205c-.411-.911-.593-1.906-.944-2.842-.59-1.572-2.085-2.391-3.37-3.323a7.5,7.5,0,0,1-2.453-2.735c-1.334-2.587-.327-6.165,1.451-8.3-.066.079.277.587.345.647.294.256.375.131.652-.076.182-.136.337-.4.571-.4s.375.292.58.371c.3.117.616.081.944.181a9.064,9.064,0,0,0,5.562.134c.8-.279,1.423-1,2.267-.8a5.2,5.2,0,0,1,2.3,1.468,19.643,19.643,0,0,1,1.94,2.49,41.616,41.616,0,0,0,3.474,4.187C2416.8,1903.107,2419.037,1905.222,2421.052,1907.569Z" transform="translate(-2394.014 -1890.501)" fill="#fbf9ed"/>
            <path id="Path_106" data-name="Path 106" d="M2396.06,1888.211a5.309,5.309,0,0,0,.11,1.057c.055.22.091.458.146.676a6.188,6.188,0,0,0,2.372,3.7c1.277.931,2.773,1.75,3.376,3.32.309.822.473,1.679.784,2.482a3.2,3.2,0,0,0,.145.364,9.819,9.819,0,0,0,4.288,4.2,22.507,22.507,0,0,0,9.4,2.5,11.981,11.981,0,0,0,4.25-.493,5.792,5.792,0,0,0,2.482-1.5c1.732-1.953.747-5.237-.749-6.97-1.2-1.405-2.482-2.719-3.759-4.014-.857-.894-1.734-1.806-2.591-2.718a40.614,40.614,0,0,1-3.466-4.178,19.761,19.761,0,0,0-1.953-2.5c-.054-.055-.127-.129-.182-.184a5.1,5.1,0,0,0-2.1-1.276c-.857-.219-1.477.511-2.281.785a8.931,8.931,0,0,1-5.564-.128,7.192,7.192,0,0,1-.931-.182c-.255-.092-.364-.4-.675-.366a.707.707,0,0,0-.4.238,11.854,11.854,0,0,0-1.478,1.715,6.659,6.659,0,0,0-.8,1.442c-.072.164-.127.346-.182.511a4.363,4.363,0,0,0-.182.839A4.1,4.1,0,0,0,2396.06,1888.211Z" transform="translate(-2395.622 -1882.643)" fill="#c88260"/>
            <path id="Path_107" data-name="Path 107" d="M2459.29,1891.663a4.764,4.764,0,0,0,.6,1c.366.565.749,1.131,1.132,1.7.365.511.712,1.041,1.076,1.533a3.174,3.174,0,0,0,.456.62,4.605,4.605,0,0,0,1.4.42,13.789,13.789,0,0,1,4.142,1.442.812.812,0,0,0,.274.091.321.321,0,0,0,.182-.073c.018,0,.018-.018.037-.018-.857-.894-1.734-1.806-2.591-2.718a40.573,40.573,0,0,1-3.466-4.178,19.79,19.79,0,0,0-1.953-2.5c-.054-.055-.127-.129-.182-.184a2.351,2.351,0,0,1-.127,1.223,6.538,6.538,0,0,1-.42.876C2459.8,1890.986,2459.29,1891.607,2459.29,1891.663Z" transform="translate(-2445.314 -1887.48)" fill="#7e454e"/>
            <path id="Path_108" data-name="Path 108" d="M2396.06,1895.924a5.312,5.312,0,0,0,.11,1.057c.055.22.091.458.146.676a6.189,6.189,0,0,0,2.372,3.7c1.277.931,2.773,1.751,3.376,3.32.309.822.473,1.679.784,2.482a8.646,8.646,0,0,1,2.609-2.28,8.44,8.44,0,0,1,2.681-.967,9.331,9.331,0,0,1,1.423-.165c.274,0,1.022.183,1.241.037a.242.242,0,0,0,.09-.164c.22-.949.439-1.916.658-2.865a2.682,2.682,0,0,0,.09-1,2.332,2.332,0,0,0-.419-.859,35.04,35.04,0,0,0-2.7-3.43c-.165-.2-.329-.4-.493-.583a2.131,2.131,0,0,1-1.077.309,14.761,14.761,0,0,1-9.669-2.737,6.662,6.662,0,0,0-.8,1.442c-.072.164-.127.346-.182.511a4.365,4.365,0,0,0-.183.839A4.108,4.108,0,0,0,2396.06,1895.924Z" transform="translate(-2395.622 -1890.356)" fill="#7e454e"/>
            <g id="Group_142" data-name="Group 142" transform="translate(11.367 4.081)">
              <path id="Path_109" data-name="Path 109" d="M2447.505,1904.453a.326.326,0,0,0,.182-.009c.2-.076.424-.351.6-.483a7.519,7.519,0,0,1,1.277-.768,6.21,6.21,0,0,1,1.345-.459,6.506,6.506,0,0,1,.692-.089c.361-.039.576-.266.429-.625a.505.505,0,0,0-.105-.166c-.306-.306-.982-.067-1.341.018a7.334,7.334,0,0,0-1.444.516,8.53,8.53,0,0,0-1.313.781c-.312.226-.926.571-.654,1.047A.551.551,0,0,0,2447.505,1904.453Z" transform="translate(-2447.106 -1901.703)" fill="#fbf9ed"/>
            </g>
            <g id="Group_143" data-name="Group 143" transform="translate(12.451 5.846)">
              <path id="Path_110" data-name="Path 110" d="M2452.567,1912.7a.32.32,0,0,0,.182-.01c.2-.075.424-.351.6-.482a7.583,7.583,0,0,1,1.277-.769,6.275,6.275,0,0,1,1.345-.46,6.585,6.585,0,0,1,.692-.089c.361-.038.576-.265.429-.624a.5.5,0,0,0-.105-.168c-.306-.306-.982-.067-1.341.018a7.327,7.327,0,0,0-1.445.517,8.476,8.476,0,0,0-1.312.782c-.312.225-.926.571-.654,1.047A.535.535,0,0,0,2452.567,1912.7Z" transform="translate(-2452.168 -1909.947)" fill="#fbf9ed"/>
            </g>
            <g id="Group_144" data-name="Group 144" transform="translate(13.534 7.616)">
              <path id="Path_111" data-name="Path 111" d="M2457.627,1920.963a.326.326,0,0,0,.182-.009,3.315,3.315,0,0,0,.6-.483,7.581,7.581,0,0,1,1.276-.767,6.178,6.178,0,0,1,1.345-.46,6.565,6.565,0,0,1,.692-.089c.361-.039.576-.267.429-.624a.509.509,0,0,0-.105-.166c-.305-.306-.982-.067-1.341.018a7.3,7.3,0,0,0-1.444.516,8.526,8.526,0,0,0-1.313.781c-.312.225-.926.571-.654,1.047A.543.543,0,0,0,2457.627,1920.963Z" transform="translate(-2457.228 -1918.213)" fill="#fbf9ed"/>
            </g>
          </g>
          <path id="Path_112" data-name="Path 112" d="M2385.48,1500.4a19.646,19.646,0,0,0-2.066-3.371c-1.1-1.605-9.382-9.723-12.311-12.2q-6.907-5.841-14.362-10.995l-.117-.083a186.21,186.21,0,0,0-15.973-9.873c.775.427-1.685,1.771-1.987,1.845a36.559,36.559,0,0,0-3.592.893,10.333,10.333,0,0,0-5.545,4.1c-1.474,2.408-1.522,5.395-1.509,8.218a17.772,17.772,0,0,0,.849,6.5c1.04,2.638,3.25,4.618,5.469,6.384a85.028,85.028,0,0,0,16.476,10.249,86.77,86.77,0,0,0,9.122,3.7c2.87.978,3.639,1.439,3.136,4.773-1.238,8.24-3.734,16.211-5.924,24.23-.531,1.941-1.044,3.888-1.519,5.845-.413,1.7-1.272,3.886-1.1,5.656.294,2.987,5.984,4.274,8.409,4.511a17.247,17.247,0,0,0,9.422-1.85,2.681,2.681,0,0,0,.8-.553,2.879,2.879,0,0,0,.519-1.031c1.036-3,8.472-28.32,10.161-34.075a59.99,59.99,0,0,0,1.91-7.16,10.769,10.769,0,0,0,.068-4.758A8.393,8.393,0,0,0,2385.48,1500.4Z" transform="translate(-2291.425 -1369.155)" fill="#424c63"/>
          <path id="Path_113" data-name="Path 113" d="M2248.909,1518.378a9.788,9.788,0,0,0-.983-3.556,20.672,20.672,0,0,0-5.962-6.448c-5.29-4.086-10.672-8.288-14.345-13.873a11.819,11.819,0,0,1-2.1-5.044c-.287-2.551.05-5.112-.346-7.679a25.246,25.246,0,0,0-2.682-8.047,17.484,17.484,0,0,1-1.821-3.88c-.264,2.316-.764,5.025-3.464,4.67-2.741-.359-5.134.809-7.729,1.542a21,21,0,0,1-21.27-6.536,33.382,33.382,0,0,0-5.264,18.738,19.409,19.409,0,0,0,1.927,8.56,21.456,21.456,0,0,0,6.164,6.76c4.832,3.724,10.3,6.522,15.77,9.233,3.774,1.872,7.569,3.71,11.432,5.395,1.928.841,3.874,1.645,5.84,2.393,2.491.948,4.229,1.676,4.509,4.557.283,2.908-.156,5.822-.231,8.73q-.277,10.777.333,21.554c.09,1.6-.16,3.172.649,4.6a8.366,8.366,0,0,0,2.957,3,10.628,10.628,0,0,0,5.653,1.432,9.379,9.379,0,0,0,4.476-1.12c3.725-2.118,3.241-6.339,3.625-10.057.444-4.284,2.085-21.044,2.316-25.15C2248.521,1525.262,2249.239,1521.605,2248.909,1518.378Z" transform="translate(-2177.404 -1373.59)" fill="#556282"/>
          <path id="Path_114" data-name="Path 114" d="M2216.264,1190.705q-2.253,22.249-4.488,44.479a15.672,15.672,0,0,1-1.334,5.766,12.674,12.674,0,0,1-3.949,4.116c-.519.371-1.038.723-1.576,1.057-.574.37-1.167.7-1.761,1.02a33.449,33.449,0,0,1-33.354-1.186,4.255,4.255,0,0,1-1.446-1.3,4.75,4.75,0,0,1-.556-2.15c-1.372-14.369-2.465-29.034-7.805-42.439-.723-1.836-1.539-3.634-2.151-5.488-.426-1.279-1.112-3.059-.464-4.356a6.674,6.674,0,0,1,2.021-2.058,153.6,153.6,0,0,1,15.5-10.161,32.059,32.059,0,0,1,9.382-3.949,28.7,28.7,0,0,1,8.547-.074,57.1,57.1,0,0,1,16.964,4.58c1.279.593,2.54,1.223,3.764,1.928a5.616,5.616,0,0,1,2.076,1.7C2217.1,1184.53,2216.523,1188.127,2216.264,1190.705Z" transform="translate(-2157.112 -1141.1)" fill="#f3f3f3"/>
          <g id="Group_146" data-name="Group 146" transform="translate(37.293 42.672)">
            <path id="Path_115" data-name="Path 115" d="M2341.805,1283.1c-.575.371-1.168.7-1.761,1.02-.779-6.47-1.206-12.978-1.614-19.356-.167-2.373-.314-4.747-.482-7.12-.872-11.958-2.281-24.622-6.656-36.228l1.742-.668c4.45,11.829,5.878,24.659,6.767,36.766.168,2.373.316,4.746.483,7.138C2340.675,1270.731,2341.084,1276.942,2341.805,1283.1Z" transform="translate(-2331.293 -1220.746)" fill="#fbf9ed"/>
          </g>
          <g id="Group_147" data-name="Group 147" transform="translate(35.094 42.395)">
            <path id="Path_116" data-name="Path 116" d="M2340.039,1259.79l8.7,35.38-3.708,15.411L2338.3,1300.5l-1.655-39.694Z" transform="translate(-2333.304 -1251.154)" fill="#424c63"/>
            <path id="Path_117" data-name="Path 117" d="M2328.336,1227.325a2.6,2.6,0,0,1-.388,1.39,4.1,4.1,0,0,1-1.532.891,3.241,3.241,0,0,1-1.994.117,1.137,1.137,0,0,1-.386-.18,1.347,1.347,0,0,1-.268-.3,14.624,14.624,0,0,1-2.745-7.629,1.727,1.727,0,0,0,2.209-.383c.408-.523.522-1.3,1.1-1.627a1.8,1.8,0,0,1,1.105-.121c1.439.182,2.07,1.456,2.368,2.743a19.818,19.818,0,0,1,.522,3.208A11.975,11.975,0,0,1,2328.336,1227.325Z" transform="translate(-2321.023 -1219.453)" fill="#556282"/>
          </g>
          <path id="Path_118" data-name="Path 118" d="M2281.116,1142.243c.009.081.017.163.026.246.085.882-.241,1.076-1.044.921a3.31,3.31,0,0,0-3.654,1.447c-.325.566-.63,1.845-1.476,1.775a7.821,7.821,0,0,1-2.3-1.207,21.546,21.546,0,0,1-7.358-7.156c-.488-.779-1.509-1.906-1.271-2.859a4.255,4.255,0,0,1,.609-1.216,25.942,25.942,0,0,0,1.454-2.411,18.7,18.7,0,0,0,1.016-3.423,49.6,49.6,0,0,0,1.286-7.025c.947.917,1.871,1.857,2.888,2.69a14.812,14.812,0,0,1,2.09,2.8,27.289,27.289,0,0,0,5.32,5.558,13.033,13.033,0,0,1,1.939,1.756,5.472,5.472,0,0,1,1.178,4.009,9.821,9.821,0,0,1-.681,1.8A5.261,5.261,0,0,0,2281.116,1142.243Z" transform="translate(-2241.121 -1099.947)" fill="#fbbf9a"/>
          <path id="Path_119" data-name="Path 119" d="M2263.613,1163.09a.522.522,0,0,1,.175.194c.163.289-.023.914-.009,1.235a7.717,7.717,0,0,0,.314,1.762,10.658,10.658,0,0,0,1.387,2.933,17.063,17.063,0,0,0,5.777,5.137,10.564,10.564,0,0,0,5.18,1.722,24.882,24.882,0,0,1-3.893,6.985,58.72,58.72,0,0,1-9.616-9.215,11.314,11.314,0,0,1-1.85-2.8,6.9,6.9,0,0,1,.728-6.58C2262.078,1164.056,2263.061,1162.746,2263.613,1163.09Z" transform="translate(-2238.407 -1132.718)" fill="#fff"/>
          <path id="Path_120" data-name="Path 120" d="M2339.013,1211.523a14.915,14.915,0,0,1-.774-5.653c.067-1.18.241-2.489-.468-3.434q-.943,1.232-1.958,2.406a24.9,24.9,0,0,0-1.992,2.238c.419.339,3.455,3.008,3.882,3.413.2.192.41.378.627.551C2338.452,1211.138,2338.968,1211.393,2339.013,1211.523Z" transform="translate(-2295.987 -1163.684)" fill="#fff"/>
          <path id="Path_121" data-name="Path 121" d="M2304.469,1089.406c-.577.9-1.373,1.644-1.875,2.584a7.721,7.721,0,0,0-.275,5.492c.2.773.388,1.733-.219,2.249-.482.409-1.214.289-1.8.522a2.3,2.3,0,0,0-1.016.9c-.824,1.229-1,2.834-1.952,3.968a4.616,4.616,0,0,1-3.322,1.5,9.609,9.609,0,0,1-3.662-.681,32.37,32.37,0,0,1-8.249-4.683,4.966,4.966,0,0,1-2.157-2.625,5.785,5.785,0,0,1,.086-2.1c.192-1.31-1.02-1.766-1.8-2.665a12.509,12.509,0,0,1-2.332-10.967c-.066.257,1.055,1.385,1.316,1.494.66.275,1.271-.417,1.8-.733a8.716,8.716,0,0,1,2.878-1.036c2.014-.377,4.135-.362,6.011-1.186,1.7-.745,3.037-2.11,4.609-3.091a11.546,11.546,0,0,1,6.3-1.738,7.882,7.882,0,0,1,4.8,1.554C2306.642,1080.6,2306.417,1086.387,2304.469,1089.406Z" transform="translate(-2250.158 -1064.793)" fill="#fedecc"/>
          <path id="Path_122" data-name="Path 122" d="M2297.081,1037.157a7.327,7.327,0,0,0-3.251-.271c-1.171.137-2.326.414-3.506.484-.6.036-2.636.141-3.006-.5a6.065,6.065,0,0,1-.107,5.365,6.283,6.283,0,0,1-2.3,2.914,12.5,12.5,0,0,1-3.083,1.091,13.868,13.868,0,0,0-4.988,2.716c.2-1.59.332-3.319-.51-4.681a3.758,3.758,0,0,0-3.735-1.687,3.712,3.712,0,0,0-2.177,1.264,2.809,2.809,0,0,0-.636,2.428,31.648,31.648,0,0,1-1.464-3.858,16.639,16.639,0,0,1-.7-3.354,17.151,17.151,0,0,1,4.676-13.6c2.935-3.007,6.648-3.895,10.718-4.02a23.38,23.38,0,0,1,8.337,1.323,16.361,16.361,0,0,1,8.933,8.436c.885,1.813,2.168,5.57-.176,6.847-1.044.569-1.973-.522-2.956-.871Z" transform="translate(-2243.894 -1021.44)" fill="#696371"/>
        </g>
      </g>
      <g id="Group_153" data-name="Group 153" transform="translate(164.133 0)">
        <g id="Group_151" data-name="Group 151">
          <path id="Path_123" data-name="Path 123" d="M2792.9,1941.109a29.834,29.834,0,0,0-4.8,4.474,11.682,11.682,0,0,0-.878,1.279c-.122.208-.371,1.033-.7.734a.7.7,0,0,1-.164-.286c-.052.274-.139.539-.2.811a12.289,12.289,0,0,0-.189,3.521,4.972,4.972,0,0,0,1.242,3.2,6.276,6.276,0,0,0,3.9,1.275,15.087,15.087,0,0,0,3.991-.434,11.376,11.376,0,0,0,3.235-1.124,13.546,13.546,0,0,0,1.61-1.146,8.934,8.934,0,0,0,1.5-1.455c.427-.536,1.044-.953,1.532-1.454.92-.941,1.886-1.824,2.843-2.723a14.8,14.8,0,0,1,3.625-2.668c2.179-1.048,4.835-1.271,6.549-2.975,1.9-1.887,1.936-5.07.785-7.484a2.784,2.784,0,0,0-.955-1.224,3.012,3.012,0,0,0-1.993-.225c-2.258.3-4.476.979-6.753.969-1.367-.005-2.73-.261-4.094-.175a6.341,6.341,0,0,0-3.788,1.746c-1.306,1.064-2.537,2.222-3.822,3.311Q2794.146,1940.1,2792.9,1941.109Z" transform="translate(-2785.921 -1736.262)" fill="#f27071"/>
          <path id="Path_124" data-name="Path 124" d="M2793.566,1930.66a29.815,29.815,0,0,0-4.8,4.474,8.94,8.94,0,0,0-2.135,6.059,4.966,4.966,0,0,0,1.241,3.2,6.281,6.281,0,0,0,3.9,1.275,15.053,15.053,0,0,0,3.99-.434,11.354,11.354,0,0,0,3.236-1.123,13.533,13.533,0,0,0,1.609-1.146,8.943,8.943,0,0,0,1.5-1.455c.428-.536,1.045-.954,1.533-1.454.92-.942,1.886-1.824,2.842-2.723a14.854,14.854,0,0,1,3.626-2.668c2.178-1.049,4.835-1.271,6.55-2.975,1.9-1.886,1.936-5.069.785-7.484a2.788,2.788,0,0,0-.957-1.224,3.02,3.02,0,0,0-1.993-.225c-2.257.3-4.475.979-6.752.969-1.367,0-2.73-.26-4.1-.174a6.342,6.342,0,0,0-3.788,1.745c-1.3,1.064-2.538,2.222-3.821,3.313Q2794.808,1929.647,2793.566,1930.66Z" transform="translate(-2786.465 -1728.051)" fill="#cbd474"/>
          <path id="Path_125" data-name="Path 125" d="M2830.612,1958.681a.655.655,0,0,1-.5.369.585.585,0,0,1-.517-.25c-.082-.122-.191-.3-.321-.235-.068.036-.085.123-.1.2-.291,2.352-.764,4.908,1.351,6.554a8.3,8.3,0,0,0,2.862,1.335,17.114,17.114,0,0,0,13.368-1.791,11.744,11.744,0,0,0,2.719-2.191c.956-1.074,1.641-2.36,2.532-3.487a15.3,15.3,0,0,1,3.656-3.24,21.993,21.993,0,0,0,3.734-2.636,7.586,7.586,0,0,0,2.135-5.678c-.182-3.389-2.679-6.105-5.3-7.993.032,1.148-1.139,1.932-2.211,2.35a14.548,14.548,0,0,1-3.838.926,22.17,22.17,0,0,0-3.261.368c-1.291.329-1.774,1.057-2.649,1.917-1.117,1.1-2.59,1.954-3.792,2.971a64.56,64.56,0,0,0-6.926,6.822q-.939,1.077-1.83,2.193c-.3.382-.611.767-.9,1.158C2830.75,1958.444,2830.685,1958.568,2830.612,1958.681Z" transform="translate(-2819.715 -1741.367)" fill="#f27071"/>
          <path id="Path_126" data-name="Path 126" d="M2830.984,1947.454l-.082.109c-.9,1.205-1.823,2.29-1.6,3.912a4.146,4.146,0,0,0,1.634,2.633,8.312,8.312,0,0,0,2.861,1.336,17.119,17.119,0,0,0,13.368-1.793,11.723,11.723,0,0,0,2.719-2.191c.957-1.074,1.641-2.36,2.532-3.487a15.314,15.314,0,0,1,3.655-3.24,21.937,21.937,0,0,0,3.735-2.636,7.578,7.578,0,0,0,2.134-5.678c-.181-3.389-2.678-6.105-5.3-7.993.031,1.148-1.141,1.933-2.21,2.351a14.547,14.547,0,0,1-3.838.924,22.152,22.152,0,0,0-3.26.368c-1.292.329-1.775,1.057-2.65,1.917-1.117,1.1-2.589,1.954-3.793,2.971a64.7,64.7,0,0,0-6.926,6.823Q2832.406,1945.562,2830.984,1947.454Z" transform="translate(-2819.986 -1732.557)" fill="#cbd474"/>
          <path id="Path_127" data-name="Path 127" d="M2807.844,1678.871a50.146,50.146,0,0,1,1.873,6.148c.6,2.447.942,4.953-.351,7.266a11.585,11.585,0,0,1-1.044,1.536,44.559,44.559,0,0,1-6.033,5.652,26.416,26.416,0,0,0-2.931,2.892c-.469.557-.644,1.721.036,2.195a2.781,2.781,0,0,0,.937.4,5.6,5.6,0,0,0,2.864-.292c5.7-1.716,10.7-5.152,15.476-8.706,3.034-2.26,6.153-4.767,7.5-8.3.339-.884,0-1.356-.479-2.086-4.518-6.875-6.486-15.185-6.835-23.4a98.375,98.375,0,0,1,1.16-18,70.461,70.461,0,0,0,.983-8.043c.059-2.22,2.536-3.647,2.835-5.911a2.016,2.016,0,0,0-.295-1.476,2.56,2.56,0,0,0-.725-.589,8.977,8.977,0,0,0-3.131-1.339,9.274,9.274,0,0,0-4.691.7,60.2,60.2,0,0,0-6.218,2.8c-3.123,1.55-7.644,3.288-9.365,6.482a14.342,14.342,0,0,0-1.615,6.116,34,34,0,0,0,1.655,10.487A266.723,266.723,0,0,0,2807.844,1678.871Z" transform="translate(-2795.24 -1495.452)" fill="#fbbf9a"/>
          <path id="Path_128" data-name="Path 128" d="M2853.626,1683.034c.245.99.531,1.958.849,2.9,1.485,4.394,3.195,8.7,4.9,13.014a93.7,93.7,0,0,1,3.177,9.511,25.481,25.481,0,0,1,1.109,6.39,16.934,16.934,0,0,1-.922,5.428c-.5,1.543-1.838,2.668-2.9,3.87l-6.185,7.007c-.864.979-4.217,4.146-2.092,5.451,2.688,1.651,6.676-.792,9.074-1.966a58.436,58.436,0,0,0,8.57-5.144,25.131,25.131,0,0,0,5.059-4.927,6.822,6.822,0,0,0,1.458-5.206,29.791,29.791,0,0,1-.027-6.97c.6-5.957,2.292-12.026,1-18.01-.656-3.053-2.076-5.884-2.994-8.867a16.446,16.446,0,0,1-.832-5.094,7.7,7.7,0,0,1,1.87-4.172,20.283,20.283,0,0,0,2.553-3.812,26.213,26.213,0,0,1-6.1-2.223,25.264,25.264,0,0,1-5.236-3.867c-.811-.753-1.5-1.614-2.308-2.332a12.706,12.706,0,0,1-2.432-2.693c-.182-.288-.448-.629-.779-.548a.787.787,0,0,0-.338.228,24.181,24.181,0,0,0-6.521,9.694A22.886,22.886,0,0,0,2853.626,1683.034Z" transform="translate(-2836.961 -1522.198)" fill="#fedecc"/>
          <path id="Path_129" data-name="Path 129" d="M2843.126,1443.245a62.947,62.947,0,0,1-8.648,11.556c-3.985,4.322-21.744,24.619-22.38,25.955a9.364,9.364,0,0,1,3.839,1.584c.551.389.953.951,1.461,1.348s1.051.034,1.515-.291q.948-.66,1.9-1.322a69.062,69.062,0,0,0,8.218-6.373l-6.954,8.769c-.511.644-.718,1.071.235,1.26a47.189,47.189,0,0,1,5.238,1.351,25.89,25.89,0,0,1,4.318,1.757,22.037,22.037,0,0,1,3.6,2.45q.212.176.422.356a24.833,24.833,0,0,1,5.768,7.089,10.584,10.584,0,0,1,.927,2.04c.146.515.259.8.877.83,1.007.052,1.945-.681,2.829-1.053,1.406-.59,26.464-11.128,33.32-14.01a33.8,33.8,0,0,0,7.753-4.085c5.558-4.3,7.908-11.763,7.726-18.789s-2.542-13.789-4.877-20.418c-3.619,3.077-8.829,3.86-13.454,2.77a26.506,26.506,0,0,1-12.111-7.176,63.991,63.991,0,0,0-5.41-5.174,10.635,10.635,0,0,0-6.887-2.51c-1.477.084-4.4,2.189-4.72-.449A37.335,37.335,0,0,1,2843.126,1443.245Z" transform="translate(-2806.493 -1341.405)" fill="#f27071"/>
          <path id="Path_130" data-name="Path 130" d="M3004.729,1221.959a9.335,9.335,0,0,0-2.209,3.4c-.726,1.61-1.43,3.244-2.113,4.879-1.344,3.27-2.623,6.566-3.794,9.911-1.173,3.367-2.282,6.761-3.283,10.2-.486,1.667-1.019,3.354-1.4,5.049-.341,1.433-.581,2.19-2.006,2.926a39.639,39.639,0,0,1-13.564,3.9c-1.153.157-2.325.292-3.5.359a28.837,28.837,0,0,1-8.678-.582c-.153-.03-.282-.081-.434-.111-.737-.194-1.45-.431-2.162-.69a17.1,17.1,0,0,1-5.026-3.045c-.063-.048-.125-.117-.188-.164a5.771,5.771,0,0,1-2.037-2.993c-.27-1.488.137-2.918.174-4.412a18,18,0,0,0-.574-5.222,45.734,45.734,0,0,0-3.086-6.744,13.086,13.086,0,0,1-1.357-7.816c.662-4.055,2.964-7.582,3.735-11.653,1.072-5.529,1.043-13.1,5.028-17.214a9.659,9.659,0,0,1,5.54-2.778,16.6,16.6,0,0,1,2.982-.234c1.1-.05,2.2.009,3.275.046,2.413.131,4.848.241,7.261.373a10.824,10.824,0,0,0,3.279-.041,10.273,10.273,0,0,1,4.249-.055,6.488,6.488,0,0,0,1.43.408c.269-.1.484-1.227.253-1.416.675.521,1.35,1.064,2,1.605a111.833,111.833,0,0,1,13.685,14.074,16.242,16.242,0,0,1,2.63,3.816C3005.413,1219.071,3005.82,1220.9,3004.729,1221.959Z" transform="translate(-2914.36 -1158.71)" fill="#fbf9ed"/>
          <path id="Path_131" data-name="Path 131" d="M2965.786,1205.793c-.871,2.658-1.594,5.434-2.335,8.165-.566,2.082-1.106,4.17-1.6,6.268a192.834,192.834,0,0,0-3.9,21.957q-.657,5.541-1,11.112c-.113,1.854-.119,3.722-.257,5.573-.119,1.574.1,3.14-.073,4.723a.6.6,0,0,1-.148.4.613.613,0,0,1-.434.1,6.92,6.92,0,0,1-2.413-.355,2.346,2.346,0,0,1-1.528-1.767,3.629,3.629,0,0,1,.1-1.093,40.092,40.092,0,0,0-.507-17.272c-.891-3.529-2.737-6.459-2.116-10.271.661-4.055,2.964-7.582,3.735-11.653,1.071-5.529,1.043-13.1,5.028-17.214a9.663,9.663,0,0,1,5.54-2.778,16.608,16.608,0,0,1,2.982-.234C2966.978,1202.888,2966.212,1204.474,2965.786,1205.793Z" transform="translate(-2914.436 -1161.229)" fill="#f59395"/>
          <path id="Path_132" data-name="Path 132" d="M2986.658,1210.715c-1.384,1.708-2.038,4.2-1.006,6.139a8.923,8.923,0,0,0-3.375-1,3.919,3.919,0,0,1,.906,2.641c.7,8.77.153,17.6.838,26.375a283.423,283.423,0,0,1,6.337-29.732c.74-2.743,1.681-5.461,2.336-8.221C2991.247,1206.138,2987.508,1209.666,2986.658,1210.715Z" transform="translate(-2940.237 -1165.438)" fill="#fac6c7"/>
          <path id="Path_133" data-name="Path 133" d="M3090.287,1227.853a9.343,9.343,0,0,0-2.209,3.4c-.725,1.61-1.429,3.244-2.113,4.879-1.344,3.27-2.623,6.566-3.795,9.911-1.225,3.516-2.673,7.162-3.571,10.75a48.54,48.54,0,0,0-.706,6.026l-.367,3.126c-.046.4-.026,2.474-.314,2.68-2.8,1.816-5.666,3.659-8.9,4.512s-6.943.561-9.514-1.57a1.582,1.582,0,0,1-.522-.643,1.742,1.742,0,0,1-.051-.7c.226-3.684.91-7.358,1.28-11.055.4-3.982.759-7.968,1.26-11.939,1.052-8.433,2.768-16.918,6.589-24.5,1.479-2.933,3.26-5.717,4.611-8.724a40.739,40.739,0,0,0,1.994-7.546c.057-.261.071-.5.127-.719a111.8,111.8,0,0,1,13.685,14.074,16.236,16.236,0,0,1,2.63,3.816C3090.972,1224.964,3091.379,1226.791,3090.287,1227.853Z" transform="translate(-2999.919 -1164.604)" fill="#f59395"/>
          <path id="Path_134" data-name="Path 134" d="M3084.2,1205.361a10.3,10.3,0,0,1,.971,5.218c-.071,1.8-1.189,2.99-2.448,4.2l-3.475,3.355,3.338.934a112.006,112.006,0,0,0-9.686,13.832,42.916,42.916,0,0,0-5.571,15.843,66.445,66.445,0,0,1,3.225-21.1c1.356-4.186,3.124-8.22,4.865-12.256.871-2.019,1.738-4.041,2.547-6.086a38.346,38.346,0,0,0,1.539-4.251,8.156,8.156,0,0,0,.221-3.966,9.442,9.442,0,0,1,4.333,4.009C3084.107,1205.183,3084.154,1205.271,3084.2,1205.361Z" transform="translate(-3007.075 -1160.941)" fill="#fac6c7"/>
          <g id="Group_150" data-name="Group 150" transform="translate(47.234 48.934)">
            <path id="Path_135" data-name="Path 135" d="M3016.673,1242.741c-4.481,16.077-7.044,33.271-7.977,53.655-.738-.194-1.451-.431-2.162-.69.95-20.317,3.534-37.465,8.016-53.564Z" transform="translate(-3006.534 -1242.142)" fill="#cbd474"/>
          </g>
          <path id="Path_136" data-name="Path 136" d="M3107.023,1178.606a2.374,2.374,0,0,0-.343-.092,1.356,1.356,0,0,0-.508-.013,1.219,1.219,0,0,0-.89.641,3.5,3.5,0,0,0-.149,1.046,6.736,6.736,0,0,1-.512,1.736,8.287,8.287,0,0,0-.673,1.8,4.34,4.34,0,0,0,.083,1.63,2.78,2.78,0,0,0,.961,1.777,2.021,2.021,0,0,0,2.039.051,3.615,3.615,0,0,0,1.448-1.536,3.9,3.9,0,0,0,.515-1.68,5.766,5.766,0,0,0-.155-1.33c-.23-1.169.063-2.442-.829-3.394A2.5,2.5,0,0,0,3107.023,1178.606Z" transform="translate(-3035.822 -1143.178)" fill="#4b5b29"/>
          <path id="Path_137" data-name="Path 137" d="M3034.946,1176.149a11.632,11.632,0,0,0-.409,1.239c-.107.574.007,1.515.63,1.777a1.733,1.733,0,0,0,.906.039,4.388,4.388,0,0,1,1.58-.021,1.481,1.481,0,0,1,1.141.99,3.72,3.72,0,0,0,.113.532c.326.786,3.516-.341,4.146-.57a20.734,20.734,0,0,0,4.129-2.115,28.473,28.473,0,0,0,5.745-4.86,1.812,1.812,0,0,0,.585-1.123,2.038,2.038,0,0,0-.317-.914c-1.96-3.8-1.349-8.411-2.648-12.482a16.624,16.624,0,0,1-5.9,6.393,23.159,23.159,0,0,1-8.161,3.152,2.643,2.643,0,0,0-1.791.838,2.487,2.487,0,0,0-.325,1.124C3034.113,1172.206,3035.578,1174.066,3034.946,1176.149Z" transform="translate(-2981.153 -1127.584)" fill="#fbbf9a"/>
          <path id="Path_138" data-name="Path 138" d="M3017.253,1221.173a20.649,20.649,0,0,0-.543,4.714,4.293,4.293,0,0,0,.1,1.308c1.832-1.6,4.374-2.052,6.546-3.145a7.936,7.936,0,0,1-1.867-4.074,35.024,35.024,0,0,1-.146-4.51,8.236,8.236,0,0,0-2.264,2.142A9.316,9.316,0,0,0,3017.253,1221.173Z" transform="translate(-2967.293 -1172.244)" fill="#cbd474"/>
          <path id="Path_139" data-name="Path 139" d="M3049.2,1203.1a46.669,46.669,0,0,0,9.622-5.516,20.733,20.733,0,0,0,4.341-4.625,15.86,15.86,0,0,0,1.494-2.778,3.671,3.671,0,0,0,.469-2.728,8.916,8.916,0,0,0-.719-1.391,15,15,0,0,1-.894-2.988,4.133,4.133,0,0,0-1.644-2.569,1.632,1.632,0,0,1,.752,1.6,4.34,4.34,0,0,1-.664,1.737c-2.821,4.93-6.75,9.163-12.122,11.292a18.437,18.437,0,0,1-3.577,1.012c-.747.133-.609.116-.234.559a9.059,9.059,0,0,1,.935,1.833C3047.151,1198.919,3049.188,1203.107,3049.2,1203.1Z" transform="translate(-2990.1 -1144.768)" fill="#cbd474"/>
          <path id="Path_140" data-name="Path 140" d="M3002.125,1079.723a16.07,16.07,0,0,0-2.579.747,1.884,1.884,0,0,1-1.224.034c-.466-.251-.676-1.076-.756-1.565-2.353,3.458-2.362,7.357-2.446,11.365a40.267,40.267,0,0,0,2.681,15.935c.721,1.824,1.627,5.049,3.848,5.256a16.527,16.527,0,0,0,6.022-.781,22.877,22.877,0,0,0,6.312-2.715,12.261,12.261,0,0,0,4.542-5.068,2.529,2.529,0,0,1,.378-.668,3.249,3.249,0,0,1,1.3-.66c3.376-1.364,5.115-5.871,5.5-9.218a4.121,4.121,0,0,0-.244-2.308,2.486,2.486,0,0,1-1.247,1.312c-.583.172-1.056-.3-1.636-.531a23.288,23.288,0,0,1-3.777-1.363c-1.8-1.094-2.605-3.244-3.87-4.931a11.964,11.964,0,0,0-5.757-4.028A18.316,18.316,0,0,0,3002.125,1079.723Z" transform="translate(-2950.32 -1064.947)" fill="#fedecc"/>
          <path id="Path_141" data-name="Path 141" d="M3080.914,1024a9.874,9.874,0,1,1-9.323-10.4A9.875,9.875,0,0,1,3080.914,1024Z" transform="translate(-3002.247 -1013.587)" fill="#59282f"/>
          <path id="Path_142" data-name="Path 142" d="M2999.137,1052.13c.6.366.828,1.115,1.3,1.634a3.434,3.434,0,0,0,3.352.692c1.164-.281,2.247-.854,3.425-1.075a4.919,4.919,0,0,1,3.251.454,3.7,3.7,0,0,1,1.9,2.615c.116.782-.056,1.59.1,2.365a4.915,4.915,0,0,0,1.975,2.721A12.926,12.926,0,0,1,3017,1063.8a5.316,5.316,0,0,1,1.044,2.32q.23,1.591.458,3.183a.188.188,0,0,0,.044.114c.081.076.2-.034.253-.133a15.783,15.783,0,0,0,1.052-3.462,5.343,5.343,0,0,1,2.263-3.51,2.873,2.873,0,0,1,2.437-.1c1.36.569,1.241,2.635,1.1,3.829a17.252,17.252,0,0,0,1.292-3.409,39.088,39.088,0,0,0,1.016-4.731,19.066,19.066,0,0,0-.2-7.166,13.206,13.206,0,0,0-8.64-9.765,17.545,17.545,0,0,0-7.431-.764,18.954,18.954,0,0,0-5.119,1.206,16.93,16.93,0,0,0-10.146,12.038C2997.119,1052.6,2997.911,1051.381,2999.137,1052.13Z" transform="translate(-2951.352 -1034.425)" fill="#7e454e"/>
        </g>
        <g id="Group_152" data-name="Group 152" transform="translate(23.342 40.609)">
          <path id="Path_143" data-name="Path 143" d="M2909.957,1380.414a21.193,21.193,0,0,1-3.021.958,20.1,20.1,0,0,1-8.462.683.442.442,0,0,1-.239-.057.907.907,0,0,1-.141-.25,17.91,17.91,0,0,0-1.713-3.283c-.611-.891-1.792-1.813-1.332-3.02a4.948,4.948,0,0,1,.767-1.146,159.335,159.335,0,0,0,10.82-14.941c.083,2.93,1.486,5.426,2.23,8.348A40.32,40.32,0,0,1,2909.957,1380.414Z" transform="translate(-2894.946 -1325.938)" fill="#f8b2b3"/>
          <path id="Path_144" data-name="Path 144" d="M2963.665,1203.661a9.333,9.333,0,0,0-3.485,2.208c-3.988,4.138-3.958,11.707-5.029,17.236-.674,3.482-2.47,6.6-3.36,10,.236-.9,1.307-11.615,1.647-14.092a34.483,34.483,0,0,1,1.55-7.3,14.747,14.747,0,0,1,8.545-8.461A2.951,2.951,0,0,0,2963.665,1203.661Z" transform="translate(-2939.621 -1203.258)" fill="#f8b2b3"/>
        </g>
      </g>
      <g id="Group_158" data-name="Group 158" transform="translate(61.166 84.79)">
        <g id="Group_154" data-name="Group 154" transform="translate(64.917 127.453)">
          <path id="Path_145" data-name="Path 145" d="M2629.358,2020.929h-1.076a7.662,7.662,0,0,0-2.046-1.656,16.519,16.519,0,0,0-14.947-.027,7.477,7.477,0,0,0-2.057,1.684h-1.011v3.786h0c-.036,1.595,1,3.2,3.115,4.42a16.518,16.518,0,0,0,14.947.027c2.118-1.223,3.137-2.839,3.066-4.447h.008v-3.786Z" transform="translate(-2608.216 -2014.782)" fill="#7c6a6e"/>
          <path id="Path_146" data-name="Path 146" d="M2626.267,2015.337a16.519,16.519,0,0,1-14.947-.027c-4.14-2.391-4.161-6.254-.046-8.629a16.517,16.517,0,0,1,14.947.027C2630.363,2009.1,2630.382,2012.962,2626.267,2015.337Z" transform="translate(-2608.202 -2004.907)" fill="#ece0c7"/>
        </g>
        <g id="Group_155" data-name="Group 155" transform="translate(69.54 83.67)">
          <path id="Path_147" data-name="Path 147" d="M2641.7,1809.426h-.6a4.3,4.3,0,0,0-1.152-.933,9.294,9.294,0,0,0-8.411-.014,4.176,4.176,0,0,0-1.157.948h-.569V1854.8h0a2.947,2.947,0,0,0,1.753,2.487,9.294,9.294,0,0,0,8.411.015,2.88,2.88,0,0,0,1.725-2.5h.005Z" transform="translate(-2629.801 -1805.966)" fill="#7c6a6e"/>
          <path id="Path_148" data-name="Path 148" d="M2639.962,1806.277a9.294,9.294,0,0,1-8.411-.015c-2.331-1.345-2.342-3.519-.027-4.857a9.3,9.3,0,0,1,8.411.016C2642.266,1802.765,2642.279,1804.938,2639.962,1806.277Z" transform="translate(-2629.795 -1800.407)" fill="#ece0c7"/>
        </g>
        <g id="Group_157" data-name="Group 157">
          <path id="Path_149" data-name="Path 149" d="M2461.073,1549v12.514H2461c.513,11.485-6.772,23.031-21.9,31.77-29.39,16.965-77.2,16.88-106.77-.2-14.854-8.568-22.273-19.8-22.273-31,0-.2.011-.379.011-.575V1549h7.226a53.313,53.313,0,0,1,14.695-12.034c29.39-16.965,77.2-16.88,106.77.194a54.723,54.723,0,0,1,14.621,11.84Z" transform="translate(-2308.977 -1499.741)" fill="#5e373f"/>
          <path id="Path_150" data-name="Path 150" d="M2461.113,1556.118v11.241c-2.526,8.716-9.593,17.063-21.212,23.764-29.805,17.209-78.3,17.124-108.284-.2-11.753-6.774-18.929-15.195-21.505-23.97v-10.839h7.226a53.359,53.359,0,0,1,14.695-12.034c29.39-16.965,77.2-16.879,106.77.2a54.751,54.751,0,0,1,14.621,11.838Z" transform="translate(-2309.017 -1505.338)" fill="#7c6a6e"/>
          <path id="Path_151" data-name="Path 151" d="M2439.059,1509.027c-29.393,16.969-77.2,16.883-106.774-.193s-29.727-44.676-.335-61.646,77.2-16.883,106.774.193S2468.451,1492.055,2439.059,1509.027Z" transform="translate(-2308.932 -1429.185)" fill="#ece0c7"/>
          <g id="Group_156" data-name="Group 156">
            <path id="Path_152" data-name="Path 152" d="M2458.238,1525.717h-7.792a55.47,55.47,0,0,0-14.823-12c-30-17.319-78.479-17.407-108.287-.2a54.069,54.069,0,0,0-14.905,12.2H2305.1v4.191h0c-.262,11.552,7.253,23.178,22.57,32.022,30,17.318,78.479,17.406,108.289.2,15.343-8.859,22.727-20.573,22.211-32.218h.064Z" transform="translate(-2305.075 -1481.174)" fill="#7c6a6e"/>
            <path id="Path_153" data-name="Path 153" d="M2435.883,1485.18c-29.811,17.21-78.292,17.123-108.289-.2s-30.148-45.309-.339-62.52,78.292-17.123,108.287.2S2465.692,1467.968,2435.883,1485.18Z" transform="translate(-2304.997 -1409.613)" fill="#fbf9ed"/>
            <path id="Path_154" data-name="Path 154" d="M2914.192,1649.925a44.3,44.3,0,0,1-9.882,10.308,31.238,31.238,0,0,1-2.93-2.484,27.409,27.409,0,0,1-7.248-11.663,21.657,21.657,0,0,0-1.651-4.357c-.5-.908-1.056-2.076-.036-2.837,1.112-.852,2.836-.166,4.023.148a15.737,15.737,0,0,1,4.153,1.614,41.139,41.139,0,0,1,3.671,2.837C2907.388,1645.9,2911.191,1647.461,2914.192,1649.925Z" transform="translate(-2766.221 -1589.48)" fill="#d5b0ad"/>
            <path id="Path_155" data-name="Path 155" d="M2804.993,1724.991a93.885,93.885,0,0,1-13.312,4.949,22.263,22.263,0,0,0-1.928-4.653c-1.28-2.261-3.079-4.171-4.562-6.3a16.874,16.874,0,0,1-1.724-3.041c-.389-.945-1.075-2.447-.722-3.466a.672.672,0,0,1,.983-.39c.371.241.277.538.371.908a2.987,2.987,0,0,0,1.854,2.058,7.62,7.62,0,0,0,2.893.463,44.159,44.159,0,0,0,6.471-.352,10.062,10.062,0,0,0,1.947-.37,5.8,5.8,0,0,0,3.745-4.154,8.57,8.57,0,0,1,2.669,5.063c.37,1.91.37,3.875.574,5.8A14.858,14.858,0,0,0,2804.993,1724.991Z" transform="translate(-2680.381 -1646.19)" fill="#d5b0ad"/>
            <path id="Path_156" data-name="Path 156" d="M2383.96,1495.535l26.11-15.075-36.771-21.23-26.108,15.075Z" transform="translate(-2338.156 -1448.607)" fill="#fff"/>
            <path id="Path_157" data-name="Path 157" d="M2495.28,1433.073a8.123,8.123,0,0,1-2.6,5.414,8.254,8.254,0,0,1-3.818,1.669,5.941,5.941,0,0,1-3.765-.3c-.593-.278-1.093-.723-1.668-1.057-.76-.426-1.706-.13-2.337-.63-.834-.649-.927-2.262-1.038-3.225a12.865,12.865,0,0,1-.093-3.041,4.433,4.433,0,0,1,1.206-2.707c.686-.649,1.483-.594,1.613-1.613a5.771,5.771,0,0,0-.852-3.152c-.111-.223-.241-.445-.372-.686a100.976,100.976,0,0,1,12.5-3.208c.057.39.112.76.15,1.131.2,1.761.444,3.523.7,5.284A24.237,24.237,0,0,1,2495.28,1433.073Z" transform="translate(-2442.458 -1418.2)" fill="#d5b0ad"/>
            <path id="Path_158" data-name="Path 158" d="M2344.152,1546.6c-1.928,1.633-4.821,2.169-7.25,2.429a31.088,31.088,0,0,1-15.185-2.3c-2.54-1.056-4.913-2.484-7.453-3.485a32.077,32.077,0,0,1,3.745-6.75,17.822,17.822,0,0,1,2.188.742c2.317.927,4.524,2.169,6.9,2.948a27.815,27.815,0,0,0,6.971,1.261,34.036,34.036,0,0,1,6.137.741C2341.722,1542.576,2346.505,1544.578,2344.152,1546.6Z" transform="translate(-2312.281 -1509.329)" fill="#d5b0ad"/>
          </g>
        </g>
      </g>
      <g id="Group_159" data-name="Group 159" transform="translate(24.718 39.94)">
        <path id="Path_159" data-name="Path 159" d="M2439.153,1243.576c-.056,2.577-.26,5.135-.538,7.694-.13,1.3-.3,2.6-.464,3.894-.074.63,0,2.373-1.038,2.3a1.914,1.914,0,0,1-1.094-.612,6.852,6.852,0,0,0-2.948-1.742,3.219,3.219,0,0,0-1.872.111c-.482.186-.89.575-1.3.037a6.286,6.286,0,0,1-.462-1.594c-.26-.853-.576-1.668-.817-2.521-.89-3.263-1.89-6.489-2.8-9.734a11.589,11.589,0,0,0-1.855-3.931,49.3,49.3,0,0,0-4.8-4.431l-5.228-4.839c.557-5.581,1.131-11.143,1.688-16.724.259-2.577.834-6.174-.631-8.51a5.619,5.619,0,0,0-2.076-1.705c-.7-.408-1.409-.779-2.133-1.131a11.911,11.911,0,0,1,4.8,2.78c1.835,1.743,2.892,4.1,4.338,6.137,3.6,5.136,7.341,10.179,11.031,15.259,1.779,2.429,3.56,4.913,5.3,7.342a14.344,14.344,0,0,1,2.744,7.213c.02.093.02.185.038.3C2439.136,1240.628,2439.172,1242.092,2439.153,1243.576Z" transform="translate(-2351.688 -1200.136)" fill="#fff"/>
        <path id="Path_160" data-name="Path 160" d="M2485.382,1448.545a4.105,4.105,0,0,1-2.258,2.572c-.673.29-1.413.383-2.108.62a20.96,20.96,0,0,1-2.136.818,1.978,1.978,0,0,1-2.071-.6.831.831,0,0,0-.237-.278.636.636,0,0,0-.36-.046l-1.148.079a.947.947,0,0,1-.608-.095.752.752,0,0,1-.258-.635,3.507,3.507,0,0,1,.662-1.727q.9-1.479,1.793-2.959a5.233,5.233,0,0,0,.731-1.579,1.778,1.778,0,0,0-.388-1.631,1.071,1.071,0,0,0-.718-.322,1.353,1.353,0,0,0-1.134.864,6.984,6.984,0,0,0-.291,3.03,10.093,10.093,0,0,1-.708,3.712c-.093.234-.249.5-.5.5a.528.528,0,0,1-.366-.2,4.09,4.09,0,0,1-.6-1.927,9.785,9.785,0,0,0-1.087-2.339,3.453,3.453,0,0,1-.511-1.567,3.239,3.239,0,0,1,.184-1,4.5,4.5,0,0,1,2.056-2.795c.979-.489,2.164-.4,3.087-1.021.518-.347.694-.976,1.067-1.445,2.113-2.644,7.253-1.645,7.97,1.777a11.041,11.041,0,0,1-.023,2.476,26.919,26.919,0,0,0,.264,2.921A6.979,6.979,0,0,1,2485.382,1448.545Z" transform="translate(-2399.07 -1386.346)" fill="#fbbf9a"/>
        <path id="Path_161" data-name="Path 161" d="M2479.943,1438l7.725-19.081,1.816,1.081-9.774,18.849Z" transform="translate(-2405.855 -1372.078)" fill="#424c63"/>
        <path id="Path_162" data-name="Path 162" d="M2313.927,1516.427a13.408,13.408,0,0,1,3.206.21,10.954,10.954,0,0,1,2.78,1.277l7.161,4.132c.522.3,1.106.7,1.136,1.3.01.225-.063.448-.059.673.009.454.326.841.43,1.283a1.4,1.4,0,0,1-1.87,1.635,2.426,2.426,0,0,1-2.149,1.14,5.4,5.4,0,0,1-2.427-.719,3.4,3.4,0,0,1-2.207,1.2,8.8,8.8,0,0,1-2.563-.086,57.145,57.145,0,0,1-12.717-3.5c-2.169-.85-4.3-1.791-6.406-2.787-.9-.426-1.875-.791-2.744-1.266-.693-.381-1.756-.653-2.151-1.4a2.006,2.006,0,0,1,.312-1.991,16.815,16.815,0,0,0,1.251-1.7,5.778,5.778,0,0,0,.462-1.674,1.806,1.806,0,0,1,.517-1.175,1.714,1.714,0,0,1,1.091-.245,18.668,18.668,0,0,1,2.432.2,4.019,4.019,0,0,1,1.122.225c.27.129.531.368.791.526a14.061,14.061,0,0,0,2.837,1.137,31.1,31.1,0,0,0,6.159,1.387A30.741,30.741,0,0,0,2313.927,1516.427Z" transform="translate(-2259.273 -1445.805)" fill="#fedecc"/>
        <path id="Path_163" data-name="Path 163" d="M2176.737,1308.394c.169-.95-1.375-1.268-1.959-1.5-1.267-.507-20.357-8-23.677-11.368a21.943,21.943,0,0,0,.206-2.543c.209-4.875.976-9.711,1.305-14.58a38.127,38.127,0,0,0-1.322-14.488,24.867,24.867,0,0,0-4.081-7.6,11.709,11.709,0,0,0-4.87-3.889c-5.408-2.016-5.723,5.19-6.324,8.64a103.3,103.3,0,0,0-1,14.656c-.245,8.028-.713,16.378.907,24.289,1.392,6.8,8.7,9.992,14.465,12.564a70.4,70.4,0,0,0,12.373,4.415,38.272,38.272,0,0,0,4.552.795q1.148.127,2.3.173a6.258,6.258,0,0,0,2.143-.022c.6-.213.633-.764.514-1.306a8.873,8.873,0,0,1,.24-5.034,4.779,4.779,0,0,1,2.142-2.9,2.708,2.708,0,0,1,1.837-.1.209.209,0,0,0,.144.009.165.165,0,0,0,.079-.11C2176.722,1308.46,2176.731,1308.426,2176.737,1308.394Z" transform="translate(-2134.76 -1240.953)" fill="#fff"/>
      </g>
      <path id="Path_164" data-name="Path 164" d="M2721.3,1508.343l-26.11-15.073,36.772-21.23,26.11,15.075Z" transform="translate(-2550.482 -1373.885)" fill="#fff"/>
      <path id="Path_165" data-name="Path 165" d="M2863.756,1470.458a30.763,30.763,0,0,1-10.975,4.172,10.839,10.839,0,0,1-2.67.186.367.367,0,0,1-.279-.13c-.055-.074-.019-.167,0-.261.112-.425.224-.834.335-1.261-.928-.055-1.687.668-2.541,1.057a6.92,6.92,0,0,1-2.762.465c-.909.037-1.817.073-2.708.112a2.5,2.5,0,0,1-2.614-1.243,2.359,2.359,0,0,1,.834-2.54,6.99,6.99,0,0,1,2.281-.983c3.838-1.334,6.786-4.338,10.086-6.711.946.5,1.891,1,2.8,1.539A64.2,64.2,0,0,1,2863.756,1470.458Z" transform="translate(-2663.832 -1367.031)" fill="#d5b0ad"/>
      <path id="Path_166" data-name="Path 166" d="M2928.431,1534.721a40.538,40.538,0,0,1-8.344.166,16.793,16.793,0,0,1-8.917-3.392,9.858,9.858,0,0,0-2.447-1.744c-.89-.352-2.06-.37-2.6-1.316-.5-.872.352-1.632,1.168-1.891a6.233,6.233,0,0,1,2.039-.111,48.59,48.59,0,0,0,13.071-1.372A34.343,34.343,0,0,1,2928.431,1534.721Z" transform="translate(-2716.14 -1415.554)" fill="#d5b0ad"/>
      <g id="Group_160" data-name="Group 160" transform="translate(173.313 57.118)">
        <path id="Path_167" data-name="Path 167" d="M2846.546,1433.03a4.2,4.2,0,0,0-2.936.328,11.064,11.064,0,0,0-2.206,1.909,18.1,18.1,0,0,1-1.671,1.244,97.172,97.172,0,0,0-9.079,7.239c-.354.32-.667.729-1.038,1.023-.3.234-.629.349-.773.742a.83.83,0,0,0,.2.863c.224.216.7.219.881.433.095.116.07.412.121.571a1.594,1.594,0,0,0,.39.671c.048.045.648.431.685.317a1.767,1.767,0,0,0,.22,1.629c.6.747,1.438.351,2.1-.048a.379.379,0,0,1,.2-.073.443.443,0,0,1,.229.114,1.889,1.889,0,0,0,1.538.247,4.871,4.871,0,0,0,1.45-.676,23.983,23.983,0,0,0,3.761-2.9,11.819,11.819,0,0,1,2.351-1.948.2.2,0,0,1,.088-.03c.125,0,.123.194.066.307a8.868,8.868,0,0,1-1.484,1.651,5.162,5.162,0,0,0-1.448,2.767c-.033.306.017.681.3.81a.843.843,0,0,0,.543-.008,5.26,5.26,0,0,0,2.137-.86,13.729,13.729,0,0,0,1.451-1.752c.815-.917,2.011-1.464,2.7-2.477,1.3-1.9.345-4.659,1.481-6.66a6.018,6.018,0,0,0,.706-1.285,2.329,2.329,0,0,0-.034-1.193A4.2,4.2,0,0,0,2846.546,1433.03Z" transform="translate(-2828.796 -1400.242)" fill="#fbbf9a"/>
        <path id="Path_168" data-name="Path 168" d="M2919.159,1502.179a23.243,23.243,0,0,0-5.1,1.261c-2.514.779-5.134,1.371-7.379,2.746a2.649,2.649,0,0,0-.931.828,1.052,1.052,0,0,0,.01,1.18,1.808,1.808,0,0,0-1.144,1.178,1.04,1.04,0,0,0,.8,1.273c.2.017.4-.038.6-.016a1.9,1.9,0,0,1,.623.247,4.038,4.038,0,0,0,3.516.038,1.6,1.6,0,0,0,.875,1.391,4.329,4.329,0,0,0,1.66.439,39.607,39.607,0,0,0,17.948-2.237,6.6,6.6,0,0,1-1.422-2.978c-.147-.767-.157-1.554-.313-2.32a3.213,3.213,0,0,0-.83-1.74.746.746,0,0,0-.59-.166,8.58,8.58,0,0,1-1.1-.136c-1.537-.251-3.045-.654-4.588-.87A12.641,12.641,0,0,0,2919.159,1502.179Z" transform="translate(-2888.36 -1454.669)" fill="#fedecc"/>
        <path id="Path_169" data-name="Path 169" d="M3025.959,1319.313a4.4,4.4,0,0,1-.709,1.924,5.277,5.277,0,0,1-1.478,1.62,8.912,8.912,0,0,1-1.927.808c-.638.214-1.295.38-1.947.551-2.138.559-16.871,3.615-18.152,3.854-.383.071-.767.143-1.151.212-.137.024-1.06.091-.939.38.034.081.292.122.373.151a5.225,5.225,0,0,1,.819.39,4.228,4.228,0,0,1,1.308,1.174,4.679,4.679,0,0,1,.791,2.112,8.6,8.6,0,0,1-.042,2.271,5.007,5.007,0,0,1-.456,1.663,1.355,1.355,0,0,1-.893.807c-.064.011-.174-.021-.228.014-.279.185.714,1.009.863,1.1a3.009,3.009,0,0,0,1.415.354c.85.028,1.7.02,2.548-.015,1.674-.065,3.342-.227,5.009-.39q8.543-.838,17.08-1.739a29.721,29.721,0,0,0,4.643-.742,7.514,7.514,0,0,0,4.636-4.633,90.878,90.878,0,0,0,5.087-16.916c.876-4.51,2.246-8.9,3.294-13.369.954-4.073,1.654-8.679.763-12.814-.5-2.344-1.5-6.119-3.836-7.249a5.447,5.447,0,0,0-2.445-.459,8.741,8.741,0,0,0-4.959,1.574c-2.708,1.877-4.42,5.172-5.305,8.443a60.026,60.026,0,0,0-1.439,10.127c-.078.838-1.14,9.784-1.741,13.4Q3026.491,1316.616,3025.959,1319.313Z" transform="translate(-2963.066 -1280.367)" fill="#f8b2b3"/>
      </g>
      <g id="Group_169" data-name="Group 169" transform="translate(163.458 82.033)">
        <path id="Path_170" data-name="Path 170" d="M2824.285,2185.376c-.466-.148-.528-1.03-.391-1.385a.889.889,0,0,0-.665.344,2.06,2.06,0,0,0-.344.687,7.286,7.286,0,0,0,1.425,6.63,20.1,20.1,0,0,0,5.386,5.388c2.1,1.279,4.609,1.669,7.024,2.147a25.963,25.963,0,0,1,8.409,2.863c2.892,1.733,5.707,4.413,9.382,3.632a4.99,4.99,0,0,0,4.192-3.821,11.3,11.3,0,0,0-.347-6.337.447.447,0,0,0-.141.219c-.227.549-.349-.112-.416-.308a8.753,8.753,0,0,0-.591-1.222,16.178,16.178,0,0,0-1.347-2.136q-.379-.506-.8-.982c-.18-.2-.817-.665-.872-.914.214.961-.935,1.981-1.685,2.42a4.122,4.122,0,0,1-2.2.571c-.952-.029-1.365-.69-1.99-1.352-1.242-1.314-2.4-2.906-3.724-4.112-1.349-1.226-3.745-1.92-5.473-2.372a29.25,29.25,0,0,0-9.672-.821,27.431,27.431,0,0,0-3.438.345,7.279,7.279,0,0,0-.906.243c-.194.067-.5.3-.7.293A.437.437,0,0,1,2824.285,2185.376Z" transform="translate(-2814.054 -2015.438)" fill="#556282"/>
        <path id="Path_171" data-name="Path 171" d="M2825.9,2176.063a2.36,2.36,0,0,0-1.224,2.147,7.383,7.383,0,0,0,1.284,4.01,20.107,20.107,0,0,0,5.386,5.39c2.1,1.278,4.61,1.669,7.025,2.145a25.988,25.988,0,0,1,8.409,2.864c2.892,1.732,5.706,4.413,9.382,3.633a4.992,4.992,0,0,0,4.191-3.822,9.22,9.22,0,0,0-.225-4.42,15.941,15.941,0,0,0-4.286-7.259c.214.961-.935,1.981-1.685,2.421a4.137,4.137,0,0,1-2.2.572c-.953-.031-1.366-.691-1.99-1.353-1.242-1.314-2.4-2.906-3.724-4.113-1.349-1.227-3.745-1.92-5.473-2.372a29.25,29.25,0,0,0-9.673-.82C2829.663,2175.2,2827.321,2175.2,2825.9,2176.063Z" transform="translate(-2815.701 -2008.365)" fill="#424c63"/>
        <path id="Path_172" data-name="Path 172" d="M2874.892,2016.742a2.3,2.3,0,0,1,.883-1.372c.928-.514,1.961.395,2.751,1.1a9.785,9.785,0,0,0,10.232,1.635c1.8,4.694.693,9.943-.43,14.842q-1.554,6.766-3.106,13.533a36,36,0,0,0-1.109,6.768,20.694,20.694,0,0,0,1.1,6.539,2.62,2.62,0,0,1-.607,2.9,3.235,3.235,0,0,1-2.333.646,11.678,11.678,0,0,1-3.618-.976c-6.1-2.4-12.189-4.793-18.265-7.238a5.558,5.558,0,0,1-1.482-.776,2.088,2.088,0,0,1-.709-1.041c-.148-.522.1-.75.53-1.036a4.558,4.558,0,0,1,1.741-.6,32.739,32.739,0,0,1,5.7-.311,15.527,15.527,0,0,0,2.866-.085c.732-.143.818-.745,1.208-1.317a7.635,7.635,0,0,0,.994-2.076,18.931,18.931,0,0,0,.571-4.918C2872.087,2034.346,2872.065,2025.056,2874.892,2016.742Z" transform="translate(-2842.018 -1882.802)" fill="#fbbf9a"/>
        <path id="Path_173" data-name="Path 173" d="M2793.778,2211.79c1.972.137,3.864.548,5.829.851,3.315.514,6.631,1.042,9.9,1.79a1.887,1.887,0,0,1,.631.226,1.924,1.924,0,0,1,.625.955c.542,1.346,1.734,5.707,3.89,4.555a1.6,1.6,0,0,0,.793-1.658,8.87,8.87,0,0,1,2.662,3.86,13.9,13.9,0,0,1,.737,6.906c-.754,4.036-5.2,5.277-8.789,4.466a13.086,13.086,0,0,1-6.346-3.752,8.094,8.094,0,0,0-2.654-2.028c-4.08-1.51-8.448-2.22-12.107-4.727a11.654,11.654,0,0,1-4.78-10.56c.062-.665.23-1.614.891-1.948.231.4.174,1.209.652,1.38s1.47-.466,1.988-.531A31.977,31.977,0,0,1,2793.778,2211.79Z" transform="translate(-2783.832 -2036.449)" fill="#424c63"/>
        <path id="Path_174" data-name="Path 174" d="M2794.465,2201.938c1.972.137,3.863.548,5.829.852,3.315.512,6.631,1.04,9.9,1.789a1.858,1.858,0,0,1,.631.228,1.93,1.93,0,0,1,.625.953c.541,1.346,1.734,5.708,3.889,4.556a1.6,1.6,0,0,0,.793-1.659,8.873,8.873,0,0,1,2.662,3.861,13.9,13.9,0,0,1,.737,6.906c-.755,4.036-5.2,5.276-8.789,4.464a13.083,13.083,0,0,1-6.346-3.753,8.1,8.1,0,0,0-2.655-2.027c-4.081-1.51-8.448-2.22-12.107-4.727A10.826,10.826,0,0,1,2785,2205.6a3.729,3.729,0,0,1,1.335-3.179,4.367,4.367,0,0,1,2.054-.695A32.427,32.427,0,0,1,2794.465,2201.938Z" transform="translate(-2784.519 -2029.305)" fill="#556282"/>
        <path id="Path_175" data-name="Path 175" d="M2828.694,1988.114c-.125-.064-.248-.127-.371-.192a45.212,45.212,0,0,1-4.556-2.608,10.511,10.511,0,0,1-3.212-3.091,1.087,1.087,0,0,1-.214-.8c.119-.473.729-.6,1.218-.594,2.718.012,5.395,1.006,8.1.757,1.413-.13,1.462-1.413,1.543-2.562.386-5.469-1.893-10.717-3.369-16-2.43-8.693-2.714-17.819-2.985-26.84a55.4,55.4,0,0,1,.237-9.24,11.182,11.182,0,0,1,1.781-5.13,5.175,5.175,0,0,1,4.7-2.267,29.8,29.8,0,0,0,8.89,21.172c.8.78,1.93,2.314,2.975,2.719.4.157,2.875-.035,2.682-.777a60.442,60.442,0,0,1,1.587,17.391c-.183,5.55-2.484,10.856-3.355,16.32a21.014,21.014,0,0,0,.237,8.884c.552,2.012,3.343,6.3-.1,7.169a10.335,10.335,0,0,1-4.162.032A39.522,39.522,0,0,1,2828.694,1988.114Z" transform="translate(-2812.283 -1807.585)" fill="#fedecc"/>
        <g id="Group_162" data-name="Group 162" transform="translate(25.795 133.848)">
          <g id="Group_161" data-name="Group 161">
            <path id="Path_176" data-name="Path 176" d="M2904.413,2094.941h0a1.835,1.835,0,0,0,2.376-1.043l27.077-69.43-6.584-2.571-23.939,70.747A1.833,1.833,0,0,0,2904.413,2094.941Z" transform="translate(-2903.246 -2021.898)" fill="#ae8e8b"/>
          </g>
        </g>
        <g id="Group_163" data-name="Group 163" transform="translate(111.992 143.693)">
          <path id="Path_177" data-name="Path 177" d="M3335.3,2138.355h0a1.835,1.835,0,0,1-2.376-1.042l-27.078-69.432,9.331,5.544,21.194,62.633A1.836,1.836,0,0,1,3335.3,2138.355Z" transform="translate(-3305.844 -2067.882)" fill="#ae8e8b"/>
        </g>
        <g id="Group_165" data-name="Group 165" transform="translate(75.719 167.519)">
          <g id="Group_164" data-name="Group 164">
            <path id="Path_178" data-name="Path 178" d="M3151.577,2255.11h0a1.833,1.833,0,0,0,1.58-2.058l-9.722-73.887-7.008.92,13.106,73.528A1.834,1.834,0,0,0,3151.577,2255.11Z" transform="translate(-3136.426 -2179.165)" fill="#ae8e8b"/>
          </g>
        </g>
        <g id="Group_168" data-name="Group 168">
          <path id="Path_179" data-name="Path 179" d="M2960.655,1969.114h0c-15.365,8.871-13.438,24.367,4.3,34.61l23.171,13.377,55.642-32.126L3020.6,1971.6C3002.859,1961.355,2976.021,1960.242,2960.655,1969.114Z" transform="translate(-2914.417 -1841.86)" fill="#decdc6"/>
          <g id="Group_167" data-name="Group 167">
            <path id="Path_180" data-name="Path 180" d="M3064.45,1449.881a5.221,5.221,0,0,0-.324,1.672c.013.667.267,1.307.325,1.971a17.146,17.146,0,0,1-.679,4.41,21.094,21.094,0,0,0-.392,4.914,9.885,9.885,0,0,0,3.229,7.164c.568.465,1.206.842,1.753,1.332a7.461,7.461,0,0,1,2,3.212,9.906,9.906,0,0,1,.366,5.968,5.726,5.726,0,0,0,.076,4.313,4.863,4.863,0,0,0,2.944,2.25,11.941,11.941,0,0,0,3.771.367,46.359,46.359,0,0,0,9.671-1.248,11.9,11.9,0,0,0,3.433-1.256,6.825,6.825,0,0,0,2.383-2.442,2.367,2.367,0,0,0,.385-1.244,3.488,3.488,0,0,0-.35-1.128c-1.369-3.319-.417-7.07.048-10.631a1.318,1.318,0,0,0-.157-1.032,1.419,1.419,0,0,0-.5-.327,9.8,9.8,0,0,1-2.484-1.719c-.684-.643-.587-1.273-.742-2.191q-.538-3.187-1.241-6.347a1.56,1.56,0,0,0-.337-.784,1.668,1.668,0,0,0-.751-.354,17.854,17.854,0,0,1-7.74-5.153c-2.153-2.282-3.94-4.877-5.9-7.328a4.92,4.92,0,0,0-2.324-1.885C3066.723,1441.217,3065.332,1447.115,3064.45,1449.881Z" transform="translate(-3003.282 -1432.493)" fill="#fedecc"/>
            <path id="Path_181" data-name="Path 181" d="M3110.09,1410.132a16.986,16.986,0,0,0-7.621-8.172,22.162,22.162,0,0,0-19.8-.331,13.464,13.464,0,0,0-7.234,14.059,48.923,48.923,0,0,1,.6,7.715c.013.875.1,1.775.089,2.645a18.936,18.936,0,0,0-.1,3.064,13.646,13.646,0,0,1,1.044-2.655,4.566,4.566,0,0,1,2.008-1.968c1.938-.877,3.224.686,4.346,2.073a42.674,42.674,0,0,1,2.989,4.952l-1.756-3.365a66.27,66.27,0,0,0,3.425,6.112,11.542,11.542,0,0,0,5.989,4.532c6.488,2.015,11.98-2.711,14.64-8.245a28.144,28.144,0,0,0,2.488-9.883C3111.5,1417.026,3111.564,1413.56,3110.09,1410.132Z" transform="translate(-3012.631 -1398.874)" fill="#413d46"/>
            <ellipse id="Ellipse_11" data-name="Ellipse 11" cx="12.935" cy="12.935" rx="12.935" ry="12.935" transform="translate(79.657)" fill="#696371"/>
            <g id="Group_166" data-name="Group 166" transform="translate(23.653 45.453)">
              <path id="Path_182" data-name="Path 182" d="M2913.929,1620.893a25.4,25.4,0,0,0-.4-2.862c-.379-1.336-1.307-2.454-1.768-3.765a33.6,33.6,0,0,1-.726-3.943c-.124-.559-.41-1.2-.978-1.28-.644-.088-1.1.613-1.282,1.237a8.15,8.15,0,0,0,.241,4.655c.115.363.224.821-.06,1.076a.84.84,0,0,1-.651.143,5.108,5.108,0,0,1-1.906-.693c-1.25-.685-2.419-1.507-3.679-2.171a8.644,8.644,0,0,0-4.067-1.154,1.589,1.589,0,0,0-.688.126c-.214.1-.378.29-.58.414a3.235,3.235,0,0,1-2.047.1c-.695-.071-1.574.139-1.722.821a5.89,5.89,0,0,0-.034.618,6.806,6.806,0,0,1-.282.931,1.807,1.807,0,0,0,.563,1.781,1.217,1.217,0,0,1,.4.418,1.069,1.069,0,0,1,.031.458,4.031,4.031,0,0,0,.917,2.591,12.915,12.915,0,0,0,2.011,1.949c2.914,2.463,5.8,5.134,9.394,6.42,2.706.97,5.754,1.129,8.125,2.753a4.927,4.927,0,0,1-.168-2.882,6.855,6.855,0,0,1,1.081-1.771,3.569,3.569,0,0,0,.812-1.887c.034-.964-.6-1.223-1.262-1.68A3.567,3.567,0,0,1,2913.929,1620.893Z" transform="translate(-2893.243 -1609.035)" fill="#fbbf9a"/>
              <path id="Path_183" data-name="Path 183" d="M2981.4,1673.675a4.192,4.192,0,0,0-1.883-.7,2.8,2.8,0,0,0-1.385.4,7.7,7.7,0,0,0-3.956,5.645c-.068.486-.088.978-.109,1.468a1.21,1.21,0,0,0,.069.578,1.167,1.167,0,0,0,.343.379,23.793,23.793,0,0,0,3.149,2.116,47.345,47.345,0,0,0,11.643,4.8,1.547,1.547,0,0,0,.939.043,6.072,6.072,0,0,1-.514-4.212,9.846,9.846,0,0,1,1.284-2.261c.3-.466.543-.984.8-1.476a4.6,4.6,0,0,0,.851-1.763.5.5,0,0,0-.047-.281.529.529,0,0,0-.244-.177c-2.146-1-4.4-1.736-6.609-2.575-1.1-.418-2.195-.861-3.255-1.373C2982.118,1674.111,2981.76,1673.889,2981.4,1673.675Z" transform="translate(-2956.756 -1659.284)" fill="#fff"/>
            </g>
            <path id="Path_184" data-name="Path 184" d="M2936.907,1890.847a27.867,27.867,0,0,1-10,20.735c-7.479,6.321-16.325,7.366-25.828,6.9a70.127,70.127,0,0,1-14.924-2.384,83.287,83.287,0,0,1-27.044-13.267q-2.982-2.174-5.795-4.568c-2.592-2.2-5.132-4.6-6.63-7.658a12.316,12.316,0,0,1-.024-11,22.044,22.044,0,0,1,5.767-6.515c4.706-3.869,9.675-6.7,15.9-6.438a158.127,158.127,0,0,1,20.808,2.278c6.446,1.141,13,1.788,19.434,3.266a99.34,99.34,0,0,1,17.347,5.711,28.806,28.806,0,0,1,8.111,4.834,11.337,11.337,0,0,1,2.761,3.242C2937.365,1887.359,2936.931,1889.4,2936.907,1890.847Z" transform="translate(-2831.97 -1766.029)" fill="#33332f"/>
            <path id="Path_185" data-name="Path 185" d="M3001.018,1624.63a111.809,111.809,0,0,1,10.785-7.323,96.739,96.739,0,0,1,14.884-7.292c2.56-.983,5.164-1.768,7.791-2.543a23.737,23.737,0,0,1,4.793-.674c1.221-.1,2.4-.455,3.622-.592l.165-.018c6.56-.681,10.712,3.482,12.615,9.465,1.8,5.669,1.36,11.852.583,17.659-.756,5.635-1.98,11.2-2.687,16.843a92.572,92.572,0,0,0-.66,14.8c.088,2.477,1.278,5.242-.577,7.232a29.31,29.31,0,0,1-6.312,5.244,30.63,30.63,0,0,1-9.863,3.474,39.414,39.414,0,0,1-16.445-.941,26.162,26.162,0,0,1-7.718-3.052,13.32,13.32,0,0,1-4.54-4.634c-1.193-2.128-.336-4.712-.131-7.055.45-5.145.523-10.5-1.474-15.365-2.392-5.824-7.561-10.46-8.671-16.659a8.107,8.107,0,0,1,.5-5.04A10.917,10.917,0,0,1,3001.018,1624.63Z" transform="translate(-2951.133 -1561.288)" fill="#f3f3f3"/>
            <path id="Path_186" data-name="Path 186" d="M3099.074,1598.142a4.559,4.559,0,0,1-1.436,4.155,5.99,5.99,0,0,1-2.875,1.012,135.315,135.315,0,0,1-16.1.736,16.323,16.323,0,0,0-5.218.825,36.222,36.222,0,0,0-4.441,1.955c-.574.286-1.453.576-1.285-.371.089-.5.184-.993.3-1.485a22.037,22.037,0,0,1,1.067-3.289,5.636,5.636,0,0,1,1.74-2.762,5.059,5.059,0,0,1,2.46-.669l10.865-.8a60.311,60.311,0,0,0,11.376-1.9,1.556,1.556,0,0,0,1.061-.79,3.165,3.165,0,0,0,.083-.683.662.662,0,0,1,.335-.564C3097.8,1593.186,3099,1597.521,3099.074,1598.142Z" transform="translate(-3006.697 -1551.371)" fill="#fff"/>
            <path id="Path_187" data-name="Path 187" d="M2933.432,1702.763a21.914,21.914,0,0,1,3.708,8.948,14.157,14.157,0,0,1,.1,4.6,5.465,5.465,0,0,1-2.421,3.772,19.742,19.742,0,0,1-2.632,1,14.652,14.652,0,0,0-4.146,2.952q-4.432,3.983-9.042,7.758a33.292,33.292,0,0,1-7.155,4.825,12.239,12.239,0,0,1-8.424.9,7.587,7.587,0,0,1-5.479-6.06,8.863,8.863,0,0,1,1.261-5.174c2.414-4.383,6.8-7.275,10.036-11.09,2.82-3.323,4.726-7.279,6.9-11.025a40.543,40.543,0,0,1,3.593-5.36,6.915,6.915,0,0,1,4.039-2.348c2.167-.521,4.991,1.111,6.543,2.542A22.1,22.1,0,0,1,2933.432,1702.763Z" transform="translate(-2873.253 -1632.21)" fill="#fff"/>
            <path id="Path_188" data-name="Path 188" d="M2786.016,1697.955l.266.253a10.552,10.552,0,0,0,4.272,2.553,20.742,20.742,0,0,1,4.914,1.791c.537.31,1.735,1.257,2.41,1.038s.893-1.4,1.8-1.623c.592-.145,1.315.03,1.748-.4.589-.583.075-1.284.174-1.954a11.922,11.922,0,0,1,1.119-2.463,3.913,3.913,0,0,0-.05-2.96c-.264-.608-.74-1.093-1.015-1.685a3.631,3.631,0,0,1-.088-2.031,1.921,1.921,0,0,0,.056-.576,1,1,0,0,0-.551-.723,1.946,1.946,0,0,0-.917-.182c-1.928.016-.871,1-1.632,1.954a.687.687,0,0,1-.814.13,1.962,1.962,0,0,1-.656-.59,33.841,33.841,0,0,0-3.266-3.789,6.543,6.543,0,0,0-2.214-1.422,8.907,8.907,0,0,0-2.2-.374c-.357-.031-.856-.084-1.131.2-.08.081-.294.769-.217.807a1.375,1.375,0,0,0-1.736.824c-.878,2.047,1.047,4.465,1.265,6.479.021.208.009.459-.17.566-.212.127-.476-.052-.643-.235-.755-.829-1.123-1.961-1.917-2.752a1.361,1.361,0,0,0-1.133-.483c-.663.118-.914.938-.922,1.61C2782.738,1694.534,2784.23,1696.251,2786.016,1697.955Z" transform="translate(-2782.767 -1623.186)" fill="#fbbf9a"/>
            <path id="Path_189" data-name="Path 189" d="M2858.41,1775.183a17.614,17.614,0,0,1-4.036-1.654,19.053,19.053,0,0,1-5.878-4.986,25.743,25.743,0,0,1-3.447-7.27c-.444-1.249-.8-2.526-1.195-3.792a42.463,42.463,0,0,0-3.465-7.439c-.887-1.655.4-4.156,1.867-5.044a5.742,5.742,0,0,1,2.4-.716c1.726-.181,2.259,1.039,3.306,2.176a40.136,40.136,0,0,0,3.53,3.408,33.275,33.275,0,0,0,8.073,5.131,12,12,0,0,1,2.7,1.443,10.74,10.74,0,0,1,3.163,4.049c.853,2.042,1.781,4.088,2.79,6.057.726,1.42.616,3.019.645,4.615.022,1.233-1.106,2.43-2.039,3.09a9.836,9.836,0,0,1-6.688,1.271A13.669,13.669,0,0,1,2858.41,1775.183Z" transform="translate(-2827.823 -1669.857)" fill="#fff"/>
          </g>
          <path id="Path_190" data-name="Path 190" d="M2957.134,1880.229a22.34,22.34,0,0,0,8.251,5.484,35.959,35.959,0,0,0,12.654,2.052,27.049,27.049,0,0,0,7.5-.959c6.889-2.04,12.111-7.923,15.076-14.467,4.481-9.885,3.948-20.641,6.636-30.924a35,35,0,0,1,7.647-14.772c6.891-7.534,22.406-11.18,28-.315a32.343,32.343,0,0,1,2.486,7.6q2.094,9.074,3.311,18.322c1.712,13.021,1.937,26.158-7.7,36.265-5.4,5.665-12.32,9.692-19.527,12.746-13.912,5.9-29.1,6.586-43.287,1.121a56,56,0,0,1-5.9-2.672,34.2,34.2,0,0,1-18.276-23.86A18.662,18.662,0,0,0,2957.134,1880.229Z" transform="translate(-2917.334 -1728.992)" fill="#fef1ea"/>
          <path id="Path_191" data-name="Path 191" d="M3204.611,1822.636a23.964,23.964,0,0,1,3.028-6.742,16.475,16.475,0,0,1,2.44-2.868,25.946,25.946,0,0,1,7.215-4.882,24.741,24.741,0,0,1,8.731-1.588,26.373,26.373,0,0,1,10.7,1.9,16.229,16.229,0,0,1,7.99,6.42c.779,1.361,1.481,3.392.269,4.724a6.145,6.145,0,0,1-3.293,1.629c-5.627,1.254-11.444-.336-17.2-.758a42.317,42.317,0,0,0-10.505.54l-.159.028a13.7,13.7,0,0,0-6.551,2.984c-1.994,1.725-3.1,4.5-4.21,6.838a3.75,3.75,0,0,0,.086-.991q.055-.54.127-1.077.143-1.075.357-2.139C3203.914,1825.289,3204.226,1823.968,3204.611,1822.636Z" transform="translate(-3113.082 -1718.803)" fill="#fff"/>
        </g>
      </g>
    </g>
  </g>
</svg>
