<svg xmlns="http://www.w3.org/2000/svg" width="12.637" height="20" viewBox="0 0 12.637 20">
  <g id="Group_72" data-name="Group 72" transform="translate(397 -295)">
    <path id="Path_29" data-name="Path 29" d="M10.677,20.344l-.63-3.471a4.152,4.152,0,0,0,.63-2.2V11.645a.966.966,0,0,0-.645-.908V1.645A.646.646,0,0,0,9.387,1H1.645A.646.646,0,0,0,1,1.645V12.613a.646.646,0,0,0,.645.645h.02a.642.642,0,0,0,.222.349l1.16.928a1.3,1.3,0,0,1,.392.529l.055.138a4.048,4.048,0,0,0,1.348,1.749l-.567,3.4H1V21H13.58c.127,0,0,0,0,0s-.006-.656-.006-.656ZM1.645,1.645H9.387v9.092c-.012,0-.025.007-.037.012a.959.959,0,0,0-1.575-.465.938.938,0,0,0-.968-.192v-.7H8.742V8.742H6.806V8.419A.957.957,0,0,0,6.747,8.1H8.742V7.452H4.226V8.1h.7a.957.957,0,0,0-.059.323v.323H2.29v.645H4.871v.645H2.29v.645H4.871v1.515a.42.42,0,0,1-.654.35l-.383-.255a1.893,1.893,0,0,0-1.054-.319,1.133,1.133,0,0,0-1.019.645H1.645ZM4.093,14.961l-.055-.137a1.94,1.94,0,0,0-.588-.793L2.29,13.1a.491.491,0,0,1,.49-.49,1.25,1.25,0,0,1,.7.211l.383.255a1.065,1.065,0,0,0,1.656-.886V8.419a.323.323,0,1,1,.645,0v4.839h.645V11a.323.323,0,0,1,.645,0v2.258H8.1V11a.323.323,0,1,1,.645,0v2.258h.645V11.645a.323.323,0,1,1,.645,0v3.031a3.5,3.5,0,0,1-.5,1.808H5.294A3.41,3.41,0,0,1,4.093,14.961Zm1.374,2.168h3.97l.538,3.226H4.929Z" transform="translate(-398 294)"/>
    <path id="Path_30" data-name="Path 30" d="M12.909,8.909A1.955,1.955,0,0,0,11.9,7.2a1.3,1.3,0,1,0-1.885,0A1.955,1.955,0,0,0,9,8.909V9.56h3.909ZM10.3,6.3a.651.651,0,1,1,.651.651A.652.652,0,0,1,10.3,6.3ZM9.651,8.909a1.3,1.3,0,1,1,2.606,0Z" transform="translate(-403.43 291.303)"/>
    <path id="Path_31" data-name="Path 31" d="M5,21H6.3v.651H5Z" transform="translate(-400.697 280.45)"/>
  </g>
</svg>
