<svg xmlns="http://www.w3.org/2000/svg" width="20" height="19.993" viewBox="0 0 20 19.993">
  <g id="hiring" transform="translate(0 -0.091)">
    <g id="Group_120" data-name="Group 120" transform="translate(10.626 7.162)">
      <g id="Group_119" data-name="Group 119">
        <path id="Path_27" data-name="Path 27" d="M274.343,181.09A2.345,2.345,0,0,0,272,183.433h4.685A2.345,2.345,0,0,0,274.343,181.09Z" transform="translate(-272 -181.09)" fill="#4ffea3"/>
      </g>
    </g>
    <g id="Group_122" data-name="Group 122" transform="translate(11.797 3.646)">
      <g id="Group_121" data-name="Group 121">
        <path id="Path_28" data-name="Path 28" d="M303.171,91.09a1.171,1.171,0,1,0,1.171,1.171A1.173,1.173,0,0,0,303.171,91.09Z" transform="translate(-302 -91.09)" fill="#4ffea3"/>
      </g>
    </g>
    <g id="Group_124" data-name="Group 124" transform="translate(3.944 0.091)">
      <g id="Group_123" data-name="Group 123" transform="translate(0 0)">
        <path id="Path_29" data-name="Path 29" d="M109.817.091a7.069,7.069,0,0,0-7.028,7.067,6.993,6.993,0,0,0,1.666,4.534l-1.164,1.164a1.745,1.745,0,0,0-1.987.33l-.515.515,2.485,2.485.515-.515a1.737,1.737,0,0,0,.339-2l1.156-1.156a7.021,7.021,0,0,0,11.562-5.362A7.069,7.069,0,0,0,109.817.091Zm3.514,10a.585.585,0,0,1-.586.586h-5.857a.585.585,0,0,1-.586-.586V9.5a3.5,3.5,0,0,1,1.829-3.065,2.343,2.343,0,1,1,3.37,0A3.5,3.5,0,0,1,113.331,9.5Z" transform="translate(-100.789 -0.091)" fill="#4ffea3"/>
      </g>
    </g>
    <g id="Group_126" data-name="Group 126" transform="translate(-0.001 14.538)">
      <g id="Group_125" data-name="Group 125" transform="translate(0)">
        <path id="Path_30" data-name="Path 30" d="M3.107,369.879.514,372.425A1.757,1.757,0,0,0,3,374.91l2.592-2.546Z" transform="translate(0.001 -369.879)" fill="#4ffea3"/>
      </g>
    </g>
  </g>
</svg>
