<svg xmlns="http://www.w3.org/2000/svg" width="10.547" height="15" viewBox="0 0 10.547 15"><g transform="translate(-76)"><g transform="translate(76)"><path d="M81.273,0a5.274,5.274,0,0,0-4.486,8.046l4.186,6.746a.439.439,0,0,0,.373.208h0a.439.439,0,0,0,.374-.214L85.8,7.975A5.275,5.275,0,0,0,81.273,0Zm3.775,7.524L81.34,13.716,77.534,7.583a4.4,4.4,0,1,1,7.515-.059Z" transform="translate(-76)"/></g><g transform="translate(78.599 2.616)"><path d="M168.674,90a2.674,2.674,0,1,0,2.674,2.674A2.677,2.677,0,0,0,168.674,90Zm0,4.463a1.789,1.789,0,1,1,1.786-1.789A1.79,1.79,0,0,1,168.674,94.463Z" transform="translate(-166 -90)"/></g></g></svg>