<svg xmlns="http://www.w3.org/2000/svg" width="77.674" height="24.999" viewBox="0 0 77.674 24.999">
  <g id="paytm_1_" data-name="paytm (1)" transform="translate(0 -173.608)">
    <path id="Path_488" data-name="Path 488" d="M397.028,207.822c0,4.315,0,11.875,0,11.877-.322,0-2.649.006-2.972,0-.867-.008-1.078-.216-1.081-1.1-.01-4.384-.008-8.769-.017-13.152,0-1.165-.458-1.636-1.544-1.631s-1.549.488-1.55,1.634q0,6.463,0,12.922c0,1.219-.2,1.409-1.439,1.4-.846,0-1.691,0-2.538,0-.956,0-1.186-.246-1.187-1.263q-.01-6.5-.013-13c0-1.143-.444-1.652-1.427-1.68-1.165-.032-1.676.472-1.676,1.672q0,6.5,0,13c0,1.043-.151,1.194-1.2,1.2-.973,0-1.948,0-2.921.006-.663.006-.988-.273-.986-.967q.01-9.461,0-18.92c0-.68.312-1.008.961-1.018,1.076-.016,2.153,0,3.229-.006.678-.008.905.431.992,1.064a5.537,5.537,0,0,1,5.363-.848,4.448,4.448,0,0,1,1.5.9c.309.274.5.273.839.011,2.294-1.78,7.673.435,7.673.435Z" transform="translate(-319.356 -21.254)" fill="#00b8f8"/>
    <g id="Group_692" data-name="Group 692" transform="translate(0 177.597)">
      <path id="Path_489" data-name="Path 489" d="M102.774,211.651h-.01q0-3.305,0-6.61c0-.179-.027-.358-.043-.536a4.435,4.435,0,0,0-4.028-4.415,46.972,46.972,0,0,0-6.6-.143c-.568-.011-.789.384-.785.926.008.9,0,1.794,0,2.69,0,1.005.209,1.221,1.211,1.227,1.331.01,2.665-.011,4,0,.748.008,1.078.339,1.053,1.005s-.374.954-1.04.934c-.742-.024-1.487-.021-2.229,0a4.879,4.879,0,0,0-5.036,4.825c-.044,1.355-.029,2.715-.016,4.072.029,3.257,1.851,5.076,5.117,5.1,2,.014,4,.008,5.995,0,1.647-.006,2.394-.739,2.406-2.39C102.787,216.109,102.774,213.88,102.774,211.651Zm-6.125,4.468c-2.151.1-2.2.062-2.2-2.086,0-.461,0-.923,0-1.384a1.29,1.29,0,0,1,.049-.529c.52-1.035,1.484-.525,2.26-.583.572-.044.859.368.85.954-.006.434,0,.87,0,1.306s0,.872,0,1.306A.879.879,0,0,1,96.649,216.12Z" transform="translate(-75.702 -199.901)" fill="#002875"/>
      <path id="Path_490" data-name="Path 490" d="M204.211,208.608c0,2.307.013,4.614,0,6.921a5.069,5.069,0,0,1-5.454,5.414q-2.615.01-5.229,0c-.951,0-1.165-.224-1.169-1.184s.019-1.949,0-2.922c-.017-.719.317-1.036,1.013-1.038,1.538,0,3.076-.022,4.614-.021.594,0,1.133-.113,1.132-.828s-.545-.818-1.137-.827a14.31,14.31,0,0,1-3.367-.189,4.778,4.778,0,0,1-3.774-4.493c-.095-2.842-.043-5.69-.047-8.535a.793.793,0,0,1,.914-.883c1.051.007,2.1-.005,3.153,0,.819.007,1.054.237,1.057,1.055.009,2.179,0,4.358.007,6.537,0,1.15.2,1.353,1.317,1.36,1.816.011,1.854-.028,1.853-1.829,0-2,0-4,0-6,0-.94.189-1.118,1.132-1.125.923-.007,1.846-.006,2.769,0,1.032,0,1.219.185,1.22,1.2Q204.215,204.916,204.211,208.608Z" transform="translate(-161.834 -200.003)" fill="#002875"/>
      <path id="Path_491" data-name="Path 491" d="M12.282,204.92c-.049-3.072-1.91-4.876-5-4.892-2.116-.01-5.164,0-7.279,0,0-.005,0,5.572,0,8.487,0,4.34,0,12.406,0,12.407.273,0,2.568,0,2.839,0,.959,0,1.2-.232,1.2-1.157.008-1.487.024-2.974,0-4.461-.008-.463.114-.623.6-.609,1.049.033,2.1.033,3.151-.006a4.416,4.416,0,0,0,4.435-4.236C12.339,208.614,12.31,206.765,12.282,204.92Zm-5.145,3.733a.84.84,0,0,1-.908.915c-.561.016-1.125-.022-1.685.014-.441.029-.509-.177-.495-.545.021-.561,0-1.124,0-1.685,0-.537.033-1.076-.008-1.609-.036-.49.16-.623.617-.593.509.035,1.021,0,1.531.013a.868.868,0,0,1,.946.962C7.144,206.968,7.15,207.811,7.136,208.652Z" transform="translate(0 -200.004)" fill="#002875"/>
    </g>
    <path id="Path_492" data-name="Path 492" d="M300.559,190.512c0,2.331,0,4.662,0,6.993,0,.917-.172,1.086-1.074,1.094-.973.008-1.947.013-2.92,0-.877-.012-1.074-.214-1.075-1.1q-.009-6.878-.007-13.756c0-1.005.006-1.005-.961-1.007-1.972,0-1.972,0-1.972-1.984,0-.692.009-1.384,0-2.075s.263-1.043.993-1.058a4.772,4.772,0,0,0,4.217-2.365,3.627,3.627,0,0,1,1.51-1.489c.779-.36,1.255-.077,1.268.769.013.871.016,1.742,0,2.613-.007.36.105.505.481.485.485-.027.973,0,1.46,0a.756.756,0,0,1,.861.841c.007,1.127.012,2.254.005,3.381a.78.78,0,0,1-.9.886c-.051,0-.1,0-.154,0-1.722.027-1.722.027-1.722,1.786Q300.559,187.515,300.559,190.512Z" transform="translate(-248.165)" fill="#00b8f8"/>
  </g>
</svg>
