<svg xmlns="http://www.w3.org/2000/svg" width="30" height="30" viewBox="0 0 30 30"><defs><style>.a{fill:#fff;}</style></defs><path class="a" d="M128.874,264.579q0-.094,0-.189a8.438,8.438,0,0,0-16.875.047q0,.1,0,.2a6.282,6.282,0,0,0,4.77,5.912,14.976,14.976,0,0,0,7.331,0,6.289,6.289,0,0,0,4.771-5.965Z" transform="translate(-105.438 -241)"/><path class="a" d="M25.606,4.393A15,15,0,0,0,3.531,24.668q.4.471.835.91a.293.293,0,0,0,.494-.263,10.32,10.32,0,0,1,6.168-11.394.292.292,0,0,0,.091-.479,5.625,5.625,0,1,1,7.763,0,.292.292,0,0,0,.091.479,10.319,10.319,0,0,1,6.168,11.394.293.293,0,0,0,.494.263q.436-.438.835-.91a15,15,0,0,0-.863-20.275Z" transform="translate(0)"/><circle class="a" cx="3.75" cy="3.75" r="3.75" transform="translate(11.25 5.625)"/></svg>