<svg xmlns="http://www.w3.org/2000/svg" width="82.248" height="24.998" viewBox="0 0 82.248 24.998">
  <g id="phonepe-seeklogo.com" transform="translate(-0.001 -3.941)">
    <g id="Group_691" data-name="Group 691" transform="translate(0.001 3.941)">
      <g id="Group_688" data-name="Group 688">
        <g id="Group_685" data-name="Group 685">
          <path id="Path_472" data-name="Path 472" d="M12.5,3.941A12.5,12.5,0,1,0,25,16.44,12.5,12.5,0,0,0,12.5,3.941Z" transform="translate(-0.001 -3.941)" fill="#673ab7"/>
        </g>
        <g id="Group_686" data-name="Group 686" transform="translate(7.29 3.125)">
          <path id="Path_473" data-name="Path 473" d="M22.625,14.944v.427a.334.334,0,0,1-.378.378H20.936a.211.211,0,0,0-.164.059.259.259,0,0,0-.054.179V26.156a.334.334,0,0,1-.378.378H19.288a.334.334,0,0,1-.378-.378V22.481h-.079a1.5,1.5,0,0,1-.7.626A2.72,2.72,0,0,1,17,23.315h-.576a3.568,3.568,0,0,1-1.234-.2,2.661,2.661,0,0,1-.961-.6,2.577,2.577,0,0,1-.618-.95,3.532,3.532,0,0,1-.206-1.244v-4.33a.278.278,0,0,0-.045-.169.18.18,0,0,0-.134-.069H12.078a.373.373,0,0,1-.283-.1.416.416,0,0,1-.095-.3v-.834a.349.349,0,0,1,.095-.267.4.4,0,0,1,.283-.09h5.851q-.635-.661-1.229-1.4T15.553,11.2L15,10.376l-.555-.824a.621.621,0,0,1-.059-.143.6.6,0,0,1-.021-.154.263.263,0,0,1,.3-.3h1.211a.614.614,0,0,1,.308.074.551.551,0,0,1,.209.224l1.42,2.284,1.42,2.284a.832.832,0,0,0,.239.253.5.5,0,0,0,.278.084h2.5a.393.393,0,0,1,.283.09.35.35,0,0,1,.095.267v.427Z" transform="translate(-11.7 -8.957)" fill="#fff"/>
        </g>
        <g id="Group_687" data-name="Group 687" transform="translate(10.806 9.917)">
          <path id="Path_474" data-name="Path 474" d="M20.819,19.856H17.562a.211.211,0,0,0-.164.059.259.259,0,0,0-.054.179v4.151a1.6,1.6,0,0,0,.378,1.161,1.513,1.513,0,0,0,1.132.388h.536a2.236,2.236,0,0,0,.727-.107,1.261,1.261,0,0,0,.513-.32,1.389,1.389,0,0,0,.306-.5,1.985,1.985,0,0,0,.1-.658V20.095a.255.255,0,0,0-.055-.179A.207.207,0,0,0,20.819,19.856Z" transform="translate(-17.343 -19.856)" fill="#673ab7"/>
        </g>
      </g>
      <g id="Group_690" data-name="Group 690" transform="translate(31.926 8.35)">
        <g id="Group_689" data-name="Group 689">
          <path id="Path_475" data-name="Path 475" d="M52.8,23.788v3.332H51.238V18.136h3.437a3.475,3.475,0,0,1,2.391.784A2.639,2.639,0,0,1,57.951,21a2.55,2.55,0,0,1-.867,2.057,3.641,3.641,0,0,1-2.428.735H52.8Zm0-1.259h1.876a1.846,1.846,0,0,0,1.271-.392A1.441,1.441,0,0,0,56.384,21a1.556,1.556,0,0,0-.444-1.163,1.71,1.71,0,0,0-1.222-.447H52.8v3.135Z" transform="translate(-51.238 -17.641)" fill="#212121"/>
          <path id="Path_476" data-name="Path 476" d="M65.635,20.872a2.348,2.348,0,0,1,1.857-.852q2.135,0,2.166,2.438v4.362h-1.5V22.514a1.32,1.32,0,0,0-.3-.978,1.224,1.224,0,0,0-.879-.287,1.444,1.444,0,0,0-1.345.8v4.769h-1.5V17.342h1.5v3.53Z" transform="translate(-56.099 -17.342)" fill="#212121"/>
          <path id="Path_477" data-name="Path 477" d="M75.181,25.04a3.936,3.936,0,0,1,.389-1.768,2.837,2.837,0,0,1,1.092-1.209,3.078,3.078,0,0,1,1.616-.423,2.917,2.917,0,0,1,2.193.87,3.423,3.423,0,0,1,.91,2.307l.006.352a3.972,3.972,0,0,1-.379,1.765,2.8,2.8,0,0,1-1.086,1.2,3.1,3.1,0,0,1-1.632.426,2.894,2.894,0,0,1-2.261-.941,3.6,3.6,0,0,1-.849-2.508Zm1.5.13a2.693,2.693,0,0,0,.426,1.614,1.383,1.383,0,0,0,1.185.583,1.368,1.368,0,0,0,1.181-.593,2.973,2.973,0,0,0,.422-1.734,2.654,2.654,0,0,0-.435-1.6,1.466,1.466,0,0,0-2.348-.009A2.92,2.92,0,0,0,76.68,25.17Z" transform="translate(-60.262 -18.962)" fill="#212121"/>
          <path id="Path_478" data-name="Path 478" d="M88.758,21.764l.043.771a2.4,2.4,0,0,1,1.943-.895q2.085,0,2.123,2.388V28.44h-1.5V24.115a1.374,1.374,0,0,0-.275-.941,1.155,1.155,0,0,0-.9-.305,1.446,1.446,0,0,0-1.352.821v4.751h-1.5V21.764Z" transform="translate(-64.847 -18.962)" fill="#212121"/>
          <path id="Path_479" data-name="Path 479" d="M101.647,28.563a3.1,3.1,0,0,1-2.31-.9,3.256,3.256,0,0,1-.885-2.391v-.185a4,4,0,0,1,.386-1.786,2.933,2.933,0,0,1,1.083-1.225,2.861,2.861,0,0,1,1.555-.438,2.623,2.623,0,0,1,2.107.87,3.676,3.676,0,0,1,.743,2.462v.6H99.963a2.006,2.006,0,0,0,.552,1.308,1.657,1.657,0,0,0,1.219.481,2.029,2.029,0,0,0,1.678-.833l.808.771a2.7,2.7,0,0,1-1.07.928A3.328,3.328,0,0,1,101.647,28.563Zm-.179-5.719a1.263,1.263,0,0,0-1,.432,2.238,2.238,0,0,0-.484,1.2h2.857v-.111a1.825,1.825,0,0,0-.4-1.138A1.256,1.256,0,0,0,101.468,22.844Z" transform="translate(-69.033 -18.962)" fill="#212121"/>
          <path id="Path_480" data-name="Path 480" d="M111.741,23.788v3.332H110.18V18.136h3.437a3.475,3.475,0,0,1,2.391.784A2.639,2.639,0,0,1,116.893,21a2.55,2.55,0,0,1-.867,2.057,3.641,3.641,0,0,1-2.428.735h-1.858Zm0-1.259h1.876a1.846,1.846,0,0,0,1.271-.392A1.441,1.441,0,0,0,115.326,21a1.556,1.556,0,0,0-.444-1.163,1.71,1.71,0,0,0-1.222-.447H111.74v3.135Z" transform="translate(-73.453 -17.641)" fill="#212121"/>
          <path id="Path_481" data-name="Path 481" d="M125.768,28.563a3.1,3.1,0,0,1-2.31-.9,3.256,3.256,0,0,1-.885-2.391v-.185a4,4,0,0,1,.386-1.786,2.933,2.933,0,0,1,1.083-1.225,2.861,2.861,0,0,1,1.555-.438,2.623,2.623,0,0,1,2.107.87,3.677,3.677,0,0,1,.743,2.462v.6h-4.362a2.006,2.006,0,0,0,.552,1.308,1.657,1.657,0,0,0,1.219.481,2.029,2.029,0,0,0,1.678-.833l.808.771a2.7,2.7,0,0,1-1.07.928A3.328,3.328,0,0,1,125.768,28.563Zm-.179-5.719a1.263,1.263,0,0,0-1,.432,2.238,2.238,0,0,0-.484,1.2h2.857v-.111a1.825,1.825,0,0,0-.4-1.138A1.255,1.255,0,0,0,125.589,22.844Z" transform="translate(-78.124 -18.962)" fill="#212121"/>
        </g>
      </g>
    </g>
  </g>
</svg>
