<svg xmlns="http://www.w3.org/2000/svg" width="14.063" height="20" viewBox="0 0 14.063 20"><defs><style>.a{fill:#fff;}</style></defs><g transform="translate(-76)"><g transform="translate(76)"><path class="a" d="M83.031,0A7.033,7.033,0,0,0,77.05,10.729l5.581,8.994a.586.586,0,0,0,.5.277h0a.586.586,0,0,0,.5-.285l5.439-9.082A7.033,7.033,0,0,0,83.031,0Zm5.034,10.032L83.12,18.289l-5.074-8.177a5.863,5.863,0,1,1,10.019-.079Z" transform="translate(-76)"/></g><g transform="translate(79.531 3.524)"><path class="a" d="M169.5,90a3.5,3.5,0,1,0,3.5,3.5A3.5,3.5,0,0,0,169.5,90Zm0,5.841a2.341,2.341,0,1,1,2.337-2.341A2.343,2.343,0,0,1,169.5,95.841Z" transform="translate(-166 -90)"/></g></g></svg>