<svg xmlns="http://www.w3.org/2000/svg" width="15" height="15" viewBox="0 0 15 15">
  <g id="Group_651" data-name="Group 651" transform="translate(-122 -719)">
    <path id="Path_1" data-name="Path 1" d="M120.41,260.307q0-.047,0-.095a4.205,4.205,0,1,0-8.41.024q0,.049,0,.1a3.149,3.149,0,0,0,2.377,2.968,7.411,7.411,0,0,0,3.654,0A3.153,3.153,0,0,0,120.41,260.307Z" transform="translate(13.295 470.469)" fill="#00e7fc"/>
    <path id="Path_2" data-name="Path 2" d="M12.8,2.195A7.5,7.5,0,0,0,1.765,12.325q.2.235.417.455a.146.146,0,0,0,.247-.131A5.155,5.155,0,0,1,5.514,6.956a.146.146,0,0,0,.046-.239,2.813,2.813,0,1,1,3.881,0,.146.146,0,0,0,.046.239,5.154,5.154,0,0,1,3.084,5.693.146.146,0,0,0,.247.131q.218-.219.417-.455A7.492,7.492,0,0,0,12.8,2.195Z" transform="translate(122 719)" fill="#00e7fc"/>
    <circle id="Ellipse_1" data-name="Ellipse 1" cx="1.883" cy="1.883" r="1.883" transform="translate(127.617 721.809)" fill="#00e7fc"/>
  </g>
</svg>
