<svg xmlns="http://www.w3.org/2000/svg" width="208.837" height="200.804" viewBox="0 0 208.837 200.804"><defs><style>.a{fill:#fff;}</style></defs><g transform="translate(0 -9.136)"><g transform="translate(0 9.136)"><path class="a" d="M205.322,323.287a11.607,11.607,0,0,0-8.533-3.514H143.2a24.766,24.766,0,0,1-8.847,11.544,23.023,23.023,0,0,1-13.867,4.519H88.353a23.018,23.018,0,0,1-13.867-4.519,24.768,24.768,0,0,1-8.848-11.544H12.048a11.618,11.618,0,0,0-8.534,3.514A11.61,11.61,0,0,0,0,331.82v40.161a11.61,11.61,0,0,0,3.514,8.532,11.619,11.619,0,0,0,8.534,3.513H196.791a12,12,0,0,0,12.046-12.045V331.82A11.608,11.608,0,0,0,205.322,323.287Zm-47.06,42.293a7.883,7.883,0,1,1,2.383-5.647A7.729,7.729,0,0,1,158.261,365.58Zm32.127,0a7.877,7.877,0,1,1,2.386-5.647A7.717,7.717,0,0,1,190.388,365.58Z" transform="translate(0 -183.222)"/><path class="a" d="M99.229,81.427h32.129v56.227a8.145,8.145,0,0,0,8.032,8.033h32.132a8.143,8.143,0,0,0,8.03-8.033V81.427h32.13a7.5,7.5,0,0,0,7.4-5.02,7.137,7.137,0,0,0-1.757-8.66L161.1,11.521a7.878,7.878,0,0,0-11.295,0L93.582,67.747a7.137,7.137,0,0,0-1.758,8.66A7.5,7.5,0,0,0,99.229,81.427Z" transform="translate(-51.036 -9.136)"/></g></g></svg>