<svg xmlns="http://www.w3.org/2000/svg" width="16.715" height="18" viewBox="0 0 16.715 18">
  <g id="Group_62" data-name="Group 62" transform="translate(-327 -357)">
    <path id="Path_3" data-name="Path 3" d="M31.853,153.6H28.638a.645.645,0,0,0,0,1.29h3.214a.644.644,0,0,1,.643.645v8.386a.644.644,0,0,1-.643.645H19a.644.644,0,0,1-.643-.645v-8.386A.644.644,0,0,1,19,154.89H22.21a.645.645,0,0,0,0-1.29H19a1.932,1.932,0,0,0-1.929,1.935v8.386A1.932,1.932,0,0,0,19,165.857H31.853a1.932,1.932,0,0,0,1.929-1.935v-8.386A1.932,1.932,0,0,0,31.853,153.6Z" transform="translate(309.933 209.143)"/>
    <g id="Group_61" data-name="Group 61" transform="translate(331.536 357)">
      <g id="Group_60" data-name="Group 60" transform="translate(0)">
        <path id="Path_4" data-name="Path 4" d="M144.19,4.28a.638.638,0,0,1-.887,0l-2.1-2.1V12.763a.638.638,0,0,1-1.276,0V2.179l-2.1,2.1a.638.638,0,0,1-.9-.9L140.112.187a.638.638,0,0,1,.9,0h0l3.191,3.191A.638.638,0,0,1,144.19,4.28Z" transform="translate(-136.742 0)"/>
      </g>
    </g>
  </g>
</svg>
