<svg xmlns="http://www.w3.org/2000/svg" width="236.982" height="226.412" viewBox="0 0 236.982 226.412">
  <g id="Group_729" data-name="Group 729" transform="translate(0)">
    <g id="Group_111" data-name="Group 111" transform="translate(188.534 119.921)">
      <path id="Path_60" data-name="Path 60" d="M3709.855,2211.4c-4.765-2.751-12.467-2.765-17.2-.031a7.726,7.726,0,0,0-2.878,2.682h-3.931v9.342l16.787-.062a16.8,16.8,0,0,0,7.277-2C3714.644,2218.6,3714.621,2214.151,3709.855,2211.4Z" transform="translate(-3672.292 -2142.372)" opacity="0.15"/>
      <g id="Group_110" data-name="Group 110" transform="translate(0 0)">
        <g id="Group_108" data-name="Group 108" transform="translate(0 45.206)">
          <g id="Group_106" data-name="Group 106" transform="translate(0 12.763)">
            <path id="Path_61" data-name="Path 61" d="M3598.893,2190.74h-24.812v9.308h.044c.083,1.774,1.29,3.536,3.64,4.894,4.853,2.8,12.7,2.816,17.521.032,2.355-1.361,3.546-3.138,3.591-4.926h.016Z" transform="translate(-3574.081 -2184.007)" fill="#f3f3f3"/>
            <path id="Path_62" data-name="Path 62" d="M3595.5,2147.443c-4.824,2.785-12.668,2.771-17.521-.032s-4.878-7.33-.055-10.115,12.667-2.77,17.52.031S3600.323,2144.659,3595.5,2147.443Z" transform="translate(-3574.294 -2135.217)" fill="#f7f8f8"/>
          </g>
          <g id="Group_107" data-name="Group 107">
            <path id="Path_63" data-name="Path 63" d="M3598.893,2085.49h-24.812v13.628h.044c.083,1.773,1.29,3.536,3.64,4.894,4.853,2.8,12.7,2.816,17.521.032,2.355-1.36,3.546-3.137,3.591-4.925h.016Z" transform="translate(-3574.081 -2078.757)" fill="#c9c0b7"/>
            <path id="Path_64" data-name="Path 64" d="M3598.893,2190.74h-24.812v9.308h.044c.083,1.774,1.29,3.536,3.64,4.894,4.853,2.8,12.7,2.816,17.521.032,2.355-1.361,3.546-3.138,3.591-4.926h.016Z" transform="translate(-3574.081 -2171.244)" fill="#f3f3f3"/>
            <path id="Path_65" data-name="Path 65" d="M3598.893,2085.49h-24.812v13.628h.044c.083,1.773,1.29,3.536,3.64,4.894,4.853,2.8,12.7,2.816,17.521.032,2.355-1.36,3.546-3.137,3.591-4.925h.016Z" transform="translate(-3574.081 -2078.757)" fill="#c9c0b7"/>
            <path id="Path_66" data-name="Path 66" d="M3589.359,2085.46a7.49,7.49,0,0,1-.207,1.381,21.48,21.48,0,0,1-2.116,5.807,34.442,34.442,0,0,1-8.591,10.441,27.161,27.161,0,0,1-4.355,2.844V2085.46Z" transform="translate(-3574.088 -2078.73)" fill="#c9c0b7"/>
            <path id="Path_67" data-name="Path 67" d="M3658.584,2145.32v14.819h-.012c-.047,1.784-1.238,3.562-3.59,4.924-3.5,2.02-8.586,2.565-12.97,1.646a48.93,48.93,0,0,0,9.889-9.231,41,41,0,0,0,3.413-4.954A38.6,38.6,0,0,0,3658.584,2145.32Z" transform="translate(-3633.774 -2131.332)" fill="#c9c0b7"/>
            <path id="Path_68" data-name="Path 68" d="M3595.5,2042.189c-4.824,2.784-12.668,2.77-17.521-.032s-4.878-7.331-.055-10.115,12.667-2.771,17.52.031S3600.323,2039.4,3595.5,2042.189Z" transform="translate(-3574.294 -2029.963)" fill="#e8ded3"/>
            <path id="Path_69" data-name="Path 69" d="M3607.71,2048.426a6.276,6.276,0,0,1-.652.415,16.6,16.6,0,0,1-15.02-.023c-.243-.142-.468-.285-.681-.433-3.467-2.418-3.259-5.99.634-8.242a16.59,16.59,0,0,1,15.021.029C3610.94,2042.436,3611.177,2046.032,3607.71,2048.426Z" transform="translate(-3587.107 -2037.342)" fill="#f7f8f8"/>
            <path id="Path_70" data-name="Path 70" d="M3619.144,2067.228a6.415,6.415,0,0,1-.652.415,16.6,16.6,0,0,1-15.02-.024c-.243-.142-.469-.284-.682-.433-1.594-1.938-1.008-4.32,1.753-5.914a14.137,14.137,0,0,1,12.787.024C3620.121,2062.9,3620.726,2065.3,3619.144,2067.228Z" transform="translate(-3598.541 -2056.144)" fill="#865955"/>
          </g>
        </g>
        <g id="Group_109" data-name="Group 109" transform="translate(1.115)">
          <path id="Path_71" data-name="Path 71" d="M3591.849,1811.411q-.542-.08-1.066-.2a16.388,16.388,0,0,0-.752-2.773c-.936-2.476-1.872-4.948-2.684-7.465-.207-.628-.4-1.262-.592-1.9a84.8,84.8,0,0,1-3.034-32.7,206.9,206.9,0,0,1,4.733,20.406c0,.018.007.03.007.048.795,4.3,1.463,8.633,2.05,12.976.243,1.771.468,3.549.681,5.321.131,1.061.255,2.115.374,3.176C3591.684,1809.336,3591.8,1810.374,3591.849,1811.411Z" transform="translate(-3583.275 -1753.14)" fill="#304950"/>
          <path id="Path_72" data-name="Path 72" d="M3701.933,1819.029l-.107.373c-.658,2.222-1.422,4.4-2.222,6.559-.344.936-.7,1.872-1.055,2.809-.035.095-.071.19-.1.285-.025.053-.042.113-.065.165a1.25,1.25,0,0,1-.053-.142c-.457.1-.919.183-1.393.248.024-.23.053-.455.077-.687.084-.746.172-1.488.261-2.234.344-2.915.717-5.823,1.137-8.733.011-.094.024-.19.042-.291a226.056,226.056,0,0,1,6.405-30.675A84.728,84.728,0,0,1,3701.933,1819.029Z" transform="translate(-3683.156 -1770.998)" fill="#617459"/>
          <path id="Path_73" data-name="Path 73" d="M3663.578,1724.837c-.018.315-.041.629-.06.943-.029.51-.065,1.013-.094,1.517-.083,1.238-.178,2.477-.285,3.709q-.382,4.613-.948,9.2c-.154,1.292-.326,2.583-.5,3.869q-.357,2.551-.765,5.084-.266,1.627-.557,3.247c-.261-.012-.521-.023-.782-.041-.178-.012-.35-.03-.527-.047q-.072-5-.3-10c-.029-.693-.053-1.375-.064-2.056-.042-1.943-.024-3.858.011-5.771.029-2.1.071-4.2.053-6.34-.018-2.346.036-4.687.178-7.028.048-.972.119-1.95.207-2.921.154-1.866.368-3.733.628-5.593.64-4.5,1.961-9.089,2.8-13.617.344,4.385,1.144,8.674,1.328,13.048A122.979,122.979,0,0,1,3663.578,1724.837Z" transform="translate(-3649.529 -1693.925)" fill="#617459"/>
          <path id="Path_74" data-name="Path 74" d="M3623.366,1702.638c0,.255,0,.51-.006.765q-.035,2.8-.154,5.6c-.09,2.2-.208,4.409-.368,6.607-.178-.012-.35-.03-.527-.047-.285-.024-.563-.06-.841-.107-.213-2.1-.474-4.2-.771-6.293-.242-1.766-.509-3.531-.781-5.3-.67-4.326-1.381-8.651-1.95-13,0-.018-.006-.03-.006-.048a112.88,112.88,0,0,1-1.1-15.909,125.393,125.393,0,0,1,1.516-17.74,193.3,193.3,0,0,1,4.024,24.282c.13,1.291.249,2.589.344,3.887Q3623.447,1693.968,3623.366,1702.638Z" transform="translate(-3612.783 -1657.167)" fill="#f3f8ee"/>
          <path id="Path_75" data-name="Path 75" d="M3680.51,1854.82c-.012,7.217-.023,14.493-.635,21.68q-.043.5-.088,1c-.261,2.826-.623,5.641-1.115,8.426-.195,1.107-.408,2.21-.651,3.312-.575.066-1.155.095-1.736.107-.077-1.084-.148-2.168-.207-3.253a75.826,75.826,0,0,1-.107-7.614c.017-.463.042-.931.077-1.4.041-.622.094-1.244.166-1.866.343-3.076.882-6.121,1.528-9.148.083-.373.16-.741.243-1.108.237-1.068.486-2.127.747-3.188.167-.693.338-1.38.515-2.073C3679.621,1858.209,3680.51,1856.331,3680.51,1854.82Z" transform="translate(-3664.683 -1830.852)" fill="#304950"/>
          <path id="Path_76" data-name="Path 76" d="M3651.253,1871.882c-.468.16-.954.3-1.451.415-.025.053-.042.113-.065.166a1.171,1.171,0,0,1-.053-.142q-.542-1.332-1.055-2.672c-.048-.112-.089-.225-.131-.338q-.95-2.444-1.83-4.918-.454-1.262-.872-2.53c-.16-.463-.314-.924-.462-1.392-.082-.249-.16-.5-.242-.758-.367-1.173-.718-2.352-1.043-3.537-.125-.457-.25-.907-.362-1.363a81.518,81.518,0,0,1-2.109-18.9,16.95,16.95,0,0,0,2.34,5.528c.183.32.373.64.551.966.4.682.782,1.369,1.125,2.092a38.613,38.613,0,0,1,1.973,4.948c.2.616.385,1.244.551,1.872q.392,1.449.652,2.933.5,2.809.93,5.635c.037.243.077.486.107.735a2.385,2.385,0,0,1,.048.314q.623,4.124,1.1,8.265C3651.062,1870.1,3651.157,1870.993,3651.253,1871.882Z" transform="translate(-3634.508 -1814.24)" fill="#8bd0e5"/>
        </g>
      </g>
    </g>
    <g id="Group_113" data-name="Group 113" transform="translate(82.441 28.152)">
      <path id="Path_77" data-name="Path 77" d="M2724.426,914.033l-23.142-13.361c-1.168-.675-2.114-.135-2.114,1.205v15.367a4.658,4.658,0,0,0,2.114,3.647l17.288,9.981,7.183,17.118-4.009-15.285,2.68,1.547c1.168.675,2.115.135,2.115-1.205V917.68A4.659,4.659,0,0,0,2724.426,914.033Z" transform="translate(-2699.17 -900.382)" fill="#74bcd4"/>
      <g id="Group_112" data-name="Group 112" transform="translate(8.266 13.885)">
        <path id="Path_78" data-name="Path 78" d="M2770.215,1017.561c0,.911-.643,1.278-1.437.82a3.169,3.169,0,0,1-1.438-2.48c0-.911.644-1.278,1.438-.819A3.165,3.165,0,0,1,2770.215,1017.561Z" transform="translate(-2767.339 -1014.884)" fill="#fff"/>
        <path id="Path_79" data-name="Path 79" d="M2799.713,1034.551c0,.911-.644,1.278-1.437.819a3.167,3.167,0,0,1-1.438-2.479c0-.911.643-1.278,1.438-.82A3.167,3.167,0,0,1,2799.713,1034.551Z" transform="translate(-2793.261 -1029.813)" fill="#fff"/>
        <path id="Path_80" data-name="Path 80" d="M2829.213,1051.531c0,.911-.644,1.278-1.438.82a3.167,3.167,0,0,1-1.438-2.48c0-.911.643-1.278,1.438-.82A3.169,3.169,0,0,1,2829.213,1051.531Z" transform="translate(-2819.183 -1044.735)" fill="#fff"/>
      </g>
    </g>
    <g id="Group_728" data-name="Group 728" transform="translate(0 0)">
      <g id="Group_127" data-name="Group 127" transform="translate(118.864)">
        <g id="Group_126" data-name="Group 126" transform="translate(0)">
          <g id="Group_117" data-name="Group 117" transform="translate(42.203 24.243)">
            <g id="Group_116" data-name="Group 116">
              <g id="Group_114" data-name="Group 114">
                <path id="Path_81" data-name="Path 81" d="M3380.763,887.4v21.648l-33.193-19.164V868.145Z" transform="translate(-3347.571 -868.145)" fill="#fff"/>
              </g>
              <g id="Group_115" data-name="Group 115" transform="translate(0 26.197)">
                <path id="Path_82" data-name="Path 82" d="M3347.571,1084.18l33.193,19.164v46.722l-33.193-19.272Z" transform="translate(-3347.571 -1084.18)" fill="#fff"/>
              </g>
            </g>
          </g>
          <g id="Group_121" data-name="Group 121" transform="translate(84.926 49.081)">
            <g id="Group_120" data-name="Group 120">
              <g id="Group_118" data-name="Group 118">
                <path id="Path_83" data-name="Path 83" d="M3733.083,1092.24v21.647l-33.193-19.164V1072.98Z" transform="translate(-3699.891 -1072.98)" fill="#fff"/>
              </g>
              <g id="Group_119" data-name="Group 119" transform="translate(0 26.197)">
                <path id="Path_84" data-name="Path 84" d="M3699.891,1289.02l33.193,19.164v46.722l-33.193-19.272Z" transform="translate(-3699.891 -1289.02)" fill="#fff"/>
              </g>
            </g>
          </g>
          <g id="Group_125" data-name="Group 125">
            <g id="Group_124" data-name="Group 124">
              <g id="Group_122" data-name="Group 122">
                <path id="Path_85" data-name="Path 85" d="M3032.733,687.484v21.647l-33.193-19.164V668.224Z" transform="translate(-2999.54 -668.224)" fill="#fff"/>
              </g>
              <g id="Group_123" data-name="Group 123" transform="translate(0 26.197)">
                <path id="Path_86" data-name="Path 86" d="M2999.54,884.261l33.193,19.164v46.722l-33.193-19.272Z" transform="translate(-2999.54 -884.261)" fill="#fff"/>
              </g>
            </g>
          </g>
        </g>
      </g>
      <g id="Group_170" data-name="Group 170" transform="translate(0 41.879)">
        <path id="Path_87" data-name="Path 87" d="M2164.651,1695.186l40.952-25.2-54.38-32.745-87.028,7.418-32.91,18.884,7.219.219,27.241,15.938c-3.526,8.245.32,17.346,11.529,23.818,10.238,5.911,24.276,8.271,37.511,7.087l23.476,13.361h6.169l29.371,17.128.076,4.875,13.476.18,33.039-18.759Z" transform="translate(-2029.833 -1561.615)" opacity="0.15"/>
        <g id="Group_132" data-name="Group 132" transform="translate(89.107 20.852)">
          <g id="Group_128" data-name="Group 128" transform="translate(53.22 40.598)">
            <path id="Path_88" data-name="Path 88" d="M3211.211,1565.442h0a1.133,1.133,0,0,1-1.467-.644l-16.718-42.868,4.065-1.587,14.78,43.68A1.134,1.134,0,0,1,3211.211,1565.442Z" transform="translate(-3193.027 -1520.344)" fill="#ae8e8b"/>
          </g>
          <g id="Group_129" data-name="Group 129" transform="translate(0 46.677)">
            <path id="Path_89" data-name="Path 89" d="M2754.862,1613.985h0a1.132,1.132,0,0,0,1.467-.643l16.718-42.867-5.761,3.422-13.085,38.67A1.134,1.134,0,0,0,2754.862,1613.985Z" transform="translate(-2754.141 -1570.474)" fill="#ece0c7"/>
          </g>
          <g id="Group_130" data-name="Group 130" transform="translate(30.961 61.388)">
            <path id="Path_90" data-name="Path 90" d="M3010.453,1738.681h0a1.132,1.132,0,0,1-.975-1.27l6-45.619,4.327.568-8.093,45.4A1.132,1.132,0,0,1,3010.453,1738.681Z" transform="translate(-3009.468 -1691.792)" fill="#ae8e8b"/>
          </g>
          <g id="Group_131" data-name="Group 131" transform="translate(8.145)">
            <path id="Path_91" data-name="Path 91" d="M2879.031,1231.442c.856,5.565.177,11.787-3.675,15.883a20.8,20.8,0,0,1-7.063,4.509,60.1,60.1,0,0,1-26.806,4.871,30.824,30.824,0,0,1-12.03-2.686c-3.011-1.483-6.679-4.266-7.712-7.639a10.664,10.664,0,0,1,.922-8.288,13.174,13.174,0,0,1,1.358-2.111c2.125-2.708,5.2-4.369,7.941-6.377a34.543,34.543,0,0,0,9.963-10.768c3.027-5.38,4.148-11.579,6.244-17.388q.1-.277.2-.553a29.762,29.762,0,0,1,4.244-7.875,18.561,18.561,0,0,1,3.912-3.764,19.81,19.81,0,0,1,10.288-3.683c4.221-.244,12.466,1.188,12.938,6.738a9.482,9.482,0,0,1-2.221,6.591,13.475,13.475,0,0,0-2.413,5,24.918,24.918,0,0,0-.141,11.167C2876.028,1220.594,2878.175,1225.886,2879.031,1231.442Z" transform="translate(-2821.311 -1185.548)" fill="#decdc6"/>
            <path id="Path_92" data-name="Path 92" d="M2883.638,1273.012a15.176,15.176,0,0,1-5.129,10.952,27.282,27.282,0,0,1-10.9,5.772,45.685,45.685,0,0,1-20.193,1.291,25.311,25.311,0,0,1-9.409-3.21,14.454,14.454,0,0,1-4.983-5.033c-1.107-1.941-.945-3.5-.878-5.439a13.146,13.146,0,0,1,1.358-2.111c2.126-2.708,5.2-4.369,7.941-6.376a39.154,39.154,0,0,0,6.34-5.705c.42-.48.826-.967,1.217-1.476a28.662,28.662,0,0,0,2.406-3.587c3.026-5.38,4.148-11.58,6.244-17.388.03-.052.052-.1.082-.148,2.368-4.281,5.586-8.554,10.28-9.919a11.362,11.362,0,0,1,11.7,3.645c3.631,4.436,2.265,9.514,1.018,14.51a26.382,26.382,0,0,0,.089,13.152c.561,2.125,1.4,4.2,2.008,6.3a21,21,0,0,1,.642,2.812A13.305,13.305,0,0,1,2883.638,1273.012Z" transform="translate(-2830.789 -1224.8)" fill="#fef1ea"/>
          </g>
        </g>
        <g id="Group_149" data-name="Group 149" transform="translate(0 0.952)">
          <g id="Group_137" data-name="Group 137" transform="translate(0 15.305)">
            <g id="Group_133" data-name="Group 133" transform="translate(0 40.598)">
              <path id="Path_93" data-name="Path 93" d="M2020.031,1527.552h0a1.133,1.133,0,0,0,1.467-.643l16.718-42.868-4.066-1.587-14.78,43.68A1.131,1.131,0,0,0,2020.031,1527.552Z" transform="translate(-2019.309 -1482.454)" fill="#ae8e8b"/>
            </g>
            <g id="Group_134" data-name="Group 134" transform="translate(53.219 46.677)">
              <path id="Path_94" data-name="Path 94" d="M2476.37,1576.095h0a1.132,1.132,0,0,1-1.466-.644l-16.718-42.867,5.761,3.422,13.085,38.67A1.131,1.131,0,0,1,2476.37,1576.095Z" transform="translate(-2458.185 -1532.584)" fill="#ece0c7"/>
            </g>
            <g id="Group_135" data-name="Group 135" transform="translate(30.824 61.386)">
              <path id="Path_95" data-name="Path 95" d="M2282.86,1700.779h0a1.131,1.131,0,0,0,.975-1.27l-6-45.62-4.328.568,8.092,45.4A1.131,1.131,0,0,0,2282.86,1700.779Z" transform="translate(-2273.506 -1653.89)" fill="#ae8e8b"/>
            </g>
            <g id="Group_136" data-name="Group 136" transform="translate(5.511)">
              <path id="Path_96" data-name="Path 96" d="M2065.508,1193.553c-.856,5.565-.177,11.787,3.676,15.883a20.8,20.8,0,0,0,7.063,4.509,60.1,60.1,0,0,0,26.806,4.871,30.822,30.822,0,0,0,12.03-2.686c3.011-1.483,6.679-4.266,7.713-7.639a10.674,10.674,0,0,0-.922-8.288,13.228,13.228,0,0,0-1.358-2.111c-2.126-2.709-5.2-4.369-7.942-6.377a34.56,34.56,0,0,1-9.964-10.768c-3.026-5.38-4.147-11.58-6.243-17.388-.067-.185-.134-.369-.2-.553a29.759,29.759,0,0,0-4.244-7.875,18.554,18.554,0,0,0-3.912-3.764,19.8,19.8,0,0,0-10.288-3.683c-4.222-.243-12.465,1.188-12.938,6.738a9.482,9.482,0,0,0,2.222,6.591,13.5,13.5,0,0,1,2.413,5,24.9,24.9,0,0,1,.14,11.167C2068.511,1182.7,2066.364,1188,2065.508,1193.553Z" transform="translate(-2064.76 -1147.659)" fill="#fef1ea"/>
              <path id="Path_97" data-name="Path 97" d="M2111.1,1235.112a15.181,15.181,0,0,0,5.13,10.953,27.289,27.289,0,0,0,10.9,5.771,45.686,45.686,0,0,0,20.193,1.292,25.328,25.328,0,0,0,9.41-3.211,14.459,14.459,0,0,0,4.981-5.033c1.107-1.941.945-3.5.878-5.439a13.122,13.122,0,0,0-1.358-2.111c-2.126-2.709-5.2-4.369-7.941-6.377a39.169,39.169,0,0,1-6.341-5.705c-.42-.48-.825-.967-1.217-1.476a28.792,28.792,0,0,1-2.406-3.587c-3.025-5.38-4.147-11.58-6.243-17.388-.031-.052-.052-.1-.082-.147-2.37-4.281-5.587-8.554-10.281-9.92a11.362,11.362,0,0,0-11.7,3.646c-3.631,4.436-2.265,9.513-1.018,14.51a26.377,26.377,0,0,1-.088,13.152c-.561,2.126-1.4,4.2-2.008,6.3a21,21,0,0,0-.642,2.812A13.3,13.3,0,0,0,2111.1,1235.112Z" transform="translate(-2105.477 -1186.901)" fill="#decdc6"/>
            </g>
          </g>
          <g id="Group_148" data-name="Group 148" transform="translate(16.71)">
            <g id="Group_141" data-name="Group 141" transform="translate(37.187 101.28)">
              <path id="Path_98" data-name="Path 98" d="M2463.834,1868.1a3.019,3.019,0,0,0,.507,1.325,3.417,3.417,0,0,0,1.955,1.355,16.759,16.759,0,0,1,4.42,1.366,15.461,15.461,0,0,1,2.178,1.718c1.366,1.163,3.061,2.179,4.844,1.97a2.974,2.974,0,0,0,1.566-.627,2.393,2.393,0,0,0,.76-1.529,5.721,5.721,0,0,0,0-2.05,11.1,11.1,0,0,0-.518-1.7c-.025.485-.49-.083-.574-.186a4.791,4.791,0,0,0-.784-.76,15.493,15.493,0,0,0-3.388-1.616,5.378,5.378,0,0,1-2.44-1.836c-.2-.3-.291-.593-.642-.74a1.908,1.908,0,0,0-1.493.219,5.1,5.1,0,0,1-2.463.442,4.263,4.263,0,0,1-1.307-.485,2.855,2.855,0,0,0-.983-.306c-.182-.011-.312.11-.462.118s-.331-.192-.295-.323c-.068.087-.159.2-.274.187-.007-.017,0-.03,0-.046a3.294,3.294,0,0,0-.631,1.959A7.322,7.322,0,0,0,2463.834,1868.1Z" transform="translate(-2463.782 -1863.505)" fill="#fbf9ed"/>
              <path id="Path_99" data-name="Path 99" d="M2464.645,1860.073a3.221,3.221,0,0,0,2.38,2.722,16.7,16.7,0,0,1,4.419,1.366,1.888,1.888,0,0,1,.254.165,16.248,16.248,0,0,1,1.922,1.551c1.365,1.161,3.063,2.176,4.839,1.971a3.01,3.01,0,0,0,1.57-.625,3.169,3.169,0,0,0,.781-2.75,4.934,4.934,0,0,0-1.892-3.483,7.637,7.637,0,0,0-1.757-.956c-.537-.225-1.093-.42-1.629-.654a5.4,5.4,0,0,1-2.448-1.844,4.357,4.357,0,0,0-.332-.517.009.009,0,0,0-.01-.009.827.827,0,0,0-.293-.2,1.908,1.908,0,0,0-1.492.215,5.136,5.136,0,0,1-2.468.439,4.219,4.219,0,0,1-1.308-.478c-.088-.04-.205-.088-.332-.136a1.576,1.576,0,0,0-.957-.147c-.3.108-.6.576-.761.84A3.977,3.977,0,0,0,2464.645,1860.073Z" transform="translate(-2464.508 -1856.665)" fill="#c88260"/>
              <path id="Path_100" data-name="Path 100" d="M2531.892,1861.6a30.092,30.092,0,0,0,2.742,1.473,1.028,1.028,0,0,0,.244-.01,6.237,6.237,0,0,0,.906-.342c.127-.049.255-.088.391-.127-.537-.224-1.093-.42-1.629-.654a5.4,5.4,0,0,1-2.448-1.844,4.317,4.317,0,0,0-.332-.517A5.206,5.206,0,0,1,2531.892,1861.6Z" transform="translate(-2523.521 -1859.227)" fill="#7e454e"/>
              <path id="Path_101" data-name="Path 101" d="M2464.645,1860.073a3.222,3.222,0,0,0,2.38,2.722,16.712,16.712,0,0,1,4.419,1.366,1.868,1.868,0,0,1,.254.166,4.8,4.8,0,0,1,1.063-1.512,2.946,2.946,0,0,1,2.176-.84,8.753,8.753,0,0,0,.215-1.131,16.931,16.931,0,0,1-2.253-1.259,1.081,1.081,0,0,0-.293-.156,1.152,1.152,0,0,0-.449-.019,8.369,8.369,0,0,1-1.308-.049,6.722,6.722,0,0,1-2.976-1.346,3.688,3.688,0,0,1-1.024-1.17,1.57,1.57,0,0,0-.956-.147c-.3.108-.6.576-.761.839A3.978,3.978,0,0,0,2464.645,1860.073Z" transform="translate(-2464.508 -1856.664)" fill="#7e454e"/>
              <g id="Group_138" data-name="Group 138" transform="translate(9.311 3.103)">
                <path id="Path_102" data-name="Path 102" d="M2540.8,1883.919a.177.177,0,0,0,.1-.014c.1-.05.208-.208.3-.286a4.006,4.006,0,0,1,.642-.472,3.33,3.33,0,0,1,.693-.311,3.426,3.426,0,0,1,.365-.081c.19-.038.294-.17.2-.353a.279.279,0,0,0-.064-.084c-.177-.147-.526.013-.713.075a3.9,3.9,0,0,0-.744.346,4.6,4.6,0,0,0-.661.481c-.155.135-.465.35-.3.589A.279.279,0,0,0,2540.8,1883.919Z" transform="translate(-2540.566 -1882.257)" fill="#fbf9ed"/>
              </g>
              <g id="Group_139" data-name="Group 139" transform="translate(8.229 2.6)">
                <path id="Path_103" data-name="Path 103" d="M2531.878,1879.769a.172.172,0,0,0,.1-.014c.1-.05.208-.207.3-.286a3.973,3.973,0,0,1,.642-.471,3.3,3.3,0,0,1,.694-.311,3.432,3.432,0,0,1,.364-.082c.19-.038.294-.17.2-.353a.276.276,0,0,0-.063-.084c-.178-.147-.527.013-.714.075a3.968,3.968,0,0,0-.745.346,4.542,4.542,0,0,0-.66.481c-.155.135-.466.35-.3.589A.288.288,0,0,0,2531.878,1879.769Z" transform="translate(-2531.642 -1878.107)" fill="#fbf9ed"/>
              </g>
              <g id="Group_140" data-name="Group 140" transform="translate(7.115 2.166)">
                <path id="Path_104" data-name="Path 104" d="M2522.7,1876.185a.175.175,0,0,0,.1-.013c.1-.05.209-.208.3-.287a4,4,0,0,1,.643-.472,3.365,3.365,0,0,1,.693-.311,3.673,3.673,0,0,1,.364-.081c.19-.038.294-.17.2-.353a.284.284,0,0,0-.064-.084c-.178-.147-.527.013-.713.076a3.854,3.854,0,0,0-.744.346,4.493,4.493,0,0,0-.661.48c-.155.135-.465.35-.3.59A.281.281,0,0,0,2522.7,1876.185Z" transform="translate(-2522.461 -1874.524)" fill="#fbf9ed"/>
              </g>
            </g>
            <g id="Group_145" data-name="Group 145" transform="translate(28.727 104.431)">
              <path id="Path_105" data-name="Path 105" d="M2409.328,1901.1c.107.125.2.419.388.427a.464.464,0,0,0,.288-.132,3.35,3.35,0,0,1,.328,1.889,2.726,2.726,0,0,1-.579,1.765,3.259,3.259,0,0,1-1.408.85,6.631,6.631,0,0,1-2.407.275,12.75,12.75,0,0,1-5.315-1.407,5.572,5.572,0,0,1-2.428-2.382c-.233-.516-.336-1.08-.534-1.61-.335-.89-1.181-1.354-1.909-1.882a4.252,4.252,0,0,1-1.39-1.549,4.6,4.6,0,0,1,.822-4.7c-.037.045.156.332.2.366.167.145.213.074.369-.043.1-.077.191-.229.323-.226s.213.166.328.21c.171.067.349.046.534.1a5.135,5.135,0,0,0,3.151.076c.454-.158.806-.568,1.284-.451a2.939,2.939,0,0,1,1.3.831,11.177,11.177,0,0,1,1.1,1.411,23.509,23.509,0,0,0,1.968,2.371C2406.922,1898.569,2408.187,1899.767,2409.328,1901.1Z" transform="translate(-2394.014 -1891.429)" fill="#fbf9ed"/>
              <path id="Path_106" data-name="Path 106" d="M2396.06,1885.8a3.023,3.023,0,0,0,.062.6c.031.125.052.259.083.383a3.5,3.5,0,0,0,1.344,2.1,4.66,4.66,0,0,1,1.912,1.88c.175.465.268.951.444,1.406a1.837,1.837,0,0,0,.082.206,5.564,5.564,0,0,0,2.429,2.377,12.745,12.745,0,0,0,5.322,1.416,6.791,6.791,0,0,0,2.407-.279,3.286,3.286,0,0,0,1.406-.847c.981-1.106.423-2.966-.425-3.947-.682-.8-1.406-1.54-2.129-2.274-.485-.506-.982-1.023-1.467-1.54a22.981,22.981,0,0,1-1.963-2.367,11.2,11.2,0,0,0-1.106-1.415l-.1-.1a2.888,2.888,0,0,0-1.189-.723c-.485-.124-.836.29-1.292.444a5.058,5.058,0,0,1-3.151-.073,4.063,4.063,0,0,1-.527-.1c-.145-.052-.206-.227-.382-.207a.4.4,0,0,0-.227.134,6.728,6.728,0,0,0-.837.972,3.772,3.772,0,0,0-.455.817c-.041.093-.072.2-.1.289a2.471,2.471,0,0,0-.1.475A2.351,2.351,0,0,0,2396.06,1885.8Z" transform="translate(-2395.813 -1882.643)" fill="#c88260"/>
              <path id="Path_107" data-name="Path 107" d="M2459.29,1890.421a2.691,2.691,0,0,0,.341.569c.208.32.424.641.641.96.206.29.4.589.609.869a1.775,1.775,0,0,0,.259.351,2.6,2.6,0,0,0,.8.237,7.814,7.814,0,0,1,2.346.817.455.455,0,0,0,.155.052.181.181,0,0,0,.1-.042c.01,0,.01-.01.02-.01-.485-.507-.982-1.023-1.467-1.54a22.849,22.849,0,0,1-1.963-2.366,11.2,11.2,0,0,0-1.106-1.415l-.1-.1a1.33,1.33,0,0,1-.072.693,3.81,3.81,0,0,1-.238.5C2459.58,1890.037,2459.29,1890.389,2459.29,1890.421Z" transform="translate(-2451.375 -1888.052)" fill="#7e454e"/>
              <path id="Path_108" data-name="Path 108" d="M2396.06,1894.421a3.021,3.021,0,0,0,.062.6c.031.125.052.259.083.383a3.505,3.505,0,0,0,1.344,2.1,4.658,4.658,0,0,1,1.912,1.88c.175.465.268.951.444,1.406a4.893,4.893,0,0,1,1.478-1.291,4.77,4.77,0,0,1,1.519-.548,5.279,5.279,0,0,1,.806-.094c.155,0,.579.1.7.021a.137.137,0,0,0,.051-.093c.125-.537.249-1.085.373-1.622a1.515,1.515,0,0,0,.051-.568,1.323,1.323,0,0,0-.237-.486,19.85,19.85,0,0,0-1.529-1.942c-.094-.114-.187-.227-.279-.33a1.2,1.2,0,0,1-.61.175,8.359,8.359,0,0,1-5.476-1.55,3.756,3.756,0,0,0-.455.816c-.041.093-.072.2-.1.29a2.471,2.471,0,0,0-.1.475A2.366,2.366,0,0,0,2396.06,1894.421Z" transform="translate(-2395.813 -1891.267)" fill="#7e454e"/>
              <g id="Group_142" data-name="Group 142" transform="translate(6.438 2.311)">
                <path id="Path_109" data-name="Path 109" d="M2447.333,1903.261a.18.18,0,0,0,.1-.005c.115-.043.241-.2.341-.273a4.251,4.251,0,0,1,.723-.435,3.51,3.51,0,0,1,.761-.26,3.6,3.6,0,0,1,.392-.051c.2-.022.326-.151.243-.354a.29.29,0,0,0-.06-.094c-.173-.173-.556-.038-.76.01a4.169,4.169,0,0,0-.818.292,4.841,4.841,0,0,0-.744.443c-.177.128-.524.323-.37.593A.311.311,0,0,0,2447.333,1903.261Z" transform="translate(-2447.106 -1901.703)" fill="#fbf9ed"/>
              </g>
              <g id="Group_143" data-name="Group 143" transform="translate(7.052 3.311)">
                <path id="Path_110" data-name="Path 110" d="M2452.394,1911.506a.179.179,0,0,0,.1-.006c.115-.042.24-.2.341-.273a4.308,4.308,0,0,1,.723-.435,3.549,3.549,0,0,1,.761-.26,3.731,3.731,0,0,1,.392-.051c.2-.021.326-.15.243-.353a.276.276,0,0,0-.06-.095c-.173-.173-.556-.038-.76.01a4.167,4.167,0,0,0-.818.293,4.792,4.792,0,0,0-.743.443c-.177.127-.525.323-.371.593A.3.3,0,0,0,2452.394,1911.506Z" transform="translate(-2452.168 -1909.947)" fill="#fbf9ed"/>
              </g>
              <g id="Group_144" data-name="Group 144" transform="translate(7.665 4.313)">
                <path id="Path_111" data-name="Path 111" d="M2457.454,1919.771a.184.184,0,0,0,.1-.005c.115-.043.24-.2.341-.273a4.3,4.3,0,0,1,.723-.435,3.513,3.513,0,0,1,.762-.26,3.688,3.688,0,0,1,.391-.051c.2-.022.326-.151.243-.354a.294.294,0,0,0-.06-.094c-.173-.173-.556-.038-.759.01a4.13,4.13,0,0,0-.818.292,4.809,4.809,0,0,0-.744.442c-.177.127-.524.323-.371.593A.307.307,0,0,0,2457.454,1919.771Z" transform="translate(-2457.228 -1918.213)" fill="#fbf9ed"/>
              </g>
            </g>
            <path id="Path_112" data-name="Path 112" d="M2360.562,1484.566a11.076,11.076,0,0,0-1.17-1.909,84.541,84.541,0,0,0-6.972-6.909q-3.912-3.308-8.134-6.227l-.067-.047a105.488,105.488,0,0,0-9.046-5.592c.439.242-.954,1-1.125,1.045a20.68,20.68,0,0,0-2.034.506,5.853,5.853,0,0,0-3.141,2.322,8.731,8.731,0,0,0-.854,4.655,10.067,10.067,0,0,0,.481,3.681,9.278,9.278,0,0,0,3.1,3.616,48.175,48.175,0,0,0,9.332,5.8,49.175,49.175,0,0,0,5.167,2.1c1.625.554,2.061.815,1.776,2.7a120.441,120.441,0,0,1-3.355,13.723c-.3,1.1-.592,2.2-.86,3.31a10.685,10.685,0,0,0-.621,3.2c.167,1.692,3.389,2.421,4.762,2.555a9.767,9.767,0,0,0,5.336-1.048,1.523,1.523,0,0,0,.456-.313,1.634,1.634,0,0,0,.294-.584c.587-1.7,4.8-16.04,5.755-19.3a33.926,33.926,0,0,0,1.082-4.055,6.1,6.1,0,0,0,.039-2.694A4.632,4.632,0,0,0,2360.562,1484.566Z" transform="translate(-2307.292 -1410.232)" fill="#424c63"/>
            <path id="Path_113" data-name="Path 113" d="M2220.3,1497.195a5.543,5.543,0,0,0-.557-2.014,11.71,11.71,0,0,0-3.377-3.652c-3-2.314-6.044-4.694-8.125-7.857a6.7,6.7,0,0,1-1.191-2.857c-.162-1.445.029-2.9-.2-4.349a14.292,14.292,0,0,0-1.519-4.558,9.893,9.893,0,0,1-1.031-2.2c-.149,1.312-.433,2.846-1.962,2.645-1.552-.2-2.908.458-4.377.873a11.9,11.9,0,0,1-12.047-3.7,18.9,18.9,0,0,0-2.981,10.613,10.989,10.989,0,0,0,1.091,4.848,12.151,12.151,0,0,0,3.491,3.829,52.847,52.847,0,0,0,8.931,5.229c2.138,1.06,4.286,2.1,6.475,3.055,1.093.476,2.194.932,3.308,1.355,1.41.537,2.4.949,2.554,2.581a40.345,40.345,0,0,1-.131,4.944q-.157,6.1.188,12.208a5.623,5.623,0,0,0,.367,2.607,4.74,4.74,0,0,0,1.675,1.7,6.022,6.022,0,0,0,3.2.811,5.315,5.315,0,0,0,2.535-.634c2.11-1.2,1.836-3.59,2.053-5.7.251-2.426,1.181-11.919,1.312-14.244A35.58,35.58,0,0,0,2220.3,1497.195Z" transform="translate(-2179.801 -1415.191)" fill="#556282"/>
            <path id="Path_114" data-name="Path 114" d="M2190.614,1183.331q-1.275,12.6-2.542,25.192a8.879,8.879,0,0,1-.755,3.265,7.176,7.176,0,0,1-2.237,2.331c-.294.21-.588.41-.893.6-.325.21-.661.4-1,.577a18.945,18.945,0,0,1-18.891-.672,2.412,2.412,0,0,1-.819-.735,2.691,2.691,0,0,1-.315-1.218c-.776-8.138-1.4-16.444-4.42-24.036-.41-1.04-.872-2.058-1.219-3.109a3.5,3.5,0,0,1-.263-2.467,3.789,3.789,0,0,1,1.145-1.166,87.082,87.082,0,0,1,8.779-5.755,18.163,18.163,0,0,1,5.313-2.237,16.252,16.252,0,0,1,4.841-.042,32.334,32.334,0,0,1,9.608,2.594c.725.336,1.438.693,2.132,1.092a3.18,3.18,0,0,1,1.176.966C2191.087,1179.833,2190.761,1181.871,2190.614,1183.331Z" transform="translate(-2157.112 -1155.236)" fill="#f3f3f3"/>
            <g id="Group_146" data-name="Group 146" transform="translate(21.122 24.168)">
              <path id="Path_115" data-name="Path 115" d="M2337.247,1256.06c-.325.21-.662.4-1,.578-.441-3.665-.683-7.35-.914-10.963-.094-1.344-.178-2.688-.273-4.032-.494-6.773-1.292-13.945-3.77-20.518l.987-.378c2.521,6.7,3.329,13.966,3.832,20.823.1,1.344.179,2.688.274,4.043C2336.607,1249.056,2336.838,1252.574,2337.247,1256.06Z" transform="translate(-2331.293 -1220.746)" fill="#fbf9ed"/>
            </g>
            <g id="Group_147" data-name="Group 147" transform="translate(19.876 24.011)">
              <path id="Path_116" data-name="Path 116" d="M2338.569,1259.79l4.925,20.039-2.1,8.728-3.806-5.71-.937-22.482Z" transform="translate(-2334.755 -1254.899)" fill="#424c63"/>
              <path id="Path_117" data-name="Path 117" d="M2325.165,1223.911a1.473,1.473,0,0,1-.22.787,2.314,2.314,0,0,1-.867.5,1.836,1.836,0,0,1-1.13.067.643.643,0,0,1-.219-.1.769.769,0,0,1-.152-.17,8.287,8.287,0,0,1-1.555-4.321.978.978,0,0,0,1.251-.217c.231-.3.3-.738.625-.922a1.018,1.018,0,0,1,.626-.068c.815.1,1.173.825,1.342,1.554a11.243,11.243,0,0,1,.3,1.817A6.737,6.737,0,0,1,2325.165,1223.911Z" transform="translate(-2321.023 -1219.453)" fill="#556282"/>
            </g>
            <path id="Path_118" data-name="Path 118" d="M2273.7,1133.177c0,.046.01.092.015.14.048.5-.137.609-.592.522a1.874,1.874,0,0,0-2.069.82c-.184.32-.356,1.045-.836,1.005a4.428,4.428,0,0,1-1.3-.683,12.2,12.2,0,0,1-4.168-4.053c-.276-.441-.854-1.08-.72-1.62a2.416,2.416,0,0,1,.344-.689,14.638,14.638,0,0,0,.824-1.365,10.551,10.551,0,0,0,.575-1.939,28.064,28.064,0,0,0,.729-3.979c.536.52,1.06,1.052,1.636,1.524a8.374,8.374,0,0,1,1.183,1.586,15.456,15.456,0,0,0,3.013,3.148,7.369,7.369,0,0,1,1.1.995,3.1,3.1,0,0,1,.667,2.271,5.553,5.553,0,0,1-.386,1.017A2.975,2.975,0,0,0,2273.7,1133.177Z" transform="translate(-2251.045 -1109.222)" fill="#fbbf9a"/>
            <path id="Path_119" data-name="Path 119" d="M2262.287,1163.065a.294.294,0,0,1,.1.11c.093.163-.013.517,0,.7a4.394,4.394,0,0,0,.178,1,6.039,6.039,0,0,0,.786,1.661,9.668,9.668,0,0,0,3.272,2.909,5.987,5.987,0,0,0,2.934.975,14.082,14.082,0,0,1-2.2,3.956,33.251,33.251,0,0,1-5.446-5.219,6.4,6.4,0,0,1-1.048-1.585,3.907,3.907,0,0,1,.412-3.726C2261.417,1163.612,2261.974,1162.87,2262.287,1163.065Z" transform="translate(-2248.011 -1145.863)" fill="#fff"/>
            <path id="Path_120" data-name="Path 120" d="M2336.761,1207.583a8.462,8.462,0,0,1-.439-3.2,2.911,2.911,0,0,0-.265-1.945q-.534.7-1.108,1.363a14.042,14.042,0,0,0-1.128,1.267c.237.192,1.957,1.7,2.2,1.933.114.109.232.214.355.312C2336.444,1207.364,2336.736,1207.509,2336.761,1207.583Z" transform="translate(-2312.393 -1180.488)" fill="#fff"/>
            <path id="Path_121" data-name="Path 121" d="M2291.91,1083.854c-.327.507-.777.931-1.062,1.463a4.373,4.373,0,0,0-.156,3.11c.111.438.22.981-.124,1.274-.273.232-.688.163-1.021.3a1.306,1.306,0,0,0-.575.512c-.467.7-.567,1.605-1.105,2.247a2.614,2.614,0,0,1-1.881.849,5.441,5.441,0,0,1-2.074-.385,18.332,18.332,0,0,1-4.672-2.652,2.813,2.813,0,0,1-1.222-1.487,3.281,3.281,0,0,1,.049-1.192c.108-.742-.577-1-1.017-1.509a7.085,7.085,0,0,1-1.321-6.212c-.037.146.6.784.745.846.374.156.72-.236,1.018-.415a4.933,4.933,0,0,1,1.63-.587,15.309,15.309,0,0,0,3.4-.672,21.93,21.93,0,0,0,2.611-1.751,6.54,6.54,0,0,1,3.57-.984,4.466,4.466,0,0,1,2.716.88C2293.141,1078.866,2293.014,1082.144,2291.91,1083.854Z" transform="translate(-2261.15 -1069.914)" fill="#fedecc"/>
            <path id="Path_122" data-name="Path 122" d="M2284.27,1030.342a4.152,4.152,0,0,0-1.842-.153c-.663.078-1.317.234-1.985.274-.341.02-1.493.08-1.7-.285a3.435,3.435,0,0,1-.061,3.039,3.56,3.56,0,0,1-1.3,1.651,7.086,7.086,0,0,1-1.746.618,7.855,7.855,0,0,0-2.825,1.538,4.063,4.063,0,0,0-.289-2.651,2.128,2.128,0,0,0-2.115-.956,2.1,2.1,0,0,0-1.233.716,1.592,1.592,0,0,0-.36,1.375,17.936,17.936,0,0,1-.829-2.185,9.423,9.423,0,0,1-.394-1.9,9.714,9.714,0,0,1,2.648-7.7,8.317,8.317,0,0,1,6.071-2.277,13.242,13.242,0,0,1,4.721.749,9.268,9.268,0,0,1,5.06,4.778c.5,1.026,1.228,3.155-.1,3.878-.592.322-1.117-.3-1.674-.494Z" transform="translate(-2254.146 -1021.44)" fill="#696371"/>
          </g>
        </g>
        <g id="Group_153" data-name="Group 153" transform="translate(92.961 0)">
          <g id="Group_151" data-name="Group 151">
            <path id="Path_123" data-name="Path 123" d="M2789.874,1937.653a16.866,16.866,0,0,0-2.718,2.534,6.675,6.675,0,0,0-.5.724c-.069.118-.209.585-.4.416a.393.393,0,0,1-.093-.162c-.029.155-.079.305-.114.459a6.983,6.983,0,0,0-.107,1.994,2.817,2.817,0,0,0,.7,1.812,3.558,3.558,0,0,0,2.207.722,8.555,8.555,0,0,0,2.26-.246,6.443,6.443,0,0,0,1.833-.637,7.664,7.664,0,0,0,.912-.649,5.038,5.038,0,0,0,.848-.824c.242-.3.592-.54.868-.823.521-.533,1.069-1.033,1.61-1.542a8.382,8.382,0,0,1,2.053-1.511c1.234-.594,2.738-.72,3.709-1.685a3.79,3.79,0,0,0,.445-4.239,1.575,1.575,0,0,0-.541-.693,1.706,1.706,0,0,0-1.129-.127,28.49,28.49,0,0,1-3.825.549c-.774,0-1.546-.148-2.318-.1a3.589,3.589,0,0,0-2.146.989c-.74.6-1.437,1.258-2.165,1.875Q2790.58,1937.08,2789.874,1937.653Z" transform="translate(-2785.922 -1821.634)" fill="#f27071"/>
            <path id="Path_124" data-name="Path 124" d="M2790.551,1927.2a16.91,16.91,0,0,0-2.718,2.534,5.061,5.061,0,0,0-1.208,3.432,2.808,2.808,0,0,0,.7,1.812,3.555,3.555,0,0,0,2.208.722,8.532,8.532,0,0,0,2.26-.246,6.427,6.427,0,0,0,1.833-.636,7.588,7.588,0,0,0,.912-.649,5.069,5.069,0,0,0,.849-.824c.242-.3.592-.54.868-.823.521-.533,1.068-1.033,1.609-1.542a8.4,8.4,0,0,1,2.054-1.511c1.233-.594,2.738-.719,3.709-1.685a3.791,3.791,0,0,0,.444-4.239,1.576,1.576,0,0,0-.542-.693,1.708,1.708,0,0,0-1.129-.127,28.441,28.441,0,0,1-3.824.549c-.774,0-1.546-.147-2.32-.1a3.592,3.592,0,0,0-2.145.988c-.739.6-1.437,1.258-2.164,1.876Q2791.254,1926.631,2790.551,1927.2Z" transform="translate(-2786.529 -1812.453)" fill="#cbd474"/>
            <path id="Path_125" data-name="Path 125" d="M2829.879,1950.423a.372.372,0,0,1-.282.209.332.332,0,0,1-.293-.142c-.046-.069-.108-.172-.182-.133-.039.02-.048.07-.054.113-.164,1.332-.433,2.78.765,3.712a4.708,4.708,0,0,0,1.621.756,9.694,9.694,0,0,0,7.572-1.015,6.656,6.656,0,0,0,1.54-1.241c.542-.608.929-1.337,1.434-1.975a8.676,8.676,0,0,1,2.071-1.835,12.49,12.49,0,0,0,2.115-1.493,4.3,4.3,0,0,0,1.209-3.216c-.1-1.919-1.517-3.458-3-4.527.018.651-.645,1.094-1.252,1.331a8.237,8.237,0,0,1-2.174.524,12.553,12.553,0,0,0-1.847.209,3.065,3.065,0,0,0-1.5,1.086c-.633.621-1.467,1.107-2.147,1.683a36.545,36.545,0,0,0-3.923,3.864q-.531.61-1.037,1.242c-.172.217-.346.434-.511.656C2829.957,1950.288,2829.92,1950.359,2829.879,1950.423Z" transform="translate(-2823.707 -1827.342)" fill="#f27071"/>
            <path id="Path_126" data-name="Path 126" d="M2830.239,1939.2l-.046.062a2.948,2.948,0,0,0-.908,2.216,2.347,2.347,0,0,0,.925,1.491,4.707,4.707,0,0,0,1.62.757,9.7,9.7,0,0,0,7.571-1.016,6.634,6.634,0,0,0,1.541-1.241c.542-.608.929-1.336,1.434-1.975a8.689,8.689,0,0,1,2.07-1.835,12.4,12.4,0,0,0,2.115-1.493,4.292,4.292,0,0,0,1.209-3.216c-.1-1.92-1.517-3.458-3-4.527.017.65-.646,1.095-1.252,1.332a8.251,8.251,0,0,1-2.174.524,12.526,12.526,0,0,0-1.847.208,3.066,3.066,0,0,0-1.5,1.086c-.633.621-1.467,1.107-2.148,1.683a36.682,36.682,0,0,0-3.922,3.864Q2831.045,1938.131,2830.239,1939.2Z" transform="translate(-2824.01 -1817.491)" fill="#cbd474"/>
            <path id="Path_127" data-name="Path 127" d="M2803.479,1656.26a28.4,28.4,0,0,1,1.061,3.482,5.476,5.476,0,0,1-.2,4.115,6.543,6.543,0,0,1-.591.87,25.251,25.251,0,0,1-3.417,3.2,15.035,15.035,0,0,0-1.66,1.638c-.266.315-.365.974.021,1.243a1.567,1.567,0,0,0,.53.225,3.174,3.174,0,0,0,1.622-.165,29.2,29.2,0,0,0,8.765-4.931c1.719-1.28,3.485-2.7,4.25-4.7.192-.5,0-.768-.271-1.182a26.1,26.1,0,0,1-3.871-13.256,55.688,55.688,0,0,1,.657-10.2,39.907,39.907,0,0,0,.557-4.555c.033-1.258,1.436-2.066,1.605-3.348a1.14,1.14,0,0,0-.167-.836,1.447,1.447,0,0,0-.41-.334,5.083,5.083,0,0,0-1.773-.758,5.252,5.252,0,0,0-2.657.4,34.065,34.065,0,0,0-3.522,1.587c-1.769.878-4.329,1.862-5.3,3.671a8.123,8.123,0,0,0-.915,3.464,19.239,19.239,0,0,0,.938,5.939A151.079,151.079,0,0,0,2803.479,1656.26Z" transform="translate(-2796.341 -1552.376)" fill="#fbbf9a"/>
            <path id="Path_128" data-name="Path 128" d="M2852.429,1673.375c.139.561.3,1.109.481,1.64.841,2.489,1.809,4.93,2.774,7.371a53.112,53.112,0,0,1,1.8,5.387,14.438,14.438,0,0,1,.628,3.619,9.6,9.6,0,0,1-.522,3.075,6.822,6.822,0,0,1-1.642,2.192l-3.5,3.969c-.489.554-2.388,2.348-1.185,3.088,1.522.935,3.781-.449,5.139-1.114a33.1,33.1,0,0,0,4.854-2.914,14.239,14.239,0,0,0,2.865-2.79,3.866,3.866,0,0,0,.825-2.948,16.863,16.863,0,0,1-.015-3.948c.337-3.374,1.3-6.811.568-10.2-.372-1.729-1.176-3.332-1.7-5.022a9.321,9.321,0,0,1-.47-2.885,4.362,4.362,0,0,1,1.059-2.363,11.471,11.471,0,0,0,1.446-2.159,14.826,14.826,0,0,1-3.454-1.259,14.314,14.314,0,0,1-2.966-2.19c-.459-.427-.848-.914-1.307-1.32a7.2,7.2,0,0,1-1.377-1.525c-.1-.163-.254-.356-.441-.31a.452.452,0,0,0-.192.129,13.7,13.7,0,0,0-3.693,5.49A12.963,12.963,0,0,0,2852.429,1673.375Z" transform="translate(-2842.991 -1582.282)" fill="#fedecc"/>
            <path id="Path_129" data-name="Path 129" d="M2829.672,1437.81a35.652,35.652,0,0,1-4.9,6.545c-2.257,2.448-12.315,13.943-12.676,14.7a5.306,5.306,0,0,1,2.175.9c.312.22.54.539.827.763s.6.019.858-.165l1.073-.748a39.08,39.08,0,0,0,4.655-3.609l-3.938,4.967c-.29.365-.406.607.133.714a26.716,26.716,0,0,1,2.967.765,14.667,14.667,0,0,1,2.445.995,12.469,12.469,0,0,1,2.042,1.388c.081.066.16.134.24.2a14.07,14.07,0,0,1,3.267,4.015,6,6,0,0,1,.525,1.155c.083.291.147.452.5.47a3.956,3.956,0,0,0,1.6-.6l18.871-7.935a19.138,19.138,0,0,0,4.391-2.314c3.148-2.437,4.479-6.662,4.376-10.641s-1.44-7.809-2.762-11.564a8.77,8.77,0,0,1-7.62,1.569,15.013,15.013,0,0,1-6.859-4.064,36.251,36.251,0,0,0-3.064-2.93,6.023,6.023,0,0,0-3.9-1.422c-.836.047-2.494,1.24-2.673-.255A21.141,21.141,0,0,1,2829.672,1437.81Z" transform="translate(-2808.924 -1380.131)" fill="#f27071"/>
            <path id="Path_130" data-name="Path 130" d="M2980.716,1211.676a5.283,5.283,0,0,0-1.251,1.925c-.411.912-.81,1.837-1.2,2.763-.761,1.852-1.485,3.719-2.149,5.614s-1.292,3.829-1.86,5.779c-.276.944-.577,1.9-.791,2.86a1.979,1.979,0,0,1-1.136,1.657,22.455,22.455,0,0,1-7.682,2.211c-.653.089-1.317.165-1.98.2a16.332,16.332,0,0,1-4.915-.33c-.087-.017-.16-.046-.246-.063-.417-.11-.821-.244-1.224-.391a9.673,9.673,0,0,1-2.847-1.724c-.036-.027-.071-.067-.107-.093a3.271,3.271,0,0,1-1.154-1.695,12.042,12.042,0,0,1,.1-2.5,10.2,10.2,0,0,0-.325-2.958,25.816,25.816,0,0,0-1.748-3.82,7.413,7.413,0,0,1-.769-4.427c.375-2.3,1.679-4.294,2.116-6.6.606-3.132.591-7.418,2.848-9.749a5.47,5.47,0,0,1,3.137-1.574,9.4,9.4,0,0,1,1.689-.132c.625-.028,1.246.005,1.854.026,1.366.074,2.746.137,4.113.211a6.127,6.127,0,0,0,1.857-.024,5.821,5.821,0,0,1,2.406-.031,3.672,3.672,0,0,0,.81.231c.153-.054.275-.7.144-.8.382.3.764.6,1.135.909a63.311,63.311,0,0,1,7.75,7.971,9.192,9.192,0,0,1,1.49,2.161C2981.1,1210.041,2981.334,1211.075,2980.716,1211.676Z" transform="translate(-2929.533 -1175.854)" fill="#fbf9ed"/>
            <path id="Path_131" data-name="Path 131" d="M2958.7,1203.911c-.493,1.506-.9,3.078-1.323,4.625q-.482,1.769-.909,3.55a109.287,109.287,0,0,0-2.21,12.436q-.371,3.138-.564,6.293c-.064,1.05-.067,2.108-.146,3.156-.067.891.055,1.779-.041,2.675a.337.337,0,0,1-.084.225.346.346,0,0,1-.246.056,3.913,3.913,0,0,1-1.366-.2,1.329,1.329,0,0,1-.866-1,2.066,2.066,0,0,1,.058-.619,22.709,22.709,0,0,0-.287-9.782c-.5-2-1.55-3.658-1.2-5.818.374-2.3,1.678-4.294,2.115-6.6.607-3.131.591-7.418,2.848-9.749a5.47,5.47,0,0,1,3.137-1.573,9.4,9.4,0,0,1,1.689-.132A6.8,6.8,0,0,1,2958.7,1203.911Z" transform="translate(-2929.618 -1178.671)" fill="#f59395"/>
            <path id="Path_132" data-name="Path 132" d="M2984.759,1209.02a3.273,3.273,0,0,0-.57,3.477,5.06,5.06,0,0,0-1.912-.565,2.221,2.221,0,0,1,.513,1.5c.4,4.967.087,9.97.474,14.938a160.517,160.517,0,0,1,3.59-16.84c.419-1.554.952-3.093,1.323-4.656C2987.357,1206.428,2985.24,1208.426,2984.759,1209.02Z" transform="translate(-2958.467 -1183.377)" fill="#fac6c7"/>
            <path id="Path_133" data-name="Path 133" d="M3076.381,1218.267a5.3,5.3,0,0,0-1.251,1.925c-.41.912-.809,1.837-1.2,2.763-.761,1.852-1.485,3.719-2.149,5.614-.694,1.991-1.514,4.057-2.022,6.088a27.627,27.627,0,0,0-.4,3.413l-.207,1.77c-.027.227-.015,1.4-.178,1.518a17.964,17.964,0,0,1-5.038,2.555,6.078,6.078,0,0,1-5.389-.889.9.9,0,0,1-.3-.364.981.981,0,0,1-.029-.394c.128-2.087.515-4.167.725-6.261.226-2.255.43-4.513.713-6.762a42.268,42.268,0,0,1,3.732-13.875c.838-1.661,1.846-3.238,2.611-4.941a23.021,23.021,0,0,0,1.13-4.274c.032-.148.04-.284.072-.407a63.326,63.326,0,0,1,7.751,7.971,9.193,9.193,0,0,1,1.489,2.161C3076.769,1216.631,3077,1217.665,3076.381,1218.267Z" transform="translate(-3025.199 -1182.444)" fill="#f59395"/>
            <path id="Path_134" data-name="Path 134" d="M3076.882,1203.506a5.843,5.843,0,0,1,.55,2.956,3.519,3.519,0,0,1-1.386,2.381l-1.968,1.9,1.891.529a63.418,63.418,0,0,0-5.486,7.834,24.3,24.3,0,0,0-3.156,8.973,37.64,37.64,0,0,1,1.826-11.953c.768-2.371,1.77-4.656,2.755-6.941.494-1.144.985-2.289,1.443-3.447a21.816,21.816,0,0,0,.872-2.408,4.616,4.616,0,0,0,.125-2.246,5.349,5.349,0,0,1,2.454,2.27C3076.83,1203.406,3076.856,1203.456,3076.882,1203.506Z" transform="translate(-3033.201 -1178.348)" fill="#fac6c7"/>
            <g id="Group_150" data-name="Group 150" transform="translate(26.752 27.715)">
              <path id="Path_135" data-name="Path 135" d="M3012.277,1242.481a134.174,134.174,0,0,0-4.518,30.389c-.417-.11-.822-.244-1.225-.391a134.6,134.6,0,0,1,4.54-30.337Z" transform="translate(-3006.534 -1242.142)" fill="#cbd474"/>
            </g>
            <path id="Path_136" data-name="Path 136" d="M3105.67,1178.553a1.3,1.3,0,0,0-.194-.052.77.77,0,0,0-.288-.008.691.691,0,0,0-.5.363,1.98,1.98,0,0,0-.085.592,3.824,3.824,0,0,1-.29.983,4.684,4.684,0,0,0-.381,1.021,2.454,2.454,0,0,0,.047.923,1.575,1.575,0,0,0,.544,1.006,1.145,1.145,0,0,0,1.155.029,2.046,2.046,0,0,0,.82-.87,2.205,2.205,0,0,0,.292-.951,3.262,3.262,0,0,0-.088-.753c-.13-.662.035-1.383-.469-1.922A1.414,1.414,0,0,0,3105.67,1178.553Z" transform="translate(-3065.343 -1158.487)" fill="#4b5b29"/>
            <path id="Path_137" data-name="Path 137" d="M3034.683,1168.557a6.656,6.656,0,0,0-.231.7c-.061.325,0,.858.357,1.006a.98.98,0,0,0,.513.022,2.482,2.482,0,0,1,.895-.012.839.839,0,0,1,.646.561,2.07,2.07,0,0,0,.064.3c.185.445,1.992-.193,2.349-.323a11.743,11.743,0,0,0,2.338-1.2,16.112,16.112,0,0,0,3.254-2.753,1.026,1.026,0,0,0,.332-.636,1.156,1.156,0,0,0-.179-.518c-1.11-2.15-.764-4.764-1.5-7.069a9.418,9.418,0,0,1-3.342,3.621,13.114,13.114,0,0,1-4.622,1.785,1.5,1.5,0,0,0-1.014.474,1.413,1.413,0,0,0-.184.637C3034.212,1166.323,3035.042,1167.377,3034.683,1168.557Z" transform="translate(-3004.217 -1141.051)" fill="#fbbf9a"/>
            <path id="Path_138" data-name="Path 138" d="M3017.015,1218.7a11.7,11.7,0,0,0-.307,2.67,2.431,2.431,0,0,0,.056.741c1.037-.907,2.477-1.162,3.708-1.782a4.49,4.49,0,0,1-1.057-2.307,19.808,19.808,0,0,1-.083-2.554,4.671,4.671,0,0,0-1.283,1.213A5.284,5.284,0,0,0,3017.015,1218.7Z" transform="translate(-2988.719 -1190.987)" fill="#cbd474"/>
            <path id="Path_139" data-name="Path 139" d="M3047.7,1193.3a26.442,26.442,0,0,0,5.449-3.125,11.727,11.727,0,0,0,2.458-2.619,9,9,0,0,0,.847-1.573,2.081,2.081,0,0,0,.265-1.545,5.023,5.023,0,0,0-.407-.788,8.516,8.516,0,0,1-.506-1.692,2.34,2.34,0,0,0-.931-1.455.924.924,0,0,1,.426.906,2.459,2.459,0,0,1-.376.984,14.076,14.076,0,0,1-6.866,6.4,10.427,10.427,0,0,1-2.025.573c-.423.075-.345.066-.132.317a5.151,5.151,0,0,1,.529,1.038C3046.533,1190.935,3047.686,1193.307,3047.7,1193.3Z" transform="translate(-3014.22 -1160.265)" fill="#cbd474"/>
            <path id="Path_140" data-name="Path 140" d="M2999.082,1079.383a9.116,9.116,0,0,0-1.46.423,1.066,1.066,0,0,1-.693.019c-.264-.142-.383-.609-.429-.886-1.332,1.959-1.337,4.167-1.385,6.437a22.813,22.813,0,0,0,1.518,9.025c.408,1.033.921,2.859,2.179,2.977a9.362,9.362,0,0,0,3.411-.443,12.964,12.964,0,0,0,3.575-1.537,6.95,6.95,0,0,0,2.572-2.87,1.431,1.431,0,0,1,.214-.378,1.843,1.843,0,0,1,.736-.374c1.912-.773,2.9-3.325,3.114-5.221a2.33,2.33,0,0,0-.138-1.307,1.407,1.407,0,0,1-.706.743c-.33.1-.6-.172-.927-.3a13.19,13.19,0,0,1-2.139-.772c-1.02-.62-1.476-1.837-2.192-2.793a6.774,6.774,0,0,0-3.261-2.281A10.374,10.374,0,0,0,2999.082,1079.383Z" transform="translate(-2969.742 -1071.014)" fill="#fedecc"/>
            <path id="Path_141" data-name="Path 141" d="M3072.357,1019.483a5.592,5.592,0,1,1-5.28-5.888A5.592,5.592,0,0,1,3072.357,1019.483Z" transform="translate(-3027.802 -1013.587)" fill="#59282f"/>
            <path id="Path_142" data-name="Path 142" d="M2997.959,1046.915c.338.208.469.632.735.926a1.946,1.946,0,0,0,1.9.392c.659-.159,1.273-.484,1.94-.609a2.786,2.786,0,0,1,1.841.257,2.092,2.092,0,0,1,1.076,1.481c.066.443-.032.9.054,1.34a2.784,2.784,0,0,0,1.119,1.541,7.322,7.322,0,0,1,1.454,1.282,3.006,3.006,0,0,1,.591,1.314q.13.9.26,1.8a.1.1,0,0,0,.025.064c.046.043.115-.019.144-.075a8.942,8.942,0,0,0,.6-1.961,3.026,3.026,0,0,1,1.282-1.988,1.628,1.628,0,0,1,1.38-.059c.771.322.7,1.492.622,2.169a9.741,9.741,0,0,0,.731-1.931,22.138,22.138,0,0,0,.576-2.68,10.8,10.8,0,0,0-.115-4.059,7.479,7.479,0,0,0-4.893-5.531,9.943,9.943,0,0,0-4.209-.433,10.748,10.748,0,0,0-2.9.683,9.59,9.59,0,0,0-5.746,6.818C2996.816,1047.183,2997.265,1046.49,2997.959,1046.915Z" transform="translate(-2970.895 -1036.887)" fill="#7e454e"/>
          </g>
          <g id="Group_152" data-name="Group 152" transform="translate(13.22 23)">
            <path id="Path_143" data-name="Path 143" d="M2903.448,1371.284a12.022,12.022,0,0,1-1.711.542,11.385,11.385,0,0,1-4.793.387.248.248,0,0,1-.135-.032.5.5,0,0,1-.08-.141,10.133,10.133,0,0,0-.97-1.859c-.346-.5-1.015-1.027-.754-1.71a2.808,2.808,0,0,1,.435-.649,90.313,90.313,0,0,0,6.128-8.462c.047,1.659.841,3.073,1.263,4.728A22.832,22.832,0,0,1,2903.448,1371.284Z" transform="translate(-2894.946 -1340.43)" fill="#f8b2b3"/>
            <path id="Path_144" data-name="Path 144" d="M2958.516,1203.486a5.287,5.287,0,0,0-1.974,1.251c-2.259,2.344-2.241,6.63-2.848,9.762-.382,1.973-1.4,3.736-1.9,5.665.134-.512.74-6.578.933-7.981a19.506,19.506,0,0,1,.878-4.132,8.352,8.352,0,0,1,4.84-4.792A1.64,1.64,0,0,0,2958.516,1203.486Z" transform="translate(-2944.898 -1203.258)" fill="#f8b2b3"/>
          </g>
        </g>
        <g id="Group_158" data-name="Group 158" transform="translate(34.643 48.023)">
          <g id="Group_154" data-name="Group 154" transform="translate(36.767 72.186)">
            <path id="Path_145" data-name="Path 145" d="M2620.192,2019.43h-.61a4.326,4.326,0,0,0-1.159-.938,9.355,9.355,0,0,0-8.466-.015,4.228,4.228,0,0,0-1.165.954h-.573v2.144h0a2.967,2.967,0,0,0,1.764,2.5,9.357,9.357,0,0,0,8.466.015,2.9,2.9,0,0,0,1.737-2.519h0v-2.144Z" transform="translate(-2608.217 -2015.948)" fill="#7c6a6e"/>
            <path id="Path_146" data-name="Path 146" d="M2618.434,2010.814a9.355,9.355,0,0,1-8.466-.015c-2.345-1.354-2.357-3.542-.026-4.887a9.354,9.354,0,0,1,8.465.015C2620.753,2007.281,2620.764,2009.469,2618.434,2010.814Z" transform="translate(-2608.202 -2004.907)" fill="#ece0c7"/>
          </g>
          <g id="Group_155" data-name="Group 155" transform="translate(39.386 47.388)">
            <path id="Path_147" data-name="Path 147" d="M2636.539,1808.582h-.342a2.438,2.438,0,0,0-.653-.528,5.263,5.263,0,0,0-4.764-.008,2.363,2.363,0,0,0-.656.537h-.322v25.7h0a1.67,1.67,0,0,0,.993,1.408,5.264,5.264,0,0,0,4.764.008,1.631,1.631,0,0,0,.978-1.417h0Z" transform="translate(-2629.801 -1806.623)" fill="#7c6a6e"/>
            <path id="Path_148" data-name="Path 148" d="M2635.553,1803.732a5.265,5.265,0,0,1-4.764-.008c-1.32-.762-1.327-1.993-.015-2.751a5.265,5.265,0,0,1,4.764.009C2636.858,1801.743,2636.866,1802.974,2635.553,1803.732Z" transform="translate(-2629.795 -1800.407)" fill="#ece0c7"/>
          </g>
          <g id="Group_157" data-name="Group 157">
            <path id="Path_149" data-name="Path 149" d="M2395.59,1538.285v7.088h-.042c.291,6.5-3.836,13.044-12.4,17.994-16.646,9.609-43.722,9.56-60.472-.111-8.413-4.853-12.615-11.212-12.615-17.557,0-.111.006-.215.006-.325v-7.088h4.093a30.2,30.2,0,0,1,8.323-6.816c16.646-9.608,43.723-9.561,60.472.11a30.991,30.991,0,0,1,8.281,6.706Z" transform="translate(-2309.447 -1510.388)" fill="#5e373f"/>
            <path id="Path_150" data-name="Path 150" d="M2395.635,1545.406v6.366c-1.43,4.936-5.433,9.664-12.014,13.459-16.881,9.747-44.344,9.7-61.329-.111-6.656-3.837-10.72-8.606-12.18-13.576v-6.139h4.093a30.223,30.223,0,0,1,8.323-6.816c16.646-9.609,43.723-9.56,60.471.111a31.013,31.013,0,0,1,8.281,6.7Z" transform="translate(-2309.492 -1516.646)" fill="#7c6a6e"/>
            <path id="Path_151" data-name="Path 151" d="M2383.1,1476.718c-16.647,9.611-43.723,9.562-60.474-.109s-16.836-25.3-.189-34.915,43.722-9.562,60.474.109S2399.744,1467.105,2383.1,1476.718Z" transform="translate(-2309.396 -1431.497)" fill="#ece0c7"/>
            <g id="Group_156" data-name="Group 156">
              <path id="Path_152" data-name="Path 152" d="M2391.832,1514.855h-4.414a31.419,31.419,0,0,0-8.4-6.8c-16.99-9.809-44.448-9.859-61.331-.112a30.629,30.629,0,0,0-8.442,6.909h-4.15v2.374h0c-.149,6.543,4.108,13.127,12.783,18.136,16.99,9.808,44.448,9.858,61.332.111,8.69-5.017,12.872-11.652,12.58-18.247h.036Z" transform="translate(-2305.085 -1489.627)" fill="#7c6a6e"/>
              <path id="Path_153" data-name="Path 153" d="M2379.127,1452.412c-16.884,9.747-44.343,9.7-61.332-.111s-17.075-25.662-.192-35.41,44.342-9.7,61.331.111S2396.01,1442.664,2379.127,1452.412Z" transform="translate(-2304.997 -1409.613)" fill="#fbf9ed"/>
              <path id="Path_154" data-name="Path 154" d="M2904.514,1644.963a25.084,25.084,0,0,1-5.6,5.838,17.727,17.727,0,0,1-1.659-1.407,15.521,15.521,0,0,1-4.1-6.605,12.263,12.263,0,0,0-.935-2.467c-.283-.515-.6-1.176-.02-1.606.63-.483,1.606-.094,2.278.083a8.921,8.921,0,0,1,2.352.914,23.322,23.322,0,0,1,2.079,1.607C2900.66,1642.684,2902.814,1643.567,2904.514,1644.963Z" transform="translate(-2820.708 -1610.729)" fill="#d5b0ad"/>
              <path id="Path_155" data-name="Path 155" d="M2795.3,1718.768a53.15,53.15,0,0,1-7.539,2.8,12.608,12.608,0,0,0-1.092-2.636c-.725-1.28-1.744-2.362-2.584-3.57a9.559,9.559,0,0,1-.977-1.722,3.274,3.274,0,0,1-.409-1.963.38.38,0,0,1,.557-.221c.21.136.157.3.21.515a1.692,1.692,0,0,0,1.05,1.166,4.315,4.315,0,0,0,1.638.262,25.026,25.026,0,0,0,3.665-.2,5.694,5.694,0,0,0,1.1-.21,3.283,3.283,0,0,0,2.121-2.353,4.852,4.852,0,0,1,1.512,2.867c.21,1.082.21,2.195.325,3.287A8.415,8.415,0,0,0,2795.3,1718.768Z" transform="translate(-2724.726 -1674.137)" fill="#d5b0ad"/>
              <path id="Path_156" data-name="Path 156" d="M2368.015,1479.792l14.788-8.538-20.826-12.024-14.787,8.538Z" transform="translate(-2342.073 -1453.214)" fill="#fff"/>
              <path id="Path_157" data-name="Path 157" d="M2488.614,1427.638a4.6,4.6,0,0,1-1.47,3.066,4.672,4.672,0,0,1-2.163.945,3.364,3.364,0,0,1-2.132-.168c-.336-.157-.619-.409-.945-.6-.431-.241-.966-.073-1.324-.357-.472-.368-.524-1.281-.588-1.827a7.305,7.305,0,0,1-.053-1.723,2.513,2.513,0,0,1,.684-1.533c.388-.368.84-.336.913-.913a3.272,3.272,0,0,0-.483-1.785c-.063-.126-.136-.252-.21-.388a57.127,57.127,0,0,1,7.077-1.817c.032.221.063.43.085.641.115,1,.251,2,.4,2.993A13.76,13.76,0,0,1,2488.614,1427.638Z" transform="translate(-2458.697 -1419.214)" fill="#d5b0ad"/>
              <path id="Path_158" data-name="Path 158" d="M2331.193,1542.218a7.714,7.714,0,0,1-4.106,1.376,17.607,17.607,0,0,1-8.6-1.3c-1.438-.6-2.782-1.407-4.221-1.974a18.165,18.165,0,0,1,2.121-3.823,10.11,10.11,0,0,1,1.239.421c1.313.525,2.562,1.229,3.906,1.669a15.752,15.752,0,0,0,3.948.714,19.279,19.279,0,0,1,3.476.42C2329.816,1539.939,2332.525,1541.073,2331.193,1542.218Z" transform="translate(-2313.142 -1521.109)" fill="#d5b0ad"/>
            </g>
          </g>
        </g>
        <g id="Group_159" data-name="Group 159" transform="translate(14 22.621)">
          <path id="Path_159" data-name="Path 159" d="M2426.852,1224.739c-.031,1.459-.146,2.909-.3,4.358-.074.735-.168,1.47-.263,2.205-.042.357,0,1.344-.588,1.3a1.083,1.083,0,0,1-.619-.347,3.881,3.881,0,0,0-1.67-.987,1.823,1.823,0,0,0-1.06.063c-.272.105-.5.326-.735.021a3.582,3.582,0,0,1-.262-.9c-.147-.483-.326-.945-.463-1.428-.5-1.848-1.07-3.675-1.585-5.513a6.562,6.562,0,0,0-1.051-2.226,27.9,27.9,0,0,0-2.72-2.509l-2.961-2.741c.315-3.161.64-6.311.955-9.472.147-1.46.472-3.5-.357-4.82a3.185,3.185,0,0,0-1.177-.966c-.4-.231-.8-.441-1.207-.641a6.749,6.749,0,0,1,2.72,1.575,21.855,21.855,0,0,1,2.458,3.476c2.037,2.909,4.157,5.765,6.248,8.642,1.008,1.376,2.016,2.783,3,4.158a8.122,8.122,0,0,1,1.553,4.085c.011.053.011.1.021.168C2426.843,1223.07,2426.863,1223.9,2426.852,1224.739Z" transform="translate(-2377.315 -1200.136)" fill="#fff"/>
          <path id="Path_160" data-name="Path 160" d="M2479.178,1443.572a2.325,2.325,0,0,1-1.279,1.457c-.381.164-.8.217-1.194.351a11.867,11.867,0,0,1-1.21.463,1.121,1.121,0,0,1-1.173-.339.465.465,0,0,0-.134-.157.361.361,0,0,0-.2-.026l-.65.045a.535.535,0,0,1-.344-.054.426.426,0,0,1-.146-.36,1.984,1.984,0,0,1,.375-.978q.508-.838,1.015-1.676a2.96,2.96,0,0,0,.414-.894,1.007,1.007,0,0,0-.22-.924.608.608,0,0,0-.406-.182.767.767,0,0,0-.642.49,3.957,3.957,0,0,0-.165,1.716,5.717,5.717,0,0,1-.4,2.1c-.052.132-.141.285-.283.283a.3.3,0,0,1-.208-.114,2.323,2.323,0,0,1-.342-1.091,5.535,5.535,0,0,0-.616-1.324,1.958,1.958,0,0,1-.289-.888,1.834,1.834,0,0,1,.1-.566,2.55,2.55,0,0,1,1.164-1.583c.554-.277,1.226-.227,1.749-.578.293-.2.393-.552.6-.818,1.2-1.5,4.108-.931,4.514,1.006a6.282,6.282,0,0,1-.013,1.4,15.277,15.277,0,0,0,.149,1.654A3.944,3.944,0,0,1,2479.178,1443.572Z" transform="translate(-2430.293 -1408.343)" fill="#fbbf9a"/>
          <path id="Path_161" data-name="Path 161" d="M2479.843,1429.727l4.375-10.807,1.028.613-5.536,10.676Z" transform="translate(-2437.881 -1392.39)" fill="#424c63"/>
          <path id="Path_162" data-name="Path 162" d="M2304.936,1514.825a7.586,7.586,0,0,1,1.816.119,6.194,6.194,0,0,1,1.574.723l4.056,2.34c.3.171.627.4.643.738.006.127-.036.254-.033.381.005.257.185.476.244.726a.8.8,0,0,1-1.059.926,1.375,1.375,0,0,1-1.218.646,3.064,3.064,0,0,1-1.375-.407,1.924,1.924,0,0,1-1.25.678,4.981,4.981,0,0,1-1.451-.049,32.362,32.362,0,0,1-7.2-1.983c-1.229-.481-2.436-1.014-3.628-1.578-.51-.241-1.062-.448-1.554-.717-.393-.216-.995-.37-1.218-.791a1.136,1.136,0,0,1,.177-1.128,9.494,9.494,0,0,0,.708-.965,3.255,3.255,0,0,0,.262-.948,1.02,1.02,0,0,1,.293-.665.969.969,0,0,1,.618-.138,10.533,10.533,0,0,1,1.377.111,2.271,2.271,0,0,1,.635.127c.154.073.3.209.448.3a7.971,7.971,0,0,0,1.607.644,17.6,17.6,0,0,0,3.488.786A17.377,17.377,0,0,0,2304.936,1514.825Z" transform="translate(-2273.982 -1474.827)" fill="#fedecc"/>
          <path id="Path_163" data-name="Path 163" d="M2158.535,1283.971c.1-.538-.78-.718-1.109-.851-.718-.287-11.53-4.532-13.41-6.439a12.383,12.383,0,0,0,.117-1.44c.118-2.761.553-5.5.739-8.258a21.605,21.605,0,0,0-.749-8.206,14.085,14.085,0,0,0-2.311-4.3,6.63,6.63,0,0,0-2.758-2.2c-3.063-1.142-3.241,2.939-3.582,4.894a58.521,58.521,0,0,0-.567,8.3c-.139,4.547-.4,9.276.514,13.757.789,3.853,4.927,5.659,8.193,7.116a39.861,39.861,0,0,0,7.008,2.5,21.664,21.664,0,0,0,2.578.45q.65.072,1.3.1a3.544,3.544,0,0,0,1.214-.012c.34-.12.358-.433.291-.74a5.021,5.021,0,0,1,.136-2.851,2.706,2.706,0,0,1,1.213-1.641,1.536,1.536,0,0,1,1.041-.057.12.12,0,0,0,.081.005.1.1,0,0,0,.045-.063C2158.526,1284.009,2158.531,1283.99,2158.535,1283.971Z" transform="translate(-2134.76 -1245.775)" fill="#fff"/>
        </g>
        <path id="Path_164" data-name="Path 164" d="M2709.978,1492.6l-14.788-8.537,20.827-12.024,14.788,8.538Z" transform="translate(-2613.232 -1416.447)" fill="#fff"/>
        <path id="Path_165" data-name="Path 165" d="M2853.2,1467.363a17.431,17.431,0,0,1-6.216,2.363,6.146,6.146,0,0,1-1.512.105.208.208,0,0,1-.158-.073c-.031-.042-.01-.095,0-.148.063-.241.127-.472.19-.714-.526-.031-.956.378-1.439.6a3.92,3.92,0,0,1-1.564.263l-1.534.063a1.413,1.413,0,0,1-1.48-.7,1.336,1.336,0,0,1,.472-1.439,3.967,3.967,0,0,1,1.292-.557c2.174-.756,3.843-2.457,5.712-3.8.536.284,1.071.567,1.586.871A36.348,36.348,0,0,1,2853.2,1467.363Z" transform="translate(-2739.971 -1408.785)" fill="#d5b0ad"/>
        <path id="Path_166" data-name="Path 166" d="M2918.694,1530.532a22.942,22.942,0,0,1-4.725.094,9.512,9.512,0,0,1-5.051-1.921,5.583,5.583,0,0,0-1.386-.988c-.5-.2-1.166-.21-1.47-.745-.284-.494.2-.925.662-1.071a3.536,3.536,0,0,1,1.155-.063,27.523,27.523,0,0,0,7.4-.777A19.443,19.443,0,0,1,2918.694,1530.532Z" transform="translate(-2798.459 -1463.039)" fill="#d5b0ad"/>
        <g id="Group_160" data-name="Group 160" transform="translate(98.16 32.35)">
          <path id="Path_167" data-name="Path 167" d="M2838.85,1432.974a2.378,2.378,0,0,0-1.663.186,6.278,6.278,0,0,0-1.249,1.081,10.2,10.2,0,0,1-.947.7,55.1,55.1,0,0,0-5.142,4.1c-.2.181-.378.413-.588.58-.167.132-.356.2-.437.42a.469.469,0,0,0,.112.489c.127.122.4.124.5.245.053.065.039.233.068.323a.905.905,0,0,0,.221.38c.027.025.367.244.388.18a1,1,0,0,0,.125.922c.34.423.814.2,1.187-.027a.216.216,0,0,1,.114-.042.25.25,0,0,1,.13.064,1.071,1.071,0,0,0,.871.14,2.753,2.753,0,0,0,.822-.383,13.582,13.582,0,0,0,2.13-1.645,6.689,6.689,0,0,1,1.332-1.1.11.11,0,0,1,.05-.017c.071,0,.069.11.037.174a5.028,5.028,0,0,1-.841.935,2.926,2.926,0,0,0-.82,1.567c-.019.173.01.386.168.458a.477.477,0,0,0,.308,0,2.975,2.975,0,0,0,1.21-.487,7.709,7.709,0,0,0,.822-.992c.461-.519,1.139-.829,1.531-1.4.734-1.077.2-2.639.839-3.772a3.386,3.386,0,0,0,.4-.728,1.318,1.318,0,0,0-.019-.676A2.377,2.377,0,0,0,2838.85,1432.974Z" transform="translate(-2828.796 -1414.403)" fill="#fbbf9a"/>
          <path id="Path_168" data-name="Path 168" d="M2912.84,1502.168a13.149,13.149,0,0,0-2.89.714,18,18,0,0,0-4.179,1.555,1.5,1.5,0,0,0-.527.469.6.6,0,0,0,.005.668,1.023,1.023,0,0,0-.648.667.589.589,0,0,0,.455.721c.112.01.226-.021.338-.009a1.078,1.078,0,0,1,.353.14,2.289,2.289,0,0,0,1.992.022.907.907,0,0,0,.5.788,2.452,2.452,0,0,0,.94.249,22.436,22.436,0,0,0,10.166-1.267,3.737,3.737,0,0,1-.805-1.687c-.083-.434-.089-.88-.177-1.314a1.822,1.822,0,0,0-.47-.985.422.422,0,0,0-.334-.094,4.909,4.909,0,0,1-.624-.077c-.87-.142-1.724-.37-2.6-.493A7.149,7.149,0,0,0,2912.84,1502.168Z" transform="translate(-2895.396 -1475.26)" fill="#fedecc"/>
          <path id="Path_169" data-name="Path 169" d="M3014.549,1302.425a2.49,2.49,0,0,1-.4,1.089,2.984,2.984,0,0,1-.837.917,5.06,5.06,0,0,1-1.091.458c-.362.121-.734.215-1.1.312-1.211.316-9.555,2.047-10.281,2.182l-.652.12c-.077.014-.6.051-.531.215.019.046.165.069.211.086a2.961,2.961,0,0,1,.464.221,2.39,2.39,0,0,1,.741.665,2.656,2.656,0,0,1,.448,1.2,4.88,4.88,0,0,1-.024,1.286,2.848,2.848,0,0,1-.258.942.77.77,0,0,1-.506.457c-.037.006-.1-.012-.13.008-.158.1.4.571.489.621a1.7,1.7,0,0,0,.8.2c.481.016.963.011,1.443-.008.948-.037,1.893-.129,2.837-.221q4.838-.475,9.673-.985a16.823,16.823,0,0,0,2.63-.42,4.256,4.256,0,0,0,2.626-2.624,51.483,51.483,0,0,0,2.881-9.581c.5-2.554,1.272-5.041,1.865-7.572a17.056,17.056,0,0,0,.432-7.257c-.286-1.328-.847-3.466-2.173-4.106a3.082,3.082,0,0,0-1.385-.26,4.953,4.953,0,0,0-2.809.891,8.453,8.453,0,0,0-3,4.782,34.018,34.018,0,0,0-.815,5.735c-.044.475-.646,5.542-.986,7.587Q3014.85,1300.9,3014.549,1302.425Z" transform="translate(-2978.928 -1280.367)" fill="#f8b2b3"/>
        </g>
        <g id="Group_169" data-name="Group 169" transform="translate(92.578 46.461)">
          <path id="Path_170" data-name="Path 170" d="M2823.545,2184.775c-.264-.083-.3-.583-.222-.785a.505.505,0,0,0-.377.195,1.157,1.157,0,0,0-.195.39,4.128,4.128,0,0,0,.807,3.755,11.4,11.4,0,0,0,3.051,3.052,11.973,11.973,0,0,0,3.979,1.216,14.7,14.7,0,0,1,4.763,1.622c1.638.982,3.232,2.5,5.313,2.057a2.826,2.826,0,0,0,2.374-2.165,6.4,6.4,0,0,0-.2-3.589.252.252,0,0,0-.08.124c-.128.311-.2-.064-.235-.175a4.943,4.943,0,0,0-.334-.692,9.111,9.111,0,0,0-.763-1.21q-.215-.287-.451-.556c-.1-.116-.463-.376-.494-.517.121.544-.53,1.122-.954,1.371a2.333,2.333,0,0,1-1.246.323c-.539-.017-.773-.391-1.127-.766-.7-.744-1.359-1.646-2.11-2.329a7.885,7.885,0,0,0-3.1-1.343,16.568,16.568,0,0,0-5.478-.465,15.573,15.573,0,0,0-1.947.2,4.083,4.083,0,0,0-.513.138c-.11.038-.283.17-.394.166A.245.245,0,0,1,2823.545,2184.775Z" transform="translate(-2817.751 -2088.527)" fill="#556282"/>
          <path id="Path_171" data-name="Path 171" d="M2825.366,2175.6a1.337,1.337,0,0,0-.693,1.216,4.175,4.175,0,0,0,.728,2.271,11.38,11.38,0,0,0,3.05,3.053,11.97,11.97,0,0,0,3.979,1.215,14.713,14.713,0,0,1,4.762,1.622c1.638.981,3.232,2.5,5.314,2.058a2.827,2.827,0,0,0,2.374-2.165,5.219,5.219,0,0,0-.127-2.5,9.031,9.031,0,0,0-2.427-4.112c.121.544-.53,1.122-.954,1.371a2.345,2.345,0,0,1-1.246.324c-.539-.018-.773-.392-1.127-.766-.7-.744-1.359-1.646-2.109-2.33a7.893,7.893,0,0,0-3.1-1.344,16.588,16.588,0,0,0-5.479-.464A7.248,7.248,0,0,0,2825.366,2175.6Z" transform="translate(-2819.592 -2080.619)" fill="#424c63"/>
          <path id="Path_172" data-name="Path 172" d="M2867.636,2016.083a1.3,1.3,0,0,1,.5-.777c.526-.291,1.111.224,1.558.625a5.543,5.543,0,0,0,5.8.926c1.018,2.659.392,5.631-.244,8.406l-1.759,7.665a20.379,20.379,0,0,0-.628,3.833,11.715,11.715,0,0,0,.626,3.7,1.483,1.483,0,0,1-.344,1.644,1.833,1.833,0,0,1-1.322.366,6.614,6.614,0,0,1-2.049-.552c-3.452-1.357-6.9-2.715-10.344-4.1a3.139,3.139,0,0,1-.839-.439,1.182,1.182,0,0,1-.4-.589c-.084-.3.055-.425.3-.587a2.582,2.582,0,0,1,.986-.341,18.52,18.52,0,0,1,3.229-.176,8.8,8.8,0,0,0,1.623-.048c.415-.081.464-.422.684-.746a4.336,4.336,0,0,0,.563-1.176,10.714,10.714,0,0,0,.323-2.786C2866.048,2026.053,2866.036,2020.791,2867.636,2016.083Z" transform="translate(-2849.018 -1940.222)" fill="#fbbf9a"/>
          <path id="Path_173" data-name="Path 173" d="M2789.591,2211.329c1.117.077,2.188.31,3.3.482,1.877.291,3.755.59,5.609,1.014a1.069,1.069,0,0,1,.357.128,1.1,1.1,0,0,1,.354.541c.307.763.982,3.232,2.2,2.58a.9.9,0,0,0,.449-.939,5.026,5.026,0,0,1,1.508,2.186,7.869,7.869,0,0,1,.417,3.912c-.427,2.286-2.948,2.989-4.978,2.529a7.415,7.415,0,0,1-3.594-2.125,4.583,4.583,0,0,0-1.5-1.148c-2.311-.855-4.785-1.258-6.857-2.677a6.6,6.6,0,0,1-2.708-5.981c.035-.376.13-.914.5-1.1.131.225.1.685.369.782s.833-.264,1.126-.3A18.1,18.1,0,0,1,2789.591,2211.329Z" transform="translate(-2783.958 -2112.02)" fill="#424c63"/>
          <path id="Path_174" data-name="Path 174" d="M2790.359,2201.806c1.117.078,2.188.311,3.3.483,1.877.29,3.755.589,5.609,1.013a1.042,1.042,0,0,1,.357.129,1.09,1.09,0,0,1,.354.54c.306.762.982,3.233,2.2,2.581a.906.906,0,0,0,.449-.94,5.029,5.029,0,0,1,1.508,2.187,7.878,7.878,0,0,1,.417,3.911c-.427,2.286-2.947,2.988-4.978,2.529a7.411,7.411,0,0,1-3.594-2.126,4.587,4.587,0,0,0-1.5-1.148c-2.311-.855-4.785-1.257-6.858-2.677a6.131,6.131,0,0,1-2.626-4.409,2.111,2.111,0,0,1,.756-1.8,2.479,2.479,0,0,1,1.163-.394A18.409,18.409,0,0,1,2790.359,2201.806Z" transform="translate(-2784.726 -2104.032)" fill="#556282"/>
          <path id="Path_175" data-name="Path 175" d="M2825.065,1958.366l-.21-.109a25.611,25.611,0,0,1-2.581-1.477,5.957,5.957,0,0,1-1.819-1.751.617.617,0,0,1-.122-.451c.067-.268.413-.338.69-.336,1.54.007,3.056.57,4.589.429.8-.073.828-.8.874-1.451.219-3.1-1.072-6.07-1.908-9.061-1.376-4.923-1.537-10.092-1.69-15.2a31.414,31.414,0,0,1,.134-5.233,6.331,6.331,0,0,1,1.009-2.906,2.93,2.93,0,0,1,2.664-1.284,16.877,16.877,0,0,0,5.035,11.991c.455.442,1.094,1.31,1.685,1.54.227.089,1.629-.02,1.519-.44a34.247,34.247,0,0,1,.9,9.849c-.1,3.144-1.407,6.149-1.9,9.244a11.908,11.908,0,0,0,.134,5.031c.313,1.139,1.894,3.569-.059,4.06a5.857,5.857,0,0,1-2.357.018A22.376,22.376,0,0,1,2825.065,1958.366Z" transform="translate(-2815.77 -1856.119)" fill="#fedecc"/>
          <g id="Group_162" data-name="Group 162" transform="translate(14.609 75.808)">
            <g id="Group_161" data-name="Group 161">
              <path id="Path_176" data-name="Path 176" d="M2903.907,2063.268h0a1.039,1.039,0,0,0,1.345-.591l15.336-39.323-3.729-1.456-13.558,40.069A1.039,1.039,0,0,0,2903.907,2063.268Z" transform="translate(-2903.246 -2021.898)" fill="#ae8e8b"/>
            </g>
          </g>
          <g id="Group_163" data-name="Group 163" transform="translate(63.429 81.384)">
            <path id="Path_177" data-name="Path 177" d="M3322.525,2107.8h0a1.038,1.038,0,0,1-1.345-.59l-15.336-39.324,5.285,3.14,12,35.474A1.04,1.04,0,0,1,3322.525,2107.8Z" transform="translate(-3305.844 -2067.882)" fill="#ae8e8b"/>
          </g>
          <g id="Group_165" data-name="Group 165" transform="translate(42.885 94.878)">
            <g id="Group_164" data-name="Group 164">
              <path id="Path_178" data-name="Path 178" d="M3145.007,2222.178h0a1.039,1.039,0,0,0,.9-1.166l-5.507-41.848-3.969.521,7.423,41.645A1.038,1.038,0,0,0,3145.007,2222.178Z" transform="translate(-3136.427 -2179.165)" fill="#ae8e8b"/>
            </g>
          </g>
          <g id="Group_168" data-name="Group 168">
            <path id="Path_179" data-name="Path 179" d="M2956.157,1966.517h0c-8.7,5.024-7.611,13.8,2.438,19.6l13.124,7.576,31.514-18.2-13.123-7.576C2980.061,1962.123,2964.86,1961.492,2956.157,1966.517Z" transform="translate(-2929.97 -1894.444)" fill="#decdc6"/>
            <g id="Group_167" data-name="Group 167">
              <path id="Path_180" data-name="Path 180" d="M3063.976,1446.565a2.952,2.952,0,0,0-.184.947c.008.377.151.74.185,1.116a9.735,9.735,0,0,1-.385,2.5,11.928,11.928,0,0,0-.222,2.783,5.6,5.6,0,0,0,1.829,4.058c.322.263.683.477.993.754a4.225,4.225,0,0,1,1.134,1.819,5.617,5.617,0,0,1,.207,3.38,3.243,3.243,0,0,0,.043,2.443,2.752,2.752,0,0,0,1.668,1.274,6.753,6.753,0,0,0,2.135.208,26.26,26.26,0,0,0,5.477-.707,6.739,6.739,0,0,0,1.944-.711,3.87,3.87,0,0,0,1.35-1.383,1.345,1.345,0,0,0,.218-.7,1.981,1.981,0,0,0-.2-.639c-.775-1.88-.236-4,.028-6.021a.746.746,0,0,0-.089-.584.794.794,0,0,0-.286-.185,5.557,5.557,0,0,1-1.407-.974c-.387-.364-.333-.721-.42-1.241q-.3-1.805-.7-3.595a.882.882,0,0,0-.191-.444.942.942,0,0,0-.425-.2,10.114,10.114,0,0,1-4.384-2.918c-1.219-1.293-2.231-2.762-3.339-4.151a2.786,2.786,0,0,0-1.316-1.068C3065.264,1441.658,3064.475,1445,3063.976,1446.565Z" transform="translate(-3029.332 -1436.718)" fill="#fedecc"/>
              <path id="Path_181" data-name="Path 181" d="M3094.984,1405.5a9.621,9.621,0,0,0-4.316-4.629,12.553,12.553,0,0,0-11.213-.187,7.627,7.627,0,0,0-4.1,7.963,27.644,27.644,0,0,1,.338,4.37c.008.5.06,1.005.051,1.5a10.709,10.709,0,0,0-.059,1.736,7.729,7.729,0,0,1,.592-1.5,2.585,2.585,0,0,1,1.137-1.115c1.1-.5,1.826.388,2.461,1.174a24.131,24.131,0,0,1,1.693,2.8l-.995-1.906a37.645,37.645,0,0,0,1.94,3.462,6.538,6.538,0,0,0,3.392,2.567c3.675,1.141,6.786-1.535,8.292-4.67a15.944,15.944,0,0,0,1.409-5.6A12.028,12.028,0,0,0,3094.984,1405.5Z" transform="translate(-3039.785 -1399.127)" fill="#413d46"/>
              <ellipse id="Ellipse_11" data-name="Ellipse 11" cx="7.326" cy="7.326" rx="7.326" ry="7.326" transform="translate(45.115)" fill="#696371"/>
              <g id="Group_166" data-name="Group 166" transform="translate(13.397 25.744)">
                <path id="Path_182" data-name="Path 182" d="M2904.959,1615.751a14.381,14.381,0,0,0-.229-1.621c-.215-.756-.74-1.39-1-2.132a18.984,18.984,0,0,1-.411-2.233c-.07-.317-.232-.681-.554-.725-.364-.05-.625.347-.726.7a4.613,4.613,0,0,0,.136,2.636c.065.206.126.465-.034.61a.476.476,0,0,1-.369.081,2.892,2.892,0,0,1-1.08-.393c-.708-.388-1.37-.853-2.084-1.229a4.894,4.894,0,0,0-2.3-.654.9.9,0,0,0-.39.071c-.122.059-.214.164-.328.235a1.832,1.832,0,0,1-1.159.058c-.394-.04-.892.078-.975.465a3.4,3.4,0,0,0-.02.35,3.912,3.912,0,0,1-.16.527,1.023,1.023,0,0,0,.319,1.009.689.689,0,0,1,.224.237.6.6,0,0,1,.017.26,2.284,2.284,0,0,0,.52,1.468,7.329,7.329,0,0,0,1.139,1.1,18.2,18.2,0,0,0,5.321,3.636c1.532.549,3.259.639,4.6,1.559a2.793,2.793,0,0,1-.095-1.632,3.886,3.886,0,0,1,.612-1,2.019,2.019,0,0,0,.46-1.069c.019-.546-.338-.692-.715-.951A2.021,2.021,0,0,1,2904.959,1615.751Z" transform="translate(-2893.244 -1609.035)" fill="#fbbf9a"/>
                <path id="Path_183" data-name="Path 183" d="M2978.214,1673.37a2.37,2.37,0,0,0-1.066-.4,1.585,1.585,0,0,0-.785.226,4.362,4.362,0,0,0-2.24,3.2c-.039.276-.05.554-.062.832a.7.7,0,0,0,.039.328.664.664,0,0,0,.195.215,13.505,13.505,0,0,0,1.783,1.2,26.828,26.828,0,0,0,6.594,2.719.878.878,0,0,0,.532.024,3.439,3.439,0,0,1-.291-2.386,5.57,5.57,0,0,1,.728-1.281c.172-.264.308-.557.453-.836.173-.331.46-.616.482-1a.28.28,0,0,0-.027-.159.3.3,0,0,0-.138-.1c-1.215-.567-2.491-.983-3.743-1.458-.624-.237-1.243-.488-1.843-.778C2978.623,1673.618,2978.421,1673.492,2978.214,1673.37Z" transform="translate(-2964.259 -1665.22)" fill="#fff"/>
              </g>
              <path id="Path_184" data-name="Path 184" d="M2897.216,1880.348a15.784,15.784,0,0,1-5.665,11.744c-4.236,3.58-9.246,4.172-14.628,3.908a39.72,39.72,0,0,1-8.452-1.351,47.175,47.175,0,0,1-15.318-7.514q-1.688-1.231-3.281-2.587a14.146,14.146,0,0,1-3.756-4.337,6.976,6.976,0,0,1-.013-6.23,12.484,12.484,0,0,1,3.266-3.69c2.665-2.191,5.479-3.8,9-3.646a89.485,89.485,0,0,1,11.785,1.29c3.651.646,7.364,1.012,11.007,1.85a56.265,56.265,0,0,1,9.825,3.234,16.313,16.313,0,0,1,4.594,2.738,6.411,6.411,0,0,1,1.564,1.836A7.464,7.464,0,0,1,2897.216,1880.348Z" transform="translate(-2837.783 -1809.655)" fill="#33332f"/>
              <path id="Path_185" data-name="Path 185" d="M2999.276,1616.6a63.32,63.32,0,0,1,6.108-4.147,54.767,54.767,0,0,1,8.43-4.13c1.45-.557,2.925-1,4.413-1.44a13.428,13.428,0,0,1,2.715-.382c.692-.059,1.357-.258,2.051-.335l.094-.01c3.715-.386,6.067,1.972,7.144,5.361,1.021,3.211.77,6.713.33,10-.428,3.192-1.121,6.344-1.521,9.539a52.429,52.429,0,0,0-.374,8.381c.05,1.4.724,2.969-.327,4.1a16.613,16.613,0,0,1-3.575,2.97,17.348,17.348,0,0,1-5.586,1.968,22.321,22.321,0,0,1-9.314-.533,14.828,14.828,0,0,1-4.371-1.729,7.544,7.544,0,0,1-2.571-2.625c-.676-1.205-.191-2.669-.074-4a18.529,18.529,0,0,0-.835-8.7c-1.354-3.3-4.282-5.925-4.911-9.435a4.591,4.591,0,0,1,.284-2.854A6.179,6.179,0,0,1,2999.276,1616.6Z" transform="translate(-2971.023 -1580.727)" fill="#f3f3f3"/>
              <path id="Path_186" data-name="Path 186" d="M3085.47,1596.128a2.58,2.58,0,0,1-.813,2.353,3.392,3.392,0,0,1-1.628.573,76.643,76.643,0,0,1-9.117.417,9.243,9.243,0,0,0-2.955.468,20.441,20.441,0,0,0-2.515,1.107c-.325.162-.823.326-.728-.21.05-.282.1-.562.171-.841a12.479,12.479,0,0,1,.6-1.863,3.191,3.191,0,0,1,.985-1.564,2.866,2.866,0,0,1,1.394-.379l6.153-.452a34.143,34.143,0,0,0,6.443-1.076.88.88,0,0,0,.6-.447,1.781,1.781,0,0,0,.047-.386.376.376,0,0,1,.19-.319C3084.747,1593.321,3085.427,1595.777,3085.47,1596.128Z" transform="translate(-3033.151 -1569.638)" fill="#fff"/>
              <path id="Path_187" data-name="Path 187" d="M2918.027,1699.987a12.412,12.412,0,0,1,2.1,5.068,8.029,8.029,0,0,1,.059,2.606,3.1,3.1,0,0,1-1.372,2.136,11.179,11.179,0,0,1-1.49.568,8.289,8.289,0,0,0-2.349,1.672q-2.511,2.256-5.121,4.394a18.886,18.886,0,0,1-4.053,2.733,6.932,6.932,0,0,1-4.771.507,4.3,4.3,0,0,1-3.1-3.432,5.02,5.02,0,0,1,.714-2.931c1.367-2.482,3.851-4.12,5.684-6.281a41.367,41.367,0,0,0,3.907-6.244,22.983,22.983,0,0,1,2.035-3.036,3.916,3.916,0,0,1,2.287-1.33c1.227-.295,2.827.629,3.706,1.44A12.5,12.5,0,0,1,2918.027,1699.987Z" transform="translate(-2883.943 -1660.027)" fill="#fff"/>
              <path id="Path_188" data-name="Path 188" d="M2784.607,1692.284l.151.144a5.977,5.977,0,0,0,2.42,1.446,11.747,11.747,0,0,1,2.783,1.014c.3.176.983.712,1.365.588s.506-.792,1.021-.919c.335-.082.745.017.99-.226.334-.33.043-.727.1-1.107a6.776,6.776,0,0,1,.634-1.395,2.216,2.216,0,0,0-.029-1.677c-.149-.344-.419-.619-.574-.954a2.054,2.054,0,0,1-.05-1.15,1.1,1.1,0,0,0,.032-.326.566.566,0,0,0-.312-.409,1.105,1.105,0,0,0-.52-.1c-1.092.009-.493.567-.924,1.107a.389.389,0,0,1-.461.073,1.111,1.111,0,0,1-.372-.334,19.2,19.2,0,0,0-1.85-2.146,3.708,3.708,0,0,0-1.254-.805,5.024,5.024,0,0,0-1.246-.212c-.2-.018-.485-.048-.641.111-.045.046-.167.436-.123.457a.778.778,0,0,0-.983.467c-.5,1.159.593,2.529.716,3.67.012.117.005.26-.1.321-.12.072-.27-.029-.364-.133-.428-.47-.636-1.111-1.086-1.559a.77.77,0,0,0-.642-.274c-.376.067-.518.531-.522.912A4.584,4.584,0,0,0,2784.607,1692.284Z" transform="translate(-2782.768 -1649.937)" fill="#fbbf9a"/>
              <path id="Path_189" data-name="Path 189" d="M2850.469,1761.775a9.974,9.974,0,0,1-2.285-.937,10.787,10.787,0,0,1-3.329-2.824,14.587,14.587,0,0,1-1.952-4.117c-.251-.707-.454-1.431-.676-2.148a24.039,24.039,0,0,0-1.963-4.213,2.468,2.468,0,0,1,1.058-2.857,3.256,3.256,0,0,1,1.36-.406c.978-.1,1.279.589,1.872,1.233a22.73,22.73,0,0,0,2,1.93,18.84,18.84,0,0,0,4.572,2.906,6.788,6.788,0,0,1,1.529.817,6.088,6.088,0,0,1,1.792,2.293c.483,1.156,1.009,2.315,1.58,3.431a5.8,5.8,0,0,1,.365,2.614,2.441,2.441,0,0,1-1.155,1.75,5.571,5.571,0,0,1-3.788.72A7.755,7.755,0,0,1,2850.469,1761.775Z" transform="translate(-2833.146 -1702.122)" fill="#fff"/>
            </g>
            <path id="Path_190" data-name="Path 190" d="M2955.772,1853.9a12.652,12.652,0,0,0,4.673,3.106,20.367,20.367,0,0,0,7.167,1.162,15.317,15.317,0,0,0,4.245-.543c3.9-1.155,6.86-4.488,8.539-8.194,2.538-5.6,2.236-11.69,3.759-17.515a19.823,19.823,0,0,1,4.331-8.366c3.9-4.267,12.69-6.332,15.856-.178a18.316,18.316,0,0,1,1.408,4.3q1.186,5.139,1.875,10.377c.969,7.375,1.1,14.815-4.362,20.54a32.694,32.694,0,0,1-11.06,7.219,32.357,32.357,0,0,1-24.517.635,31.6,31.6,0,0,1-3.341-1.513,19.372,19.372,0,0,1-10.351-13.513A10.565,10.565,0,0,0,2955.772,1853.9Z" transform="translate(-2933.23 -1768.242)" fill="#fef1ea"/>
            <path id="Path_191" data-name="Path 191" d="M3203.943,1815.658a13.563,13.563,0,0,1,1.715-3.819,9.333,9.333,0,0,1,1.382-1.624,14.694,14.694,0,0,1,4.086-2.765,14.01,14.01,0,0,1,4.945-.9,14.939,14.939,0,0,1,6.059,1.075,9.2,9.2,0,0,1,4.526,3.636c.441.771.838,1.921.152,2.676a3.477,3.477,0,0,1-1.865.922c-3.187.711-6.481-.19-9.739-.429a23.973,23.973,0,0,0-5.95.306l-.09.016a7.757,7.757,0,0,0-3.71,1.69,11.463,11.463,0,0,0-2.384,3.873,2.112,2.112,0,0,0,.049-.561q.031-.305.072-.61.082-.609.2-1.211C3203.547,1817.16,3203.725,1816.412,3203.943,1815.658Z" transform="translate(-3152.103 -1756.849)" fill="#fff"/>
          </g>
        </g>
      </g>
    </g>
  </g>
</svg>
