<svg xmlns="http://www.w3.org/2000/svg" width="18.02" height="15" viewBox="0 0 18.02 15"><g transform="translate(0.027 -2)"><g transform="translate(-0.007 4.244)"><path d="M16.125,17.756H1.875A1.857,1.857,0,0,1,0,15.88v-9A1.857,1.857,0,0,1,1.875,5h14.25A1.857,1.857,0,0,1,18,6.876v9A1.857,1.857,0,0,1,16.125,17.756ZM1.875,5.75A1.154,1.154,0,0,0,.75,6.876v9a1.154,1.154,0,0,0,1.125,1.126h14.25A1.154,1.154,0,0,0,17.25,15.88v-9A1.154,1.154,0,0,0,16.125,5.75Z" transform="translate(0 -5)"/></g><g transform="translate(6.001 2)"><path d="M13.611,4.992a.353.353,0,0,1-.374-.374v-1.5a.353.353,0,0,0-.374-.374H9.122a.353.353,0,0,0-.374.374v1.5a.374.374,0,0,1-.748,0v-1.5A1.151,1.151,0,0,1,9.122,2h3.74a1.151,1.151,0,0,1,1.122,1.122v1.5A.353.353,0,0,1,13.611,4.992Z" transform="translate(-8 -2)"/></g><g transform="translate(-0.027 7.226)"><path d="M8.993,12.731h-.15L.218,9.739a.456.456,0,0,1-.225-.524.458.458,0,0,1,.525-.224l8.475,2.992,8.475-2.992a.355.355,0,1,1,.225.673L9.068,12.656C9.068,12.731,9.068,12.731,8.993,12.731Z" transform="translate(0.027 -8.962)"/></g></g></svg>