<svg xmlns="http://www.w3.org/2000/svg" width="17.13" height="18.353" viewBox="0 0 17.13 18.353">
  <g id="Group_656" data-name="Group 656" transform="translate(-204.002 -802)">
    <g id="Group_307" data-name="Group 307" transform="translate(204.002 802)">
      <g id="Group_306" data-name="Group 306">
        <path id="Path_407" data-name="Path 407" d="M17.787,364.72l-.108-.057v-.122a.306.306,0,1,0-.612,0v.306a.306.306,0,0,0,.163.27l.27.143a.3.3,0,0,0,.143.036h0a.306.306,0,0,0,.143-.576Z" transform="translate(-17.068 -351.179)" fill="#00e7fc"/>
        <path id="Path_408" data-name="Path 408" d="M17.374,265.362a.306.306,0,0,0,.306-.306v-.6a.306.306,0,1,0-.612,0v.6a.306.306,0,0,0,.306.306Z" transform="translate(-17.068 -254.683)" fill="#00e7fc"/>
        <path id="Path_409" data-name="Path 409" d="M17.375,315.4a.306.306,0,0,0,.306-.306v-.6a.306.306,0,1,0-.612,0v.6a.306.306,0,0,0,.306.306Z" transform="translate(-17.069 -302.931)" fill="#00e7fc"/>
        <path id="Path_410" data-name="Path 410" d="M17.375,215.317a.306.306,0,0,0,.306-.306v-.6a.306.306,0,0,0-.612,0v.6a.306.306,0,0,0,.306.306Z" transform="translate(-17.069 -206.432)" fill="#00e7fc"/>
        <path id="Path_411" data-name="Path 411" d="M17.375,165.275a.306.306,0,0,0,.306-.306v-.6a.306.306,0,1,0-.612,0v.6a.306.306,0,0,0,.306.306Z" transform="translate(-17.069 -158.184)" fill="#00e7fc"/>
        <path id="Path_412" data-name="Path 412" d="M17.806,118.214a.306.306,0,0,0-.306-.011l-.27.143a.306.306,0,0,0-.163.27v.306a.306.306,0,1,0,.612,0V118.8l.108-.057a.306.306,0,0,0,.02-.53Z" transform="translate(-17.067 -113.932)" fill="#00e7fc"/>
        <path id="Path_413" data-name="Path 413" d="M55.671,94.6a.3.3,0,0,0,.143-.036l.551-.292a.306.306,0,1,0-.287-.541l-.551.292a.306.306,0,0,0,.144.576Z" transform="translate(-53.992 -90.342)" fill="#00e7fc"/>
        <path id="Path_414" data-name="Path 414" d="M147.954,45.653h0a.3.3,0,0,0,.143-.036l.551-.292a.306.306,0,1,0-.287-.54l-.551.292a.306.306,0,0,0,.144.576Z" transform="translate(-142.967 -43.144)" fill="#00e7fc"/>
        <path id="Path_415" data-name="Path 415" d="M101.813,70.139h0a.3.3,0,0,0,.143-.036l.551-.292a.306.306,0,0,0-.287-.541l-.551.292a.306.306,0,0,0,.144.576Z" transform="translate(-98.48 -66.753)" fill="#00e7fc"/>
        <path id="Path_416" data-name="Path 416" d="M194.1,21.186h0a.3.3,0,0,0,.143-.036l.551-.292a.306.306,0,1,0-.287-.54l-.551.292a.306.306,0,0,0,.144.576Z" transform="translate(-187.455 -19.554)" fill="#00e7fc"/>
        <path id="Path_417" data-name="Path 417" d="M240.373.72,240.5.652l.127.067a.3.3,0,0,0,.143.036h0a.306.306,0,0,0,.143-.576l-.27-.143a.305.305,0,0,0-.286,0l-.27.143a.306.306,0,0,0,.286.541Z" transform="translate(-231.935 0)" fill="#00e7fc"/>
        <path id="Path_418" data-name="Path 418" d="M285.925,20.882l.551.292a.306.306,0,0,0,.287-.541l-.551-.292a.306.306,0,0,0-.287.541Z" transform="translate(-276.131 -19.577)" fill="#00e7fc"/>
        <path id="Path_419" data-name="Path 419" d="M332.018,45.325l.551.292a.3.3,0,0,0,.143.036.306.306,0,0,0,.144-.576l-.551-.292a.306.306,0,1,0-.287.54Z" transform="translate(-320.57 -43.144)" fill="#00e7fc"/>
        <path id="Path_420" data-name="Path 420" d="M424.3,94.254l.551.292a.306.306,0,1,0,.287-.54l-.551-.292a.306.306,0,1,0-.287.54Z" transform="translate(-409.546 -90.319)" fill="#00e7fc"/>
        <path id="Path_421" data-name="Path 421" d="M378.16,69.792l.551.292a.3.3,0,0,0,.143.036h0a.306.306,0,0,0,.144-.576l-.551-.292a.306.306,0,1,0-.287.54Z" transform="translate(-365.058 -66.734)" fill="#00e7fc"/>
        <path id="Path_422" data-name="Path 422" d="M471.036,118.346l-.27-.143a.306.306,0,1,0-.286.541l.108.057v.122a.306.306,0,0,0,.612,0v-.306A.306.306,0,0,0,471.036,118.346Z" transform="translate(-454.069 -113.932)" fill="#00e7fc"/>
        <path id="Path_423" data-name="Path 423" d="M478.174,214.106a.306.306,0,0,0-.306.306v.6a.306.306,0,0,0,.612,0v-.6A.306.306,0,0,0,478.174,214.106Z" transform="translate(-461.35 -206.431)" fill="#00e7fc"/>
        <path id="Path_424" data-name="Path 424" d="M478.174,264.148a.306.306,0,0,0-.306.306v.6a.306.306,0,0,0,.612,0v-.6A.306.306,0,0,0,478.174,264.148Z" transform="translate(-461.35 -254.679)" fill="#00e7fc"/>
        <path id="Path_425" data-name="Path 425" d="M478.174,314.19a.306.306,0,0,0-.306.306v.6a.306.306,0,0,0,.612,0v-.6A.306.306,0,0,0,478.174,314.19Z" transform="translate(-461.35 -302.928)" fill="#00e7fc"/>
        <path id="Path_426" data-name="Path 426" d="M478.174,164.065a.306.306,0,0,0-.306.306v.6a.306.306,0,0,0,.612,0v-.6A.306.306,0,0,0,478.174,164.065Z" transform="translate(-461.35 -158.184)" fill="#00e7fc"/>
        <path id="Path_427" data-name="Path 427" d="M470.9,364.235a.306.306,0,0,0-.306.306v.122l-.108.057a.306.306,0,0,0,.143.576.3.3,0,0,0,.143-.036l.27-.143a.306.306,0,0,0,.163-.27v-.306A.306.306,0,0,0,470.9,364.235Z" transform="translate(-454.076 -351.179)" fill="#00e7fc"/>
        <path id="Path_428" data-name="Path 428" d="M286.784,466.49a.306.306,0,0,0-.307-.009l-.551.292a.306.306,0,1,0,.287.54l.551-.292a.306.306,0,0,0,.02-.531Z" transform="translate(-276.132 -449.724)" fill="#00e7fc"/>
        <path id="Path_429" data-name="Path 429" d="M340.451,467.227Z" transform="translate(-328.859 -450.479)" fill="#00e7fc"/>
        <path id="Path_430" data-name="Path 430" d="M332.925,442.023a.306.306,0,0,0-.307-.009l-.551.292a.306.306,0,1,0,.287.54l.551-.292a.306.306,0,0,0,.02-.531Z" transform="translate(-320.619 -426.134)" fill="#00e7fc"/>
        <path id="Path_431" data-name="Path 431" d="M386.584,442.765Z" transform="translate(-373.338 -426.894)" fill="#00e7fc"/>
        <path id="Path_432" data-name="Path 432" d="M424.9,393.107l-.551.292a.306.306,0,0,0,.287.541l.551-.292a.306.306,0,1,0-.287-.541Z" transform="translate(-409.588 -378.981)" fill="#00e7fc"/>
        <path id="Path_433" data-name="Path 433" d="M378.754,417.574l-.551.292a.306.306,0,0,0,.287.541l.551-.292a.306.306,0,1,0-.287-.541Z" transform="translate(-365.1 -402.571)" fill="#00e7fc"/>
        <path id="Path_434" data-name="Path 434" d="M240.926,490.981a.306.306,0,0,0-.306-.011l-.127.067-.127-.067a.306.306,0,1,0-.286.541l.27.143a.306.306,0,0,0,.286,0l.27-.143a.306.306,0,0,0,.02-.53Z" transform="translate(-231.928 -473.336)" fill="#00e7fc"/>
        <path id="Path_435" data-name="Path 435" d="M194.78,466.8l-.551-.292a.306.306,0,0,0-.287.541l.551.292a.306.306,0,0,0,.287-.541Z" transform="translate(-187.445 -449.747)" fill="#00e7fc"/>
        <path id="Path_436" data-name="Path 436" d="M56.314,393.373l-.551-.292a.306.306,0,1,0-.287.54l.551.292a.306.306,0,1,0,.287-.54Z" transform="translate(-53.941 -378.955)" fill="#00e7fc"/>
        <path id="Path_437" data-name="Path 437" d="M148.6,442.306l-.551-.292a.306.306,0,1,0-.287.54l.551.292a.3.3,0,0,0,.143.036h0a.306.306,0,0,0,.144-.576Z" transform="translate(-142.917 -426.134)" fill="#00e7fc"/>
        <path id="Path_438" data-name="Path 438" d="M102.456,417.84l-.551-.292a.306.306,0,1,0-.287.54l.551.292a.306.306,0,1,0,.287-.54Z" transform="translate(-98.429 -402.545)" fill="#00e7fc"/>
        <path id="Path_439" data-name="Path 439" d="M65.877,46.664q0-.01,0-.02l0-.015a.312.312,0,0,0-.013-.044l0,0-.01-.022,0-.006,0,0-.012-.02-.007-.01a.3.3,0,0,0-.024-.029l-.01-.011-.014-.013-.013-.011-.016-.011-.016-.01-.013-.008L58.681,42.7a.305.305,0,0,0-.286,0L51.36,46.425l0,0-.015.008-.012.009-.007.005-.025.021-.006.005-.023.025,0,.005a.3.3,0,0,0-.02.028l0,.005a.309.309,0,0,0-.016.031l0,.006a.3.3,0,0,0-.012.033l0,.006a.307.307,0,0,0-.007.034v.006a.305.305,0,0,0,0,.035s0,0,0,0V46.7s0,0,0,0h0v7.223a.306.306,0,0,0,.163.27L58.4,57.925a.306.306,0,0,0,.286,0L65.717,54.2a.306.306,0,0,0,.163-.27V46.7s0-.01,0-.015S65.878,46.67,65.877,46.664Zm-7.339-3.346L64.92,46.7l-6.286,3.327a.3.3,0,0,0-.19,0L52.157,46.7ZM51.809,47.2l6.424,3.4v6.543l-6.424-3.4Zm7.035,9.943V50.6l6.424-3.4v6.543Z" transform="translate(-49.973 -41.137)" fill="#00e7fc"/>
      </g>
    </g>
  </g>
</svg>
