<svg xmlns="http://www.w3.org/2000/svg" width="16.265" height="16.264" viewBox="0 0 16.265 16.264">
  <g id="Group_657" data-name="Group 657" transform="translate(-204 -838)">
    <g id="Group_309" data-name="Group 309" transform="translate(204 838)">
      <g id="Group_308" data-name="Group 308">
        <path id="Path_440" data-name="Path 440" d="M8.132,0a8.132,8.132,0,1,0,8.132,8.132A8.132,8.132,0,0,0,8.132,0Zm0,15.1a6.97,6.97,0,1,1,6.97-6.97A6.97,6.97,0,0,1,8.132,15.1Z" fill="#00e7fc"/>
      </g>
    </g>
    <g id="Group_311" data-name="Group 311" transform="translate(209.809 843.227)">
      <g id="Group_310" data-name="Group 310">
        <path id="Path_441" data-name="Path 441" d="M176.414,156.233a.581.581,0,0,0-.261-.261l-4.647-2.324a.581.581,0,0,0-.841.52v4.647a.581.581,0,0,0,.841.52l4.647-2.324A.581.581,0,0,0,176.414,156.233Zm-4.587,1.643v-2.767l2.767,1.384Z" transform="translate(-170.666 -153.587)" fill="#00e7fc"/>
      </g>
    </g>
  </g>
</svg>
