<svg xmlns="http://www.w3.org/2000/svg" width="40" height="40" viewBox="0 0 40 40">
  <g id="Group_105" data-name="Group 105" transform="translate(-302 -571)">
    <path id="Path_52" data-name="Path 52" d="M37.792,0H2.206A2.207,2.207,0,0,0,0,2.208V37.794A2.207,2.207,0,0,0,2.208,40H37.792A2.207,2.207,0,0,0,40,37.793h0V2.206A2.207,2.207,0,0,0,37.792,0Zm0,0" transform="translate(302 571)" fill="#0077b5"/>
    <g id="linkedin_2_" data-name="linkedin (2)" transform="translate(310 579)">
      <path id="Path_49" data-name="Path 49" d="M23.994,24H24V15.2c0-4.306-.927-7.623-5.961-7.623a5.226,5.226,0,0,0-4.707,2.587h-.07V7.976H8.489V24h4.97V16.065c0-2.089.4-4.109,2.983-4.109,2.549,0,2.587,2.384,2.587,4.243V24Z" fill="#fff"/>
      <path id="Path_50" data-name="Path 50" d="M.4,7.977H5.372V24H.4Z" fill="#fff"/>
      <path id="Path_51" data-name="Path 51" d="M2.882,0A2.9,2.9,0,1,0,5.764,2.882,2.883,2.883,0,0,0,2.882,0Z" fill="#fff"/>
    </g>
  </g>
</svg>
