<svg xmlns="http://www.w3.org/2000/svg" width="40" height="40" viewBox="0 0 40 40">
  <g id="Group_101" data-name="Group 101" transform="translate(-362 -571)">
    <path id="Path_54" data-name="Path 54" d="M37.792,0H2.206A2.207,2.207,0,0,0,0,2.208V37.794A2.207,2.207,0,0,0,2.208,40H37.792A2.207,2.207,0,0,0,40,37.793h0V2.206A2.207,2.207,0,0,0,37.792,0Zm0,0" transform="translate(362 571)" fill="#cb2027"/>
    <g id="pinterest_1_" data-name="pinterest (1)" transform="translate(363.666 572.665)">
      <circle id="Ellipse_10" data-name="Ellipse 10" cx="18.431" cy="18.431" r="18.431" transform="translate(0.001 0.002)" fill="#cb2027"/>
      <g id="Group_100" data-name="Group 100" transform="translate(9.529 8.081)">
        <path id="Path_53" data-name="Path 53" d="M39.391,41.194c-1.393-.108-1.979-.8-3.072-1.462-.6,3.151-1.335,6.172-3.509,7.75-.672-4.763.985-8.34,1.754-12.137-1.312-2.208.158-6.652,2.924-5.557,3.4,1.346-2.948,8.21,1.317,9.067,4.452.895,6.27-7.725,3.509-10.529-3.989-4.048-11.612-.092-10.675,5.7.228,1.417,1.692,1.847.585,3.8-2.553-.565-3.315-2.579-3.217-5.264.158-4.394,3.949-7.471,7.751-7.9,4.808-.538,9.321,1.766,9.944,6.289.7,5.1-2.171,10.633-7.312,10.236Z" transform="translate(-29 -24.593)" fill="#f1f2f2"/>
      </g>
    </g>
  </g>
</svg>
