<svg xmlns="http://www.w3.org/2000/svg" width="40" height="40" viewBox="0 0 40 40">
  <g id="Group_103" data-name="Group 103" transform="translate(-421 -571)">
    <path id="Path_57" data-name="Path 57" d="M37.792,0H2.206A2.207,2.207,0,0,0,0,2.208V37.794A2.207,2.207,0,0,0,2.208,40H37.792A2.207,2.207,0,0,0,40,37.793h0V2.206A2.207,2.207,0,0,0,37.792,0Zm0,0" transform="translate(421 571)" fill="red"/>
    <g id="Group_102" data-name="Group 102" transform="translate(6 4)">
      <path id="Path_55" data-name="Path 55" d="M24.487,2.739a3.132,3.132,0,0,0-2.2-2.2C20.327,0,12.5,0,12.5,0S4.675,0,2.718.515a3.2,3.2,0,0,0-2.2,2.224A33.007,33.007,0,0,0,0,8.753a32.886,32.886,0,0,0,.515,6.014,3.133,3.133,0,0,0,2.2,2.2c1.977.535,9.782.535,9.782.535s7.826,0,9.782-.515a3.132,3.132,0,0,0,2.2-2.2A33.008,33.008,0,0,0,25,8.773a31.33,31.33,0,0,0-.515-6.034Zm0,0" transform="translate(422 578)" fill="#fff"/>
      <path id="Path_56" data-name="Path 56" d="M204.969,109.981l6.508-3.748-6.508-3.748Zm0,0" transform="translate(227.04 480.52)" fill="red"/>
    </g>
  </g>
</svg>
