<svg xmlns="http://www.w3.org/2000/svg" width="16.991" height="15" viewBox="0 0 16.991 15">
  <g id="Group_650" data-name="Group 650" transform="translate(-566 -737)">
    <path id="Path_402" data-name="Path 402" d="M0,30V45H16.991V30ZM16,44H1V31H16Z" transform="translate(566 707)"/>
    <path id="Path_403" data-name="Path 403" d="M73.241,90H60v11.25H73.241Zm-1.013,1.017v7.176a11.158,11.158,0,0,1-5.38-1.48,12.155,12.155,0,0,0-5.835-1.589V91.017Zm-11.214,9.217V96.141a11.158,11.158,0,0,1,5.38,1.48,12.154,12.154,0,0,0,5.835,1.589v1.024Z" transform="translate(507.875 648.875)"/>
    <path id="Path_404" data-name="Path 404" d="M272.891,153.781A1.891,1.891,0,1,0,271,151.891,1.893,1.893,0,0,0,272.891,153.781Zm0-2.844a.953.953,0,1,1-.953.953A.954.954,0,0,1,272.891,150.938Z" transform="translate(304.156 591.067)"/>
  </g>
</svg>
