<svg xmlns="http://www.w3.org/2000/svg" width="16.5" height="11.601" viewBox="0 0 16.5 11.601">
  <g id="Group_651" data-name="Group 651" transform="translate(-566 -773)">
    <g id="Group_303" data-name="Group 303" transform="translate(566 773)">
      <path id="Path_405" data-name="Path 405" d="M3.256,87.574a.483.483,0,0,0,.643-.456V84.342a14.959,14.959,0,0,1,4.35-.608,14.959,14.959,0,0,1,4.35.608v2.776a.483.483,0,0,0,.643.456c1.514-.531,3.251-1.336,3.256-2.867,0,0,0-4.84,0-4.84,0-1.107-.913-2.114-2.572-2.836A14.651,14.651,0,0,0,8.25,76a14.651,14.651,0,0,0-5.678,1.031C.913,77.753,0,78.76,0,79.867v4.84c0,1.53,1.742,2.336,3.256,2.867ZM15.533,84.7c0,.621-.629,1.174-1.966,1.718V82.845a6.582,6.582,0,0,0,1.966-1.13ZM2.958,77.918a13.677,13.677,0,0,1,5.292-.951,13.677,13.677,0,0,1,5.292.951c1.265.55,1.991,1.261,1.991,1.949,0,1.045-1.609,1.835-2.609,2.185a.483.483,0,0,0-.323.456v.825a15.987,15.987,0,0,0-4.35-.566,15.987,15.987,0,0,0-4.35.566v-.825a.483.483,0,0,0-.323-.456c-1-.35-2.609-1.142-2.609-2.185,0-.688.726-1.4,1.991-1.949Zm-1.991,3.8a6.582,6.582,0,0,0,1.966,1.13v3.574C1.6,85.875.967,85.322.967,84.7.967,80.828.967,85.206.967,81.715Z" transform="translate(0 -76)"/>
    </g>
    <g id="Group_304" data-name="Group 304" transform="translate(570.145 774.934)">
      <path id="Path_406" data-name="Path 406" d="M129.2,140.214a18.066,18.066,0,0,1,7.049,0,.483.483,0,0,0,.5-.742l-2.171-3.257a.483.483,0,0,0-.8,0l-1.048,1.572-1.048-1.572a.483.483,0,0,0-.8,0l-2.172,3.257a.483.483,0,0,0,.5.742Zm4.975-2.859,1.147,1.721c-.6-.083-1.22-.137-1.846-.161l-.171-.256Zm-2.9,0,1.033,1.55a18.888,18.888,0,0,0-2.18.171Z" transform="translate(-128.615 -136)"/>
    </g>
    <g id="Group_305" data-name="Group 305" transform="translate(577.635 775.9)">
      <circle id="Ellipse_13" data-name="Ellipse 13" cx="0.483" cy="0.483" r="0.483"/>
    </g>
  </g>
</svg>
